<mxfile host="Electron" modified="2023-05-27T11:27:33.188Z" agent="Mozilla/5.0 (Macintosh; Intel Mac OS X 10_15_7) AppleWebKit/537.36 (KHTML, like Gecko) draw.io/21.2.8 Chrome/112.0.5615.165 Electron/24.2.0 Safari/537.36" etag="DdXe0EU3zHYaJEFjsAzs" version="21.2.8" type="device">
  <diagram name="Pagina-1" id="8AaMtCOodJhcFK5hi-PZ">
    <mxGraphModel dx="2339" dy="1305" grid="1" gridSize="10" guides="1" tooltips="1" connect="1" arrows="1" fold="1" page="1" pageScale="1" pageWidth="1654" pageHeight="1169" math="0" shadow="0">
      <root>
        <mxCell id="0" />
        <mxCell id="1" parent="0" />
        <mxCell id="jDFsE17C1XnJ7V32I2Ic-1" value="" style="shape=image;verticalLabelPosition=bottom;labelBackgroundColor=default;verticalAlign=top;aspect=fixed;imageAspect=0;image=data:image/svg+xml,PHN2ZyB4bWxuczp4bGluaz0iaHR0cDovL3d3dy53My5vcmcvMTk5OS94bGluayIgeG1sbnM9Imh0dHA6Ly93d3cudzMub3JnLzIwMDAvc3ZnIiB6b29tQW5kUGFuPSJtYWduaWZ5IiB3aWR0aD0iMzU1Ny42NTUwMjkyOTY4NzUiIHZpZXdCb3g9IjE2IDYgMzU1Ny42NTUwMjkyOTY4NzUgMTQyNiIgdmVyc2lvbj0iMS4xIiBzdHlsZT0id2lkdGg6MzYyMnB4O2hlaWdodDoxNDQxcHg7YmFja2dyb3VuZDojRkZGRkZGOyIgcHJlc2VydmVBc3BlY3RSYXRpbz0ibm9uZSIgaGVpZ2h0PSIxNDI2Ij48ZGVmcz48ZmlsdGVyIHk9Ii0xIiB4PSItMSIgd2lkdGg9IjMwMCUiIGlkPSJmc3p6N29xaTl0aGQzIiBoZWlnaHQ9IjMwMCUiPjxmZUdhdXNzaWFuQmx1ciBzdGREZXZpYXRpb249IjIuMCIgcmVzdWx0PSJibHVyT3V0Ii8+PGZlQ29sb3JNYXRyaXggdmFsdWVzPSIwIDAgMCAwIDAgMCAwIDAgMCAwIDAgMCAwIDAgMCAwIDAgMCAuNCAwIiB0eXBlPSJtYXRyaXgiIHJlc3VsdD0iYmx1ck91dDIiIGluPSJibHVyT3V0Ii8+PGZlT2Zmc2V0IHJlc3VsdD0iYmx1ck91dDMiIGluPSJibHVyT3V0MiIgZHk9IjQuMCIgZHg9IjQuMCIvPjxmZUJsZW5kIG1vZGU9Im5vcm1hbCIgaW4yPSJibHVyT3V0MyIgaW49IlNvdXJjZUdyYXBoaWMiLz48L2ZpbHRlcj48L2RlZnM+PGc+PGcgaWQ9ImNsdXN0ZXJfaXQiPjxwb2x5Z29uIHN0eWxlPSJzdHJva2U6IzAwMDAwMDtzdHJva2Utd2lkdGg6MS41OyIgcG9pbnRzPSIxNiwyNjMsMzUsMjYzLDQyLDI4NS4yOTY5LDMzMTEsMjg1LjI5NjksMzMxMSwxNDMyLDE2LDE0MzIsMTYsMjYzIiBmaWx0ZXI9InVybCgjZnN6ejdvcWk5dGhkMykiIGZpbGw9Im5vbmUiLz48bGluZSB5Mj0iMjg1LjI5NjkiIHkxPSIyODUuMjk2OSIgeDI9IjQyIiB4MT0iMTYiIHN0eWxlPSJzdHJva2U6IzAwMDAwMDtzdHJva2Utd2lkdGg6MS41OyIvPjx0ZXh0IHk9IjI3Ny45OTUxIiB4PSIyMCIgdGV4dExlbmd0aD0iMTMiIGxlbmd0aEFkanVzdD0ic3BhY2luZyIgZm9udC13ZWlnaHQ9ImJvbGQiIGZvbnQtc2l6ZT0iMTQiIGZvbnQtZmFtaWx5PSJzYW5zLXNlcmlmIiBmaWxsPSIjMDAwMDAwIj5pdDwvdGV4dD48L2c+PGcgaWQ9ImNsdXN0ZXJfcG9saW1pIj48cG9seWdvbiBzdHlsZT0ic3Ryb2tlOiMwMDAwMDA7c3Ryb2tlLXdpZHRoOjEuNTsiIHBvaW50cz0iNDAsMzA2LDk2LDMwNiwxMDMsMzI4LjI5NjksMzI4NywzMjguMjk2OSwzMjg3LDE0MDgsNDAsMTQwOCw0MCwzMDYiIGZpbHRlcj0idXJsKCNmc3p6N29xaTl0aGQzKSIgZmlsbD0ibm9uZSIvPjxsaW5lIHkyPSIzMjguMjk2OSIgeTE9IjMyOC4yOTY5IiB4Mj0iMTAzIiB4MT0iNDAiIHN0eWxlPSJzdHJva2U6IzAwMDAwMDtzdHJva2Utd2lkdGg6MS41OyIvPjx0ZXh0IHk9IjMyMC45OTUxIiB4PSI0NCIgdGV4dExlbmd0aD0iNTAiIGxlbmd0aEFkanVzdD0ic3BhY2luZyIgZm9udC13ZWlnaHQ9ImJvbGQiIGZvbnQtc2l6ZT0iMTQiIGZvbnQtZmFtaWx5PSJzYW5zLXNlcmlmIiBmaWxsPSIjMDAwMDAwIj5wb2xpbWk8L3RleHQ+PC9nPjxnIGlkPSJjbHVzdGVyX2luZ3N3Ij48cG9seWdvbiBzdHlsZT0ic3Ryb2tlOiMwMDAwMDA7c3Ryb2tlLXdpZHRoOjEuNTsiIHBvaW50cz0iNjQsMzQ5LDExNywzNDksMTI0LDM3MS4yOTY5LDMyNjMsMzcxLjI5NjksMzI2MywxMzg0LDY0LDEzODQsNjQsMzQ5IiBmaWx0ZXI9InVybCgjZnN6ejdvcWk5dGhkMykiIGZpbGw9Im5vbmUiLz48bGluZSB5Mj0iMzcxLjI5NjkiIHkxPSIzNzEuMjk2OSIgeDI9IjEyNCIgeDE9IjY0IiBzdHlsZT0ic3Ryb2tlOiMwMDAwMDA7c3Ryb2tlLXdpZHRoOjEuNTsiLz48dGV4dCB5PSIzNjMuOTk1MSIgeD0iNjgiIHRleHRMZW5ndGg9IjQ3IiBsZW5ndGhBZGp1c3Q9InNwYWNpbmciIGZvbnQtd2VpZ2h0PSJib2xkIiBmb250LXNpemU9IjE0IiBmb250LWZhbWlseT0ic2Fucy1zZXJpZiIgZmlsbD0iIzAwMDAwMCI+aW5nc3c8L3RleHQ+PC9nPjxnIGlkPSJjbHVzdGVyX0NsaWVudCI+PHBvbHlnb24gc3R5bGU9InN0cm9rZTojMDAwMDAwO3N0cm9rZS13aWR0aDoxLjU7IiBwb2ludHM9IjYzOSw5ODgsNjkyLDk4OCw2OTksMTAxMC4yOTY5LDMyMzksMTAxMC4yOTY5LDMyMzksMTM2MCw2MzksMTM2MCw2MzksOTg4IiBmaWx0ZXI9InVybCgjZnN6ejdvcWk5dGhkMykiIGZpbGw9Im5vbmUiLz48bGluZSB5Mj0iMTAxMC4yOTY5IiB5MT0iMTAxMC4yOTY5IiB4Mj0iNjk5IiB4MT0iNjM5IiBzdHlsZT0ic3Ryb2tlOiMwMDAwMDA7c3Ryb2tlLXdpZHRoOjEuNTsiLz48dGV4dCB5PSIxMDAyLjk5NTEiIHg9IjY0MyIgdGV4dExlbmd0aD0iNDciIGxlbmd0aEFkanVzdD0ic3BhY2luZyIgZm9udC13ZWlnaHQ9ImJvbGQiIGZvbnQtc2l6ZT0iMTQiIGZvbnQtZmFtaWx5PSJzYW5zLXNlcmlmIiBmaWxsPSIjMDAwMDAwIj5DbGllbnQ8L3RleHQ+PC9nPjxnIGlkPSJjbHVzdGVyX0NsaWVudE1vZGVsIj48cG9seWdvbiBzdHlsZT0ic3Ryb2tlOiMwMDAwMDA7c3Ryb2tlLXdpZHRoOjEuNTsiIHBvaW50cz0iMTI3NCwxMDMxLDEzNzUsMTAzMSwxMzgyLDEwNTMuMjk2OSwzMjE1LDEwNTMuMjk2OSwzMjE1LDEzMzYsMTI3NCwxMzM2LDEyNzQsMTAzMSIgZmlsdGVyPSJ1cmwoI2Zzeno3b3FpOXRoZDMpIiBmaWxsPSJub25lIi8+PGxpbmUgeTI9IjEwNTMuMjk2OSIgeTE9IjEwNTMuMjk2OSIgeDI9IjEzODIiIHgxPSIxMjc0IiBzdHlsZT0ic3Ryb2tlOiMwMDAwMDA7c3Ryb2tlLXdpZHRoOjEuNTsiLz48dGV4dCB5PSIxMDQ1Ljk5NTEiIHg9IjEyNzgiIHRleHRMZW5ndGg9Ijk1IiBsZW5ndGhBZGp1c3Q9InNwYWNpbmciIGZvbnQtd2VpZ2h0PSJib2xkIiBmb250LXNpemU9IjE0IiBmb250LWZhbWlseT0ic2Fucy1zZXJpZiIgZmlsbD0iIzAwMDAwMCI+Q2xpZW50TW9kZWw8L3RleHQ+PC9nPjxnIGlkPSJjbHVzdGVyX1ZpZXciPjxwb2x5Z29uIHN0eWxlPSJzdHJva2U6IzAwMDAwMDtzdHJva2Utd2lkdGg6MS41OyIgcG9pbnRzPSIxMDk0LDEwODAsMTEzOCwxMDgwLDExNDUsMTEwMi4yOTY5LDEyNTAsMTEwMi4yOTY5LDEyNTAsMTE3OSwxMDk0LDExNzksMTA5NCwxMDgwIiBmaWx0ZXI9InVybCgjZnN6ejdvcWk5dGhkMykiIGZpbGw9Im5vbmUiLz48bGluZSB5Mj0iMTEwMi4yOTY5IiB5MT0iMTEwMi4yOTY5IiB4Mj0iMTE0NSIgeDE9IjEwOTQiIHN0eWxlPSJzdHJva2U6IzAwMDAwMDtzdHJva2Utd2lkdGg6MS41OyIvPjx0ZXh0IHk9IjEwOTQuOTk1MSIgeD0iMTA5OCIgdGV4dExlbmd0aD0iMzgiIGxlbmd0aEFkanVzdD0ic3BhY2luZyIgZm9udC13ZWlnaHQ9ImJvbGQiIGZvbnQtc2l6ZT0iMTQiIGZvbnQtZmFtaWx5PSJzYW5zLXNlcmlmIiBmaWxsPSIjMDAwMDAwIj5WaWV3PC90ZXh0PjwvZz48ZyBpZD0iY2x1c3Rlcl9Db21tb24iPjxwb2x5Z29uIHN0eWxlPSJzdHJva2U6IzAwMDAwMDtzdHJva2Utd2lkdGg6MS41OyIgcG9pbnRzPSIyODMsMzkyLDM1OSwzOTIsMzY2LDQxNC4yOTY5LDMwOTQsNDE0LjI5NjksMzA5NCw5NjQsMjgzLDk2NCwyODMsMzkyIiBmaWx0ZXI9InVybCgjZnN6ejdvcWk5dGhkMykiIGZpbGw9Im5vbmUiLz48bGluZSB5Mj0iNDE0LjI5NjkiIHkxPSI0MTQuMjk2OSIgeDI9IjM2NiIgeDE9IjI4MyIgc3R5bGU9InN0cm9rZTojMDAwMDAwO3N0cm9rZS13aWR0aDoxLjU7Ii8+PHRleHQgeT0iNDA2Ljk5NTEiIHg9IjI4NyIgdGV4dExlbmd0aD0iNzAiIGxlbmd0aEFkanVzdD0ic3BhY2luZyIgZm9udC13ZWlnaHQ9ImJvbGQiIGZvbnQtc2l6ZT0iMTQiIGZvbnQtZmFtaWx5PSJzYW5zLXNlcmlmIiBmaWxsPSIjMDAwMDAwIj5Db21tb248L3RleHQ+PC9nPjxnIGlkPSJjbHVzdGVyX1NlcnZlciI+PHBvbHlnb24gc3R5bGU9InN0cm9rZTojMDAwMDAwO3N0cm9rZS13aWR0aDoxLjU7IiBwb2ludHM9Ijg4LDEwMzcsMTQ1LDEwMzcsMTUyLDEwNTkuMjk2OSw2MTUsMTA1OS4yOTY5LDYxNSwxMzM2LDg4LDEzMzYsODgsMTAzNyIgZmlsdGVyPSJ1cmwoI2Zzeno3b3FpOXRoZDMpIiBmaWxsPSJub25lIi8+PGxpbmUgeTI9IjEwNTkuMjk2OSIgeTE9IjEwNTkuMjk2OSIgeDI9IjE1MiIgeDE9Ijg4IiBzdHlsZT0ic3Ryb2tlOiMwMDAwMDA7c3Ryb2tlLXdpZHRoOjEuNTsiLz48dGV4dCB5PSIxMDUxLjk5NTEiIHg9IjkyIiB0ZXh0TGVuZ3RoPSI1MSIgbGVuZ3RoQWRqdXN0PSJzcGFjaW5nIiBmb250LXdlaWdodD0iYm9sZCIgZm9udC1zaXplPSIxNCIgZm9udC1mYW1pbHk9InNhbnMtc2VyaWYiIGZpbGw9IiMwMDAwMDAiPlNlcnZlcjwvdGV4dD48L2c+PGcgaWQ9ImNsdXN0ZXJfQ29udHJvbGxlciI+PHBvbHlnb24gc3R5bGU9InN0cm9rZTojMDAwMDAwO3N0cm9rZS13aWR0aDoxLjU7IiBwb2ludHM9IjM5MywxMDgwLDQ4MCwxMDgwLDQ4NywxMTAyLjI5NjksNTkxLDExMDIuMjk2OSw1OTEsMTE3OSwzOTMsMTE3OSwzOTMsMTA4MCIgZmlsdGVyPSJ1cmwoI2Zzeno3b3FpOXRoZDMpIiBmaWxsPSJub25lIi8+PGxpbmUgeTI9IjExMDIuMjk2OSIgeTE9IjExMDIuMjk2OSIgeDI9IjQ4NyIgeDE9IjM5MyIgc3R5bGU9InN0cm9rZTojMDAwMDAwO3N0cm9rZS13aWR0aDoxLjU7Ii8+PHRleHQgeT0iMTA5NC45OTUxIiB4PSIzOTciIHRleHRMZW5ndGg9IjgxIiBsZW5ndGhBZGp1c3Q9InNwYWNpbmciIGZvbnQtd2VpZ2h0PSJib2xkIiBmb250LXNpemU9IjE0IiBmb250LWZhbWlseT0ic2Fucy1zZXJpZiIgZmlsbD0iIzAwMDAwMCI+Q29udHJvbGxlcjwvdGV4dD48L2c+PGcgaWQ9ImNsdXN0ZXJfamF2YSI+PHBvbHlnb24gc3R5bGU9InN0cm9rZTojMDAwMDAwO3N0cm9rZS13aWR0aDoxLjU7IiBwb2ludHM9IjE5NzUsNiwyMDE1LDYsMjAyMiwyOC4yOTY5LDIzOTYsMjguMjk2OSwyMzk2LDIzOSwxOTc1LDIzOSwxOTc1LDYiIGZpbHRlcj0idXJsKCNmc3p6N29xaTl0aGQzKSIgZmlsbD0ibm9uZSIvPjxsaW5lIHkyPSIyOC4yOTY5IiB5MT0iMjguMjk2OSIgeDI9IjIwMjIiIHgxPSIxOTc1IiBzdHlsZT0ic3Ryb2tlOiMwMDAwMDA7c3Ryb2tlLXdpZHRoOjEuNTsiLz48dGV4dCB5PSIyMC45OTUxIiB4PSIxOTc5IiB0ZXh0TGVuZ3RoPSIzNCIgbGVuZ3RoQWRqdXN0PSJzcGFjaW5nIiBmb250LXdlaWdodD0iYm9sZCIgZm9udC1zaXplPSIxNCIgZm9udC1mYW1pbHk9InNhbnMtc2VyaWYiIGZpbGw9IiMwMDAwMDAiPmphdmE8L3RleHQ+PC9nPjxnIGlkPSJjbHVzdGVyX3JtaSI+PHBvbHlnb24gc3R5bGU9InN0cm9rZTojMDAwMDAwO3N0cm9rZS13aWR0aDoxLjU7IiBwb2ludHM9IjE5OTksNDksMjAzMiw0OSwyMDM5LDcxLjI5NjksMjM3Miw3MS4yOTY5LDIzNzIsMjE1LDE5OTksMjE1LDE5OTksNDkiIGZpbHRlcj0idXJsKCNmc3p6N29xaTl0aGQzKSIgZmlsbD0ibm9uZSIvPjxsaW5lIHkyPSI3MS4yOTY5IiB5MT0iNzEuMjk2OSIgeDI9IjIwMzkiIHgxPSIxOTk5IiBzdHlsZT0ic3Ryb2tlOiMwMDAwMDA7c3Ryb2tlLXdpZHRoOjEuNTsiLz48dGV4dCB5PSI2My45OTUxIiB4PSIyMDAzIiB0ZXh0TGVuZ3RoPSIyNyIgbGVuZ3RoQWRqdXN0PSJzcGFjaW5nIiBmb250LXdlaWdodD0iYm9sZCIgZm9udC1zaXplPSIxNCIgZm9udC1mYW1pbHk9InNhbnMtc2VyaWYiIGZpbGw9IiMwMDAwMDAiPnJtaTwvdGV4dD48L2c+PGcgaWQ9ImNsdXN0ZXJfc2VydmVyIj48cG9seWdvbiBzdHlsZT0ic3Ryb2tlOiMwMDAwMDA7c3Ryb2tlLXdpZHRoOjEuNTsiIHBvaW50cz0iMjEyNCw5MiwyMTgwLDkyLDIxODcsMTE0LjI5NjksMjM0OCwxMTQuMjk2OSwyMzQ4LDE5MSwyMTI0LDE5MSwyMTI0LDkyIiBmaWx0ZXI9InVybCgjZnN6ejdvcWk5dGhkMykiIGZpbGw9Im5vbmUiLz48bGluZSB5Mj0iMTE0LjI5NjkiIHkxPSIxMTQuMjk2OSIgeDI9IjIxODciIHgxPSIyMTI0IiBzdHlsZT0ic3Ryb2tlOiMwMDAwMDA7c3Ryb2tlLXdpZHRoOjEuNTsiLz48dGV4dCB5PSIxMDYuOTk1MSIgeD0iMjEyOCIgdGV4dExlbmd0aD0iNTAiIGxlbmd0aEFkanVzdD0ic3BhY2luZyIgZm9udC13ZWlnaHQ9ImJvbGQiIGZvbnQtc2l6ZT0iMTQiIGZvbnQtZmFtaWx5PSJzYW5zLXNlcmlmIiBmaWxsPSIjMDAwMDAwIj5zZXJ2ZXI8L3RleHQ+PC9nPjxnIGlkPSJjbHVzdGVyX2phdmFmeCI+PHBvbHlnb24gc3R5bGU9InN0cm9rZTojMDAwMDAwO3N0cm9rZS13aWR0aDoxLjU7IiBwb2ludHM9IjMzMzUsNTg1LjUsMzM5MSw1ODUuNSwzMzk4LDYwNy43OTY5LDM1MzEsNjA3Ljc5NjksMzUzMSw3NTEuNSwzMzM1LDc1MS41LDMzMzUsNTg1LjUiIGZpbHRlcj0idXJsKCNmc3p6N29xaTl0aGQzKSIgZmlsbD0ibm9uZSIvPjxsaW5lIHkyPSI2MDcuNzk2OSIgeTE9IjYwNy43OTY5IiB4Mj0iMzM5OCIgeDE9IjMzMzUiIHN0eWxlPSJzdHJva2U6IzAwMDAwMDtzdHJva2Utd2lkdGg6MS41OyIvPjx0ZXh0IHk9IjYwMC40OTUxIiB4PSIzMzM5IiB0ZXh0TGVuZ3RoPSI1MCIgbGVuZ3RoQWRqdXN0PSJzcGFjaW5nIiBmb250LXdlaWdodD0iYm9sZCIgZm9udC1zaXplPSIxNCIgZm9udC1mYW1pbHk9InNhbnMtc2VyaWYiIGZpbGw9IiMwMDAwMDAiPmphdmFmeDwvdGV4dD48L2c+PGcgaWQ9ImNsdXN0ZXJfYXBwbGljYXRpb24iPjxwb2x5Z29uIHN0eWxlPSJzdHJva2U6IzAwMDAwMDtzdHJva2Utd2lkdGg6MS41OyIgcG9pbnRzPSIzMzU5LDYyOC41LDM0NTcsNjI4LjUsMzQ2NCw2NTAuNzk2OSwzNTA3LDY1MC43OTY5LDM1MDcsNzI3LjUsMzM1OSw3MjcuNSwzMzU5LDYyOC41IiBmaWx0ZXI9InVybCgjZnN6ejdvcWk5dGhkMykiIGZpbGw9Im5vbmUiLz48bGluZSB5Mj0iNjUwLjc5NjkiIHkxPSI2NTAuNzk2OSIgeDI9IjM0NjQiIHgxPSIzMzU5IiBzdHlsZT0ic3Ryb2tlOiMwMDAwMDA7c3Ryb2tlLXdpZHRoOjEuNTsiLz48dGV4dCB5PSI2NDMuNDk1MSIgeD0iMzM2MyIgdGV4dExlbmd0aD0iOTIiIGxlbmd0aEFkanVzdD0ic3BhY2luZyIgZm9udC13ZWlnaHQ9ImJvbGQiIGZvbnQtc2l6ZT0iMTQiIGZvbnQtZmFtaWx5PSJzYW5zLXNlcmlmIiBmaWxsPSIjMDAwMDAwIj5hcHBsaWNhdGlvbjwvdGV4dD48L2c+PGcgaWQ9ImVsZW1fU29ja2V0Q2xpZW50Ij48cmVjdCB5PSIxMTE1IiB4PSI5NDkiIHdpZHRoPSIxMjYiIHN0eWxlPSJzdHJva2U6I0E4MDAzNjtzdHJva2Utd2lkdGg6MS4wOyIgaWQ9IlNvY2tldENsaWVudCIgaGVpZ2h0PSI0OCIgZmlsdGVyPSJ1cmwoI2Zzeno3b3FpOXRoZDMpIiBmaWxsPSIjRkVGRUNFIi8+PGVsbGlwc2Ugc3R5bGU9InN0cm9rZTojQTgwMDM2O3N0cm9rZS13aWR0aDoxLjA7IiByeT0iMTEiIHJ4PSIxMSIgZmlsbD0iI0FERDFCMiIgY3k9IjExMzEiIGN4PSI5NjQiLz48cGF0aCBmaWxsPSIjMDAwMDAwIiBkPSJNOTY2LjM0MzgsMTEyNi42NzE5IEM5NjUuNDA2MywxMTI2LjIzNDQgOTY0LjgxMjUsMTEyNi4wOTM4IDk2My45Mzc1LDExMjYuMDkzOCBDOTYxLjMxMjUsMTEyNi4wOTM4IDk1OS4zMTI1LDExMjguMTcxOSA5NTkuMzEyNSwxMTMwLjg5MDYgTDk1OS4zMTI1LDExMzIuMDE1NiBDOTU5LjMxMjUsMTEzNC41OTM4IDk2MS40MjE5LDExMzYuNDg0NCA5NjQuMzEyNSwxMTM2LjQ4NDQgQzk2NS41MzEzLDExMzYuNDg0NCA5NjYuNjg3NSwxMTM2LjE4NzUgOTY3LjQzNzUsMTEzNS42NDA2IEM5NjguMDE1NiwxMTM1LjIzNDQgOTY4LjM0MzgsMTEzNC43ODEzIDk2OC4zNDM4LDExMzQuMzkwNiBDOTY4LjM0MzgsMTEzMy45Mzc1IDk2Ny45NTMxLDExMzMuNTQ2OSA5NjcuNDg0NCwxMTMzLjU0NjkgQzk2Ny4yNjU2LDExMzMuNTQ2OSA5NjcuMDYyNSwxMTMzLjYyNSA5NjYuODc1LDExMzMuODEyNSBDOTY2LjQyMTksMTEzNC4yOTY5IDk2Ni40MjE5LDExMzQuMjk2OSA5NjYuMjM0NCwxMTM0LjM5MDYgQzk2NS44MTI1LDExMzQuNjU2MyA5NjUuMTI1LDExMzQuNzgxMyA5NjQuMzU5NCwxMTM0Ljc4MTMgQzk2Mi4zMTI1LDExMzQuNzgxMyA5NjEuMDE1NiwxMTMzLjY4NzUgOTYxLjAxNTYsMTEzMS45ODQ0IEw5NjEuMDE1NiwxMTMwLjg5MDYgQzk2MS4wMTU2LDExMjkuMTA5NCA5NjIuMjY1NiwxMTI3Ljc5NjkgOTY0LDExMjcuNzk2OSBDOTY0LjU3ODEsMTEyNy43OTY5IDk2NS4xODc1LDExMjcuOTUzMSA5NjUuNjU2MywxMTI4LjIwMzEgQzk2Ni4xNDA2LDExMjguNDg0NCA5NjYuMzEyNSwxMTI4LjcwMzEgOTY2LjQwNjMsMTEyOS4xMDk0IEM5NjYuNDY4OCwxMTI5LjUxNTYgOTY2LjUsMTEyOS42NDA2IDk2Ni42NDA2LDExMjkuNzY1NiBDOTY2Ljc4MTMsMTEyOS45MDYzIDk2Ny4wMTU2LDExMzAuMDE1NiA5NjcuMjM0NCwxMTMwLjAxNTYgQzk2Ny41LDExMzAuMDE1NiA5NjcuNzY1NiwxMTI5Ljg3NSA5NjcuOTM3NSwxMTI5LjY1NjMgQzk2OC4wNDY5LDExMjkuNSA5NjguMDc4MSwxMTI5LjMxMjUgOTY4LjA3ODEsMTEyOC44OTA2IEw5NjguMDc4MSwxMTI3LjQ2ODggQzk2OC4wNzgxLDExMjcuMDMxMyA5NjguMDYyNSwxMTI2LjkwNjMgOTY3Ljk2ODgsMTEyNi43NSBDOTY3LjgxMjUsMTEyNi40ODQ0IDk2Ny41MzEzLDExMjYuMzQzOCA5NjcuMjM0NCwxMTI2LjM0MzggQzk2Ni45Mzc1LDExMjYuMzQzOCA5NjYuNzM0NCwxMTI2LjQzNzUgOTY2LjUxNTYsMTEyNi43NSBMOTY2LjM0MzgsMTEyNi42NzE5IFoiLz48dGV4dCB5PSIxMTM1Ljg0NjciIHg9Ijk3OCIgdGV4dExlbmd0aD0iOTQiIGxlbmd0aEFkanVzdD0ic3BhY2luZyIgZm9udC1zaXplPSIxNCIgZm9udC1mYW1pbHk9InNhbnMtc2VyaWYiIGZpbGw9IiMwMDAwMDAiPlNvY2tldENsaWVudDwvdGV4dD48bGluZSB5Mj0iMTE0NyIgeTE9IjExNDciIHgyPSIxMDc0IiB4MT0iOTUwIiBzdHlsZT0ic3Ryb2tlOiNBODAwMzY7c3Ryb2tlLXdpZHRoOjEuMDsiLz48bGluZSB5Mj0iMTE1NSIgeTE9IjExNTUiIHgyPSIxMDc0IiB4MT0iOTUwIiBzdHlsZT0ic3Ryb2tlOiNBODAwMzY7c3Ryb2tlLXdpZHRoOjEuMDsiLz48L2c+PGcgaWQ9ImVsZW1fR1VJIj48cmVjdCB5PSIxMTE1IiB4PSI4NTgiIHdpZHRoPSI1NiIgc3R5bGU9InN0cm9rZTojQTgwMDM2O3N0cm9rZS13aWR0aDoxLjA7IiBpZD0iR1VJIiBoZWlnaHQ9IjQ4IiBmaWx0ZXI9InVybCgjZnN6ejdvcWk5dGhkMykiIGZpbGw9IiNGRUZFQ0UiLz48ZWxsaXBzZSBzdHlsZT0ic3Ryb2tlOiNBODAwMzY7c3Ryb2tlLXdpZHRoOjEuMDsiIHJ5PSIxMSIgcng9IjExIiBmaWxsPSIjQUREMUIyIiBjeT0iMTEzMSIgY3g9Ijg3MyIvPjxwYXRoIGZpbGw9IiMwMDAwMDAiIGQ9Ik04NzUuMzQzOCwxMTI2LjY3MTkgQzg3NC40MDYzLDExMjYuMjM0NCA4NzMuODEyNSwxMTI2LjA5MzggODcyLjkzNzUsMTEyNi4wOTM4IEM4NzAuMzEyNSwxMTI2LjA5MzggODY4LjMxMjUsMTEyOC4xNzE5IDg2OC4zMTI1LDExMzAuODkwNiBMODY4LjMxMjUsMTEzMi4wMTU2IEM4NjguMzEyNSwxMTM0LjU5MzggODcwLjQyMTksMTEzNi40ODQ0IDg3My4zMTI1LDExMzYuNDg0NCBDODc0LjUzMTMsMTEzNi40ODQ0IDg3NS42ODc1LDExMzYuMTg3NSA4NzYuNDM3NSwxMTM1LjY0MDYgQzg3Ny4wMTU2LDExMzUuMjM0NCA4NzcuMzQzOCwxMTM0Ljc4MTMgODc3LjM0MzgsMTEzNC4zOTA2IEM4NzcuMzQzOCwxMTMzLjkzNzUgODc2Ljk1MzEsMTEzMy41NDY5IDg3Ni40ODQ0LDExMzMuNTQ2OSBDODc2LjI2NTYsMTEzMy41NDY5IDg3Ni4wNjI1LDExMzMuNjI1IDg3NS44NzUsMTEzMy44MTI1IEM4NzUuNDIxOSwxMTM0LjI5NjkgODc1LjQyMTksMTEzNC4yOTY5IDg3NS4yMzQ0LDExMzQuMzkwNiBDODc0LjgxMjUsMTEzNC42NTYzIDg3NC4xMjUsMTEzNC43ODEzIDg3My4zNTk0LDExMzQuNzgxMyBDODcxLjMxMjUsMTEzNC43ODEzIDg3MC4wMTU2LDExMzMuNjg3NSA4NzAuMDE1NiwxMTMxLjk4NDQgTDg3MC4wMTU2LDExMzAuODkwNiBDODcwLjAxNTYsMTEyOS4xMDk0IDg3MS4yNjU2LDExMjcuNzk2OSA4NzMsMTEyNy43OTY5IEM4NzMuNTc4MSwxMTI3Ljc5NjkgODc0LjE4NzUsMTEyNy45NTMxIDg3NC42NTYzLDExMjguMjAzMSBDODc1LjE0MDYsMTEyOC40ODQ0IDg3NS4zMTI1LDExMjguNzAzMSA4NzUuNDA2MywxMTI5LjEwOTQgQzg3NS40Njg4LDExMjkuNTE1NiA4NzUuNSwxMTI5LjY0MDYgODc1LjY0MDYsMTEyOS43NjU2IEM4NzUuNzgxMywxMTI5LjkwNjMgODc2LjAxNTYsMTEzMC4wMTU2IDg3Ni4yMzQ0LDExMzAuMDE1NiBDODc2LjUsMTEzMC4wMTU2IDg3Ni43NjU2LDExMjkuODc1IDg3Ni45Mzc1LDExMjkuNjU2MyBDODc3LjA0NjksMTEyOS41IDg3Ny4wNzgxLDExMjkuMzEyNSA4NzcuMDc4MSwxMTI4Ljg5MDYgTDg3Ny4wNzgxLDExMjcuNDY4OCBDODc3LjA3ODEsMTEyNy4wMzEzIDg3Ny4wNjI1LDExMjYuOTA2MyA4NzYuOTY4OCwxMTI2Ljc1IEM4NzYuODEyNSwxMTI2LjQ4NDQgODc2LjUzMTMsMTEyNi4zNDM4IDg3Ni4yMzQ0LDExMjYuMzQzOCBDODc1LjkzNzUsMTEyNi4zNDM4IDg3NS43MzQ0LDExMjYuNDM3NSA4NzUuNTE1NiwxMTI2Ljc1IEw4NzUuMzQzOCwxMTI2LjY3MTkgWiIvPjx0ZXh0IHk9IjExMzUuODQ2NyIgeD0iODg3IiB0ZXh0TGVuZ3RoPSIyNCIgbGVuZ3RoQWRqdXN0PSJzcGFjaW5nIiBmb250LXNpemU9IjE0IiBmb250LWZhbWlseT0ic2Fucy1zZXJpZiIgZmlsbD0iIzAwMDAwMCI+R1VJPC90ZXh0PjxsaW5lIHkyPSIxMTQ3IiB5MT0iMTE0NyIgeDI9IjkxMyIgeDE9Ijg1OSIgc3R5bGU9InN0cm9rZTojQTgwMDM2O3N0cm9rZS13aWR0aDoxLjA7Ii8+PGxpbmUgeTI9IjExNTUiIHkxPSIxMTU1IiB4Mj0iOTEzIiB4MT0iODU5IiBzdHlsZT0ic3Ryb2tlOiNBODAwMzY7c3Ryb2tlLXdpZHRoOjEuMDsiLz48L2c+PGcgaWQ9ImVsZW1fUk1JQ2xpZW50Ij48cmVjdCB5PSIxMjcyIiB4PSI2ODguNSIgd2lkdGg9IjEwMSIgc3R5bGU9InN0cm9rZTojQTgwMDM2O3N0cm9rZS13aWR0aDoxLjA7IiBpZD0iUk1JQ2xpZW50IiBoZWlnaHQ9IjQ4IiBmaWx0ZXI9InVybCgjZnN6ejdvcWk5dGhkMykiIGZpbGw9IiNGRUZFQ0UiLz48ZWxsaXBzZSBzdHlsZT0ic3Ryb2tlOiNBODAwMzY7c3Ryb2tlLXdpZHRoOjEuMDsiIHJ5PSIxMSIgcng9IjExIiBmaWxsPSIjQUREMUIyIiBjeT0iMTI4OCIgY3g9IjcwMy41Ii8+PHBhdGggZmlsbD0iIzAwMDAwMCIgZD0iTTcwNS44NDM4LDEyODMuNjcxOSBDNzA0LjkwNjMsMTI4My4yMzQ0IDcwNC4zMTI1LDEyODMuMDkzOCA3MDMuNDM3NSwxMjgzLjA5MzggQzcwMC44MTI1LDEyODMuMDkzOCA2OTguODEyNSwxMjg1LjE3MTkgNjk4LjgxMjUsMTI4Ny44OTA2IEw2OTguODEyNSwxMjg5LjAxNTYgQzY5OC44MTI1LDEyOTEuNTkzOCA3MDAuOTIxOSwxMjkzLjQ4NDQgNzAzLjgxMjUsMTI5My40ODQ0IEM3MDUuMDMxMywxMjkzLjQ4NDQgNzA2LjE4NzUsMTI5My4xODc1IDcwNi45Mzc1LDEyOTIuNjQwNiBDNzA3LjUxNTYsMTI5Mi4yMzQ0IDcwNy44NDM4LDEyOTEuNzgxMyA3MDcuODQzOCwxMjkxLjM5MDYgQzcwNy44NDM4LDEyOTAuOTM3NSA3MDcuNDUzMSwxMjkwLjU0NjkgNzA2Ljk4NDQsMTI5MC41NDY5IEM3MDYuNzY1NiwxMjkwLjU0NjkgNzA2LjU2MjUsMTI5MC42MjUgNzA2LjM3NSwxMjkwLjgxMjUgQzcwNS45MjE5LDEyOTEuMjk2OSA3MDUuOTIxOSwxMjkxLjI5NjkgNzA1LjczNDQsMTI5MS4zOTA2IEM3MDUuMzEyNSwxMjkxLjY1NjMgNzA0LjYyNSwxMjkxLjc4MTMgNzAzLjg1OTQsMTI5MS43ODEzIEM3MDEuODEyNSwxMjkxLjc4MTMgNzAwLjUxNTYsMTI5MC42ODc1IDcwMC41MTU2LDEyODguOTg0NCBMNzAwLjUxNTYsMTI4Ny44OTA2IEM3MDAuNTE1NiwxMjg2LjEwOTQgNzAxLjc2NTYsMTI4NC43OTY5IDcwMy41LDEyODQuNzk2OSBDNzA0LjA3ODEsMTI4NC43OTY5IDcwNC42ODc1LDEyODQuOTUzMSA3MDUuMTU2MywxMjg1LjIwMzEgQzcwNS42NDA2LDEyODUuNDg0NCA3MDUuODEyNSwxMjg1LjcwMzEgNzA1LjkwNjMsMTI4Ni4xMDk0IEM3MDUuOTY4OCwxMjg2LjUxNTYgNzA2LDEyODYuNjQwNiA3MDYuMTQwNiwxMjg2Ljc2NTYgQzcwNi4yODEzLDEyODYuOTA2MyA3MDYuNTE1NiwxMjg3LjAxNTYgNzA2LjczNDQsMTI4Ny4wMTU2IEM3MDcsMTI4Ny4wMTU2IDcwNy4yNjU2LDEyODYuODc1IDcwNy40Mzc1LDEyODYuNjU2MyBDNzA3LjU0NjksMTI4Ni41IDcwNy41NzgxLDEyODYuMzEyNSA3MDcuNTc4MSwxMjg1Ljg5MDYgTDcwNy41NzgxLDEyODQuNDY4OCBDNzA3LjU3ODEsMTI4NC4wMzEzIDcwNy41NjI1LDEyODMuOTA2MyA3MDcuNDY4OCwxMjgzLjc1IEM3MDcuMzEyNSwxMjgzLjQ4NDQgNzA3LjAzMTMsMTI4My4zNDM4IDcwNi43MzQ0LDEyODMuMzQzOCBDNzA2LjQzNzUsMTI4My4zNDM4IDcwNi4yMzQ0LDEyODMuNDM3NSA3MDYuMDE1NiwxMjgzLjc1IEw3MDUuODQzOCwxMjgzLjY3MTkgWiIvPjx0ZXh0IHk9IjEyOTIuODQ2NyIgeD0iNzE3LjUiIHRleHRMZW5ndGg9IjY5IiBsZW5ndGhBZGp1c3Q9InNwYWNpbmciIGZvbnQtc2l6ZT0iMTQiIGZvbnQtZmFtaWx5PSJzYW5zLXNlcmlmIiBmaWxsPSIjMDAwMDAwIj5STUlDbGllbnQ8L3RleHQ+PGxpbmUgeTI9IjEzMDQiIHkxPSIxMzA0IiB4Mj0iNzg4LjUiIHgxPSI2ODkuNSIgc3R5bGU9InN0cm9rZTojQTgwMDM2O3N0cm9rZS13aWR0aDoxLjA7Ii8+PGxpbmUgeTI9IjEzMTIiIHkxPSIxMzEyIiB4Mj0iNzg4LjUiIHgxPSI2ODkuNSIgc3R5bGU9InN0cm9rZTojQTgwMDM2O3N0cm9rZS13aWR0aDoxLjA7Ii8+PC9nPjxnIGlkPSJlbGVtX1JNSUNsaWVudEludGVyZmFjZSI+PHJlY3QgeT0iMTExNSIgeD0iNjU1LjUiIHdpZHRoPSIxNjciIHN0eWxlPSJzdHJva2U6I0E4MDAzNjtzdHJva2Utd2lkdGg6MS4wOyIgaWQ9IlJNSUNsaWVudEludGVyZmFjZSIgaGVpZ2h0PSI0OCIgZmlsdGVyPSJ1cmwoI2Zzeno3b3FpOXRoZDMpIiBmaWxsPSIjRkVGRUNFIi8+PGVsbGlwc2Ugc3R5bGU9InN0cm9rZTojQTgwMDM2O3N0cm9rZS13aWR0aDoxLjA7IiByeT0iMTEiIHJ4PSIxMSIgZmlsbD0iI0FERDFCMiIgY3k9IjExMzEiIGN4PSI2NzAuNSIvPjxwYXRoIGZpbGw9IiMwMDAwMDAiIGQ9Ik02NzIuODQzOCwxMTI2LjY3MTkgQzY3MS45MDYzLDExMjYuMjM0NCA2NzEuMzEyNSwxMTI2LjA5MzggNjcwLjQzNzUsMTEyNi4wOTM4IEM2NjcuODEyNSwxMTI2LjA5MzggNjY1LjgxMjUsMTEyOC4xNzE5IDY2NS44MTI1LDExMzAuODkwNiBMNjY1LjgxMjUsMTEzMi4wMTU2IEM2NjUuODEyNSwxMTM0LjU5MzggNjY3LjkyMTksMTEzNi40ODQ0IDY3MC44MTI1LDExMzYuNDg0NCBDNjcyLjAzMTMsMTEzNi40ODQ0IDY3My4xODc1LDExMzYuMTg3NSA2NzMuOTM3NSwxMTM1LjY0MDYgQzY3NC41MTU2LDExMzUuMjM0NCA2NzQuODQzOCwxMTM0Ljc4MTMgNjc0Ljg0MzgsMTEzNC4zOTA2IEM2NzQuODQzOCwxMTMzLjkzNzUgNjc0LjQ1MzEsMTEzMy41NDY5IDY3My45ODQ0LDExMzMuNTQ2OSBDNjczLjc2NTYsMTEzMy41NDY5IDY3My41NjI1LDExMzMuNjI1IDY3My4zNzUsMTEzMy44MTI1IEM2NzIuOTIxOSwxMTM0LjI5NjkgNjcyLjkyMTksMTEzNC4yOTY5IDY3Mi43MzQ0LDExMzQuMzkwNiBDNjcyLjMxMjUsMTEzNC42NTYzIDY3MS42MjUsMTEzNC43ODEzIDY3MC44NTk0LDExMzQuNzgxMyBDNjY4LjgxMjUsMTEzNC43ODEzIDY2Ny41MTU2LDExMzMuNjg3NSA2NjcuNTE1NiwxMTMxLjk4NDQgTDY2Ny41MTU2LDExMzAuODkwNiBDNjY3LjUxNTYsMTEyOS4xMDk0IDY2OC43NjU2LDExMjcuNzk2OSA2NzAuNSwxMTI3Ljc5NjkgQzY3MS4wNzgxLDExMjcuNzk2OSA2NzEuNjg3NSwxMTI3Ljk1MzEgNjcyLjE1NjMsMTEyOC4yMDMxIEM2NzIuNjQwNiwxMTI4LjQ4NDQgNjcyLjgxMjUsMTEyOC43MDMxIDY3Mi45MDYzLDExMjkuMTA5NCBDNjcyLjk2ODgsMTEyOS41MTU2IDY3MywxMTI5LjY0MDYgNjczLjE0MDYsMTEyOS43NjU2IEM2NzMuMjgxMywxMTI5LjkwNjMgNjczLjUxNTYsMTEzMC4wMTU2IDY3My43MzQ0LDExMzAuMDE1NiBDNjc0LDExMzAuMDE1NiA2NzQuMjY1NiwxMTI5Ljg3NSA2NzQuNDM3NSwxMTI5LjY1NjMgQzY3NC41NDY5LDExMjkuNSA2NzQuNTc4MSwxMTI5LjMxMjUgNjc0LjU3ODEsMTEyOC44OTA2IEw2NzQuNTc4MSwxMTI3LjQ2ODggQzY3NC41NzgxLDExMjcuMDMxMyA2NzQuNTYyNSwxMTI2LjkwNjMgNjc0LjQ2ODgsMTEyNi43NSBDNjc0LjMxMjUsMTEyNi40ODQ0IDY3NC4wMzEzLDExMjYuMzQzOCA2NzMuNzM0NCwxMTI2LjM0MzggQzY3My40Mzc1LDExMjYuMzQzOCA2NzMuMjM0NCwxMTI2LjQzNzUgNjczLjAxNTYsMTEyNi43NSBMNjcyLjg0MzgsMTEyNi42NzE5IFoiLz48dGV4dCB5PSIxMTM1Ljg0NjciIHg9IjY4NC41IiB0ZXh0TGVuZ3RoPSIxMzUiIGxlbmd0aEFkanVzdD0ic3BhY2luZyIgZm9udC1zaXplPSIxNCIgZm9udC1mYW1pbHk9InNhbnMtc2VyaWYiIGZpbGw9IiMwMDAwMDAiPlJNSUNsaWVudEludGVyZmFjZTwvdGV4dD48bGluZSB5Mj0iMTE0NyIgeTE9IjExNDciIHgyPSI4MjEuNSIgeDE9IjY1Ni41IiBzdHlsZT0ic3Ryb2tlOiNBODAwMzY7c3Ryb2tlLXdpZHRoOjEuMDsiLz48bGluZSB5Mj0iMTE1NSIgeTE9IjExNTUiIHgyPSI4MjEuNSIgeDE9IjY1Ni41IiBzdHlsZT0ic3Ryb2tlOiNBODAwMzY7c3Ryb2tlLXdpZHRoOjEuMDsiLz48L2c+PGcgaWQ9ImVsZW1fQ2xpZW50Qm9hcmQiPjxyZWN0IHk9IjExMTUiIHg9IjE4NjIuNSIgd2lkdGg9IjExNyIgc3R5bGU9InN0cm9rZTojQTgwMDM2O3N0cm9rZS13aWR0aDoxLjA7IiBpZD0iQ2xpZW50Qm9hcmQiIGhlaWdodD0iNDgiIGZpbHRlcj0idXJsKCNmc3p6N29xaTl0aGQzKSIgZmlsbD0iI0ZFRkVDRSIvPjxlbGxpcHNlIHN0eWxlPSJzdHJva2U6I0E4MDAzNjtzdHJva2Utd2lkdGg6MS4wOyIgcnk9IjExIiByeD0iMTEiIGZpbGw9IiNBREQxQjIiIGN5PSIxMTMxIiBjeD0iMTg3Ny41Ii8+PHBhdGggZmlsbD0iIzAwMDAwMCIgZD0iTTE4NzkuODQzOCwxMTI2LjY3MTkgQzE4NzguOTA2MywxMTI2LjIzNDQgMTg3OC4zMTI1LDExMjYuMDkzOCAxODc3LjQzNzUsMTEyNi4wOTM4IEMxODc0LjgxMjUsMTEyNi4wOTM4IDE4NzIuODEyNSwxMTI4LjE3MTkgMTg3Mi44MTI1LDExMzAuODkwNiBMMTg3Mi44MTI1LDExMzIuMDE1NiBDMTg3Mi44MTI1LDExMzQuNTkzOCAxODc0LjkyMTksMTEzNi40ODQ0IDE4NzcuODEyNSwxMTM2LjQ4NDQgQzE4NzkuMDMxMywxMTM2LjQ4NDQgMTg4MC4xODc1LDExMzYuMTg3NSAxODgwLjkzNzUsMTEzNS42NDA2IEMxODgxLjUxNTYsMTEzNS4yMzQ0IDE4ODEuODQzOCwxMTM0Ljc4MTMgMTg4MS44NDM4LDExMzQuMzkwNiBDMTg4MS44NDM4LDExMzMuOTM3NSAxODgxLjQ1MzEsMTEzMy41NDY5IDE4ODAuOTg0NCwxMTMzLjU0NjkgQzE4ODAuNzY1NiwxMTMzLjU0NjkgMTg4MC41NjI1LDExMzMuNjI1IDE4ODAuMzc1LDExMzMuODEyNSBDMTg3OS45MjE5LDExMzQuMjk2OSAxODc5LjkyMTksMTEzNC4yOTY5IDE4NzkuNzM0NCwxMTM0LjM5MDYgQzE4NzkuMzEyNSwxMTM0LjY1NjMgMTg3OC42MjUsMTEzNC43ODEzIDE4NzcuODU5NCwxMTM0Ljc4MTMgQzE4NzUuODEyNSwxMTM0Ljc4MTMgMTg3NC41MTU2LDExMzMuNjg3NSAxODc0LjUxNTYsMTEzMS45ODQ0IEwxODc0LjUxNTYsMTEzMC44OTA2IEMxODc0LjUxNTYsMTEyOS4xMDk0IDE4NzUuNzY1NiwxMTI3Ljc5NjkgMTg3Ny41LDExMjcuNzk2OSBDMTg3OC4wNzgxLDExMjcuNzk2OSAxODc4LjY4NzUsMTEyNy45NTMxIDE4NzkuMTU2MywxMTI4LjIwMzEgQzE4NzkuNjQwNiwxMTI4LjQ4NDQgMTg3OS44MTI1LDExMjguNzAzMSAxODc5LjkwNjMsMTEyOS4xMDk0IEMxODc5Ljk2ODgsMTEyOS41MTU2IDE4ODAsMTEyOS42NDA2IDE4ODAuMTQwNiwxMTI5Ljc2NTYgQzE4ODAuMjgxMywxMTI5LjkwNjMgMTg4MC41MTU2LDExMzAuMDE1NiAxODgwLjczNDQsMTEzMC4wMTU2IEMxODgxLDExMzAuMDE1NiAxODgxLjI2NTYsMTEyOS44NzUgMTg4MS40Mzc1LDExMjkuNjU2MyBDMTg4MS41NDY5LDExMjkuNSAxODgxLjU3ODEsMTEyOS4zMTI1IDE4ODEuNTc4MSwxMTI4Ljg5MDYgTDE4ODEuNTc4MSwxMTI3LjQ2ODggQzE4ODEuNTc4MSwxMTI3LjAzMTMgMTg4MS41NjI1LDExMjYuOTA2MyAxODgxLjQ2ODgsMTEyNi43NSBDMTg4MS4zMTI1LDExMjYuNDg0NCAxODgxLjAzMTMsMTEyNi4zNDM4IDE4ODAuNzM0NCwxMTI2LjM0MzggQzE4ODAuNDM3NSwxMTI2LjM0MzggMTg4MC4yMzQ0LDExMjYuNDM3NSAxODgwLjAxNTYsMTEyNi43NSBMMTg3OS44NDM4LDExMjYuNjcxOSBaIi8+PHRleHQgeT0iMTEzNS44NDY3IiB4PSIxODkxLjUiIHRleHRMZW5ndGg9Ijg1IiBsZW5ndGhBZGp1c3Q9InNwYWNpbmciIGZvbnQtc2l6ZT0iMTQiIGZvbnQtZmFtaWx5PSJzYW5zLXNlcmlmIiBmaWxsPSIjMDAwMDAwIj5DbGllbnRCb2FyZDwvdGV4dD48bGluZSB5Mj0iMTE0NyIgeTE9IjExNDciIHgyPSIxOTc4LjUiIHgxPSIxODYzLjUiIHN0eWxlPSJzdHJva2U6I0E4MDAzNjtzdHJva2Utd2lkdGg6MS4wOyIvPjxsaW5lIHkyPSIxMTU1IiB5MT0iMTE1NSIgeDI9IjE5NzguNSIgeDE9IjE4NjMuNSIgc3R5bGU9InN0cm9rZTojQTgwMDM2O3N0cm9rZS13aWR0aDoxLjA7Ii8+PC9nPjxnIGlkPSJlbGVtX0NsaWVudENvbW1vbkdvYWxDYXJkIj48cmVjdCB5PSIxMTE1IiB4PSIxNjIyLjUiIHdpZHRoPSIyMDUiIHN0eWxlPSJzdHJva2U6I0E4MDAzNjtzdHJva2Utd2lkdGg6MS4wOyIgaWQ9IkNsaWVudENvbW1vbkdvYWxDYXJkIiBoZWlnaHQ9IjQ4IiBmaWx0ZXI9InVybCgjZnN6ejdvcWk5dGhkMykiIGZpbGw9IiNGRUZFQ0UiLz48ZWxsaXBzZSBzdHlsZT0ic3Ryb2tlOiNBODAwMzY7c3Ryb2tlLXdpZHRoOjEuMDsiIHJ5PSIxMSIgcng9IjExIiBmaWxsPSIjQUREMUIyIiBjeT0iMTEzMSIgY3g9IjE2MzcuNSIvPjxwYXRoIGZpbGw9IiMwMDAwMDAiIGQ9Ik0xNjM5Ljg0MzgsMTEyNi42NzE5IEMxNjM4LjkwNjMsMTEyNi4yMzQ0IDE2MzguMzEyNSwxMTI2LjA5MzggMTYzNy40Mzc1LDExMjYuMDkzOCBDMTYzNC44MTI1LDExMjYuMDkzOCAxNjMyLjgxMjUsMTEyOC4xNzE5IDE2MzIuODEyNSwxMTMwLjg5MDYgTDE2MzIuODEyNSwxMTMyLjAxNTYgQzE2MzIuODEyNSwxMTM0LjU5MzggMTYzNC45MjE5LDExMzYuNDg0NCAxNjM3LjgxMjUsMTEzNi40ODQ0IEMxNjM5LjAzMTMsMTEzNi40ODQ0IDE2NDAuMTg3NSwxMTM2LjE4NzUgMTY0MC45Mzc1LDExMzUuNjQwNiBDMTY0MS41MTU2LDExMzUuMjM0NCAxNjQxLjg0MzgsMTEzNC43ODEzIDE2NDEuODQzOCwxMTM0LjM5MDYgQzE2NDEuODQzOCwxMTMzLjkzNzUgMTY0MS40NTMxLDExMzMuNTQ2OSAxNjQwLjk4NDQsMTEzMy41NDY5IEMxNjQwLjc2NTYsMTEzMy41NDY5IDE2NDAuNTYyNSwxMTMzLjYyNSAxNjQwLjM3NSwxMTMzLjgxMjUgQzE2MzkuOTIxOSwxMTM0LjI5NjkgMTYzOS45MjE5LDExMzQuMjk2OSAxNjM5LjczNDQsMTEzNC4zOTA2IEMxNjM5LjMxMjUsMTEzNC42NTYzIDE2MzguNjI1LDExMzQuNzgxMyAxNjM3Ljg1OTQsMTEzNC43ODEzIEMxNjM1LjgxMjUsMTEzNC43ODEzIDE2MzQuNTE1NiwxMTMzLjY4NzUgMTYzNC41MTU2LDExMzEuOTg0NCBMMTYzNC41MTU2LDExMzAuODkwNiBDMTYzNC41MTU2LDExMjkuMTA5NCAxNjM1Ljc2NTYsMTEyNy43OTY5IDE2MzcuNSwxMTI3Ljc5NjkgQzE2MzguMDc4MSwxMTI3Ljc5NjkgMTYzOC42ODc1LDExMjcuOTUzMSAxNjM5LjE1NjMsMTEyOC4yMDMxIEMxNjM5LjY0MDYsMTEyOC40ODQ0IDE2MzkuODEyNSwxMTI4LjcwMzEgMTYzOS45MDYzLDExMjkuMTA5NCBDMTYzOS45Njg4LDExMjkuNTE1NiAxNjQwLDExMjkuNjQwNiAxNjQwLjE0MDYsMTEyOS43NjU2IEMxNjQwLjI4MTMsMTEyOS45MDYzIDE2NDAuNTE1NiwxMTMwLjAxNTYgMTY0MC43MzQ0LDExMzAuMDE1NiBDMTY0MSwxMTMwLjAxNTYgMTY0MS4yNjU2LDExMjkuODc1IDE2NDEuNDM3NSwxMTI5LjY1NjMgQzE2NDEuNTQ2OSwxMTI5LjUgMTY0MS41NzgxLDExMjkuMzEyNSAxNjQxLjU3ODEsMTEyOC44OTA2IEwxNjQxLjU3ODEsMTEyNy40Njg4IEMxNjQxLjU3ODEsMTEyNy4wMzEzIDE2NDEuNTYyNSwxMTI2LjkwNjMgMTY0MS40Njg4LDExMjYuNzUgQzE2NDEuMzEyNSwxMTI2LjQ4NDQgMTY0MS4wMzEzLDExMjYuMzQzOCAxNjQwLjczNDQsMTEyNi4zNDM4IEMxNjQwLjQzNzUsMTEyNi4zNDM4IDE2NDAuMjM0NCwxMTI2LjQzNzUgMTY0MC4wMTU2LDExMjYuNzUgTDE2MzkuODQzOCwxMTI2LjY3MTkgWiIvPjx0ZXh0IHk9IjExMzUuODQ2NyIgeD0iMTY1MS41IiB0ZXh0TGVuZ3RoPSIxNzMiIGxlbmd0aEFkanVzdD0ic3BhY2luZyIgZm9udC1zaXplPSIxNCIgZm9udC1mYW1pbHk9InNhbnMtc2VyaWYiIGZpbGw9IiMwMDAwMDAiPkNsaWVudENvbW1vbkdvYWxDYXJkPC90ZXh0PjxsaW5lIHkyPSIxMTQ3IiB5MT0iMTE0NyIgeDI9IjE4MjYuNSIgeDE9IjE2MjMuNSIgc3R5bGU9InN0cm9rZTojQTgwMDM2O3N0cm9rZS13aWR0aDoxLjA7Ii8+PGxpbmUgeTI9IjExNTUiIHkxPSIxMTU1IiB4Mj0iMTgyNi41IiB4MT0iMTYyMy41IiBzdHlsZT0ic3Ryb2tlOiNBODAwMzY7c3Ryb2tlLXdpZHRoOjEuMDsiLz48L2c+PGcgaWQ9ImVsZW1fQ2xpZW50U3RhdHVzIj48cmVjdCB5PSIxMjcyIiB4PSIzMDYwLjUiIHdpZHRoPSIxMjEiIHN0eWxlPSJzdHJva2U6I0E4MDAzNjtzdHJva2Utd2lkdGg6MS4wOyIgaWQ9IkNsaWVudFN0YXR1cyIgaGVpZ2h0PSI0OCIgZmlsdGVyPSJ1cmwoI2Zzeno3b3FpOXRoZDMpIiBmaWxsPSIjRkVGRUNFIi8+PGVsbGlwc2Ugc3R5bGU9InN0cm9rZTojQTgwMDM2O3N0cm9rZS13aWR0aDoxLjA7IiByeT0iMTEiIHJ4PSIxMSIgZmlsbD0iI0FERDFCMiIgY3k9IjEyODgiIGN4PSIzMDc1LjUiLz48cGF0aCBmaWxsPSIjMDAwMDAwIiBkPSJNMzA3Ny44NDM4LDEyODMuNjcxOSBDMzA3Ni45MDYzLDEyODMuMjM0NCAzMDc2LjMxMjUsMTI4My4wOTM4IDMwNzUuNDM3NSwxMjgzLjA5MzggQzMwNzIuODEyNSwxMjgzLjA5MzggMzA3MC44MTI1LDEyODUuMTcxOSAzMDcwLjgxMjUsMTI4Ny44OTA2IEwzMDcwLjgxMjUsMTI4OS4wMTU2IEMzMDcwLjgxMjUsMTI5MS41OTM4IDMwNzIuOTIxOSwxMjkzLjQ4NDQgMzA3NS44MTI1LDEyOTMuNDg0NCBDMzA3Ny4wMzEzLDEyOTMuNDg0NCAzMDc4LjE4NzUsMTI5My4xODc1IDMwNzguOTM3NSwxMjkyLjY0MDYgQzMwNzkuNTE1NiwxMjkyLjIzNDQgMzA3OS44NDM4LDEyOTEuNzgxMyAzMDc5Ljg0MzgsMTI5MS4zOTA2IEMzMDc5Ljg0MzgsMTI5MC45Mzc1IDMwNzkuNDUzMSwxMjkwLjU0NjkgMzA3OC45ODQ0LDEyOTAuNTQ2OSBDMzA3OC43NjU2LDEyOTAuNTQ2OSAzMDc4LjU2MjUsMTI5MC42MjUgMzA3OC4zNzUsMTI5MC44MTI1IEMzMDc3LjkyMTksMTI5MS4yOTY5IDMwNzcuOTIxOSwxMjkxLjI5NjkgMzA3Ny43MzQ0LDEyOTEuMzkwNiBDMzA3Ny4zMTI1LDEyOTEuNjU2MyAzMDc2LjYyNSwxMjkxLjc4MTMgMzA3NS44NTk0LDEyOTEuNzgxMyBDMzA3My44MTI1LDEyOTEuNzgxMyAzMDcyLjUxNTYsMTI5MC42ODc1IDMwNzIuNTE1NiwxMjg4Ljk4NDQgTDMwNzIuNTE1NiwxMjg3Ljg5MDYgQzMwNzIuNTE1NiwxMjg2LjEwOTQgMzA3My43NjU2LDEyODQuNzk2OSAzMDc1LjUsMTI4NC43OTY5IEMzMDc2LjA3ODEsMTI4NC43OTY5IDMwNzYuNjg3NSwxMjg0Ljk1MzEgMzA3Ny4xNTYzLDEyODUuMjAzMSBDMzA3Ny42NDA2LDEyODUuNDg0NCAzMDc3LjgxMjUsMTI4NS43MDMxIDMwNzcuOTA2MywxMjg2LjEwOTQgQzMwNzcuOTY4OCwxMjg2LjUxNTYgMzA3OCwxMjg2LjY0MDYgMzA3OC4xNDA2LDEyODYuNzY1NiBDMzA3OC4yODEzLDEyODYuOTA2MyAzMDc4LjUxNTYsMTI4Ny4wMTU2IDMwNzguNzM0NCwxMjg3LjAxNTYgQzMwNzksMTI4Ny4wMTU2IDMwNzkuMjY1NiwxMjg2Ljg3NSAzMDc5LjQzNzUsMTI4Ni42NTYzIEMzMDc5LjU0NjksMTI4Ni41IDMwNzkuNTc4MSwxMjg2LjMxMjUgMzA3OS41NzgxLDEyODUuODkwNiBMMzA3OS41NzgxLDEyODQuNDY4OCBDMzA3OS41NzgxLDEyODQuMDMxMyAzMDc5LjU2MjUsMTI4My45MDYzIDMwNzkuNDY4OCwxMjgzLjc1IEMzMDc5LjMxMjUsMTI4My40ODQ0IDMwNzkuMDMxMywxMjgzLjM0MzggMzA3OC43MzQ0LDEyODMuMzQzOCBDMzA3OC40Mzc1LDEyODMuMzQzOCAzMDc4LjIzNDQsMTI4My40Mzc1IDMwNzguMDE1NiwxMjgzLjc1IEwzMDc3Ljg0MzgsMTI4My42NzE5IFoiLz48dGV4dCB5PSIxMjkyLjg0NjciIHg9IjMwODkuNSIgdGV4dExlbmd0aD0iODkiIGxlbmd0aEFkanVzdD0ic3BhY2luZyIgZm9udC1zaXplPSIxNCIgZm9udC1mYW1pbHk9InNhbnMtc2VyaWYiIGZpbGw9IiMwMDAwMDAiPkNsaWVudFN0YXR1czwvdGV4dD48bGluZSB5Mj0iMTMwNCIgeTE9IjEzMDQiIHgyPSIzMTgwLjUiIHgxPSIzMDYxLjUiIHN0eWxlPSJzdHJva2U6I0E4MDAzNjtzdHJva2Utd2lkdGg6MS4wOyIvPjxsaW5lIHkyPSIxMzEyIiB5MT0iMTMxMiIgeDI9IjMxODAuNSIgeDE9IjMwNjEuNSIgc3R5bGU9InN0cm9rZTojQTgwMDM2O3N0cm9rZS13aWR0aDoxLjA7Ii8+PC9nPjxnIGlkPSJlbGVtX0NsaWVudE1vdmUiPjxyZWN0IHk9IjExMTUiIHg9IjEyOTAuNSIgd2lkdGg9IjExMyIgc3R5bGU9InN0cm9rZTojQTgwMDM2O3N0cm9rZS13aWR0aDoxLjA7IiBpZD0iQ2xpZW50TW92ZSIgaGVpZ2h0PSI0OCIgZmlsdGVyPSJ1cmwoI2Zzeno3b3FpOXRoZDMpIiBmaWxsPSIjRkVGRUNFIi8+PGVsbGlwc2Ugc3R5bGU9InN0cm9rZTojQTgwMDM2O3N0cm9rZS13aWR0aDoxLjA7IiByeT0iMTEiIHJ4PSIxMSIgZmlsbD0iI0FERDFCMiIgY3k9IjExMzEiIGN4PSIxMzA1LjUiLz48cGF0aCBmaWxsPSIjMDAwMDAwIiBkPSJNMTMwNy44NDM4LDExMjYuNjcxOSBDMTMwNi45MDYzLDExMjYuMjM0NCAxMzA2LjMxMjUsMTEyNi4wOTM4IDEzMDUuNDM3NSwxMTI2LjA5MzggQzEzMDIuODEyNSwxMTI2LjA5MzggMTMwMC44MTI1LDExMjguMTcxOSAxMzAwLjgxMjUsMTEzMC44OTA2IEwxMzAwLjgxMjUsMTEzMi4wMTU2IEMxMzAwLjgxMjUsMTEzNC41OTM4IDEzMDIuOTIxOSwxMTM2LjQ4NDQgMTMwNS44MTI1LDExMzYuNDg0NCBDMTMwNy4wMzEzLDExMzYuNDg0NCAxMzA4LjE4NzUsMTEzNi4xODc1IDEzMDguOTM3NSwxMTM1LjY0MDYgQzEzMDkuNTE1NiwxMTM1LjIzNDQgMTMwOS44NDM4LDExMzQuNzgxMyAxMzA5Ljg0MzgsMTEzNC4zOTA2IEMxMzA5Ljg0MzgsMTEzMy45Mzc1IDEzMDkuNDUzMSwxMTMzLjU0NjkgMTMwOC45ODQ0LDExMzMuNTQ2OSBDMTMwOC43NjU2LDExMzMuNTQ2OSAxMzA4LjU2MjUsMTEzMy42MjUgMTMwOC4zNzUsMTEzMy44MTI1IEMxMzA3LjkyMTksMTEzNC4yOTY5IDEzMDcuOTIxOSwxMTM0LjI5NjkgMTMwNy43MzQ0LDExMzQuMzkwNiBDMTMwNy4zMTI1LDExMzQuNjU2MyAxMzA2LjYyNSwxMTM0Ljc4MTMgMTMwNS44NTk0LDExMzQuNzgxMyBDMTMwMy44MTI1LDExMzQuNzgxMyAxMzAyLjUxNTYsMTEzMy42ODc1IDEzMDIuNTE1NiwxMTMxLjk4NDQgTDEzMDIuNTE1NiwxMTMwLjg5MDYgQzEzMDIuNTE1NiwxMTI5LjEwOTQgMTMwMy43NjU2LDExMjcuNzk2OSAxMzA1LjUsMTEyNy43OTY5IEMxMzA2LjA3ODEsMTEyNy43OTY5IDEzMDYuNjg3NSwxMTI3Ljk1MzEgMTMwNy4xNTYzLDExMjguMjAzMSBDMTMwNy42NDA2LDExMjguNDg0NCAxMzA3LjgxMjUsMTEyOC43MDMxIDEzMDcuOTA2MywxMTI5LjEwOTQgQzEzMDcuOTY4OCwxMTI5LjUxNTYgMTMwOCwxMTI5LjY0MDYgMTMwOC4xNDA2LDExMjkuNzY1NiBDMTMwOC4yODEzLDExMjkuOTA2MyAxMzA4LjUxNTYsMTEzMC4wMTU2IDEzMDguNzM0NCwxMTMwLjAxNTYgQzEzMDksMTEzMC4wMTU2IDEzMDkuMjY1NiwxMTI5Ljg3NSAxMzA5LjQzNzUsMTEyOS42NTYzIEMxMzA5LjU0NjksMTEyOS41IDEzMDkuNTc4MSwxMTI5LjMxMjUgMTMwOS41NzgxLDExMjguODkwNiBMMTMwOS41NzgxLDExMjcuNDY4OCBDMTMwOS41NzgxLDExMjcuMDMxMyAxMzA5LjU2MjUsMTEyNi45MDYzIDEzMDkuNDY4OCwxMTI2Ljc1IEMxMzA5LjMxMjUsMTEyNi40ODQ0IDEzMDkuMDMxMywxMTI2LjM0MzggMTMwOC43MzQ0LDExMjYuMzQzOCBDMTMwOC40Mzc1LDExMjYuMzQzOCAxMzA4LjIzNDQsMTEyNi40Mzc1IDEzMDguMDE1NiwxMTI2Ljc1IEwxMzA3Ljg0MzgsMTEyNi42NzE5IFoiLz48dGV4dCB5PSIxMTM1Ljg0NjciIHg9IjEzMTkuNSIgdGV4dExlbmd0aD0iODEiIGxlbmd0aEFkanVzdD0ic3BhY2luZyIgZm9udC1zaXplPSIxNCIgZm9udC1mYW1pbHk9InNhbnMtc2VyaWYiIGZpbGw9IiMwMDAwMDAiPkNsaWVudE1vdmU8L3RleHQ+PGxpbmUgeTI9IjExNDciIHkxPSIxMTQ3IiB4Mj0iMTQwMi41IiB4MT0iMTI5MS41IiBzdHlsZT0ic3Ryb2tlOiNBODAwMzY7c3Ryb2tlLXdpZHRoOjEuMDsiLz48bGluZSB5Mj0iMTE1NSIgeTE9IjExNTUiIHgyPSIxNDAyLjUiIHgxPSIxMjkxLjUiIHN0eWxlPSJzdHJva2U6I0E4MDAzNjtzdHJva2Utd2lkdGg6MS4wOyIvPjwvZz48ZyBpZD0iZWxlbV9DbGllbnRPYmplY3RDYXJkVHlwZSI+PHJlY3QgeT0iMTA2NiIgeD0iMjc4My41IiB3aWR0aD0iMTkzIiBzdHlsZT0ic3Ryb2tlOiNBODAwMzY7c3Ryb2tlLXdpZHRoOjEuMDsiIGlkPSJDbGllbnRPYmplY3RDYXJkVHlwZSIgaGVpZ2h0PSIxNDUuNzgxMyIgZmlsdGVyPSJ1cmwoI2Zzeno3b3FpOXRoZDMpIiBmaWxsPSIjRkVGRUNFIi8+PGVsbGlwc2Ugc3R5bGU9InN0cm9rZTojQTgwMDM2O3N0cm9rZS13aWR0aDoxLjA7IiByeT0iMTEiIHJ4PSIxMSIgZmlsbD0iI0VCOTM3RiIgY3k9IjEwODIiIGN4PSIyNzk4LjUiLz48cGF0aCBmaWxsPSIjMDAwMDAwIiBkPSJNMjc5Ny4yOTY5LDEwODIuODc1IEwyNzk4Ljc1LDEwODIuODc1IEwyNzk4Ljc1LDEwODIuOTg0NCBDMjc5OC43NSwxMDgzLjM5MDYgMjc5OC43ODEzLDEwODMuNTQ2OSAyNzk4Ljg1OTQsMTA4My43MDMxIEMyNzk5LjAxNTYsMTA4My45NTMxIDI3OTkuMjk2OSwxMDg0LjEwOTQgMjc5OS41OTM4LDEwODQuMTA5NCBDMjc5OS44NDM4LDEwODQuMTA5NCAyODAwLjEwOTQsMTA4My45Njg4IDI4MDAuMjY1NiwxMDgzLjc1IEMyODAwLjM5MDYsMTA4My41OTM4IDI4MDAuNDIxOSwxMDgzLjQzNzUgMjgwMC40MjE5LDEwODIuOTg0NCBMMjgwMC40MjE5LDEwODEuMDYyNSBDMjgwMC40MjE5LDEwODAuOTA2MyAyODAwLjQyMTksMTA4MC44NTk0IDI4MDAuNDA2MywxMDgwLjcwMzEgQzI4MDAuMzQzOCwxMDgwLjIzNDQgMjgwMC4wMzEzLDEwNzkuOTIxOSAyNzk5LjU3ODEsMTA3OS45MjE5IEMyNzk5LjMyODEsMTA3OS45MjE5IDI3OTkuMDYyNSwxMDgwLjA2MjUgMjc5OC44OTA2LDEwODAuMjgxMyBDMjc5OC43ODEzLDEwODAuNDUzMSAyNzk4Ljc1LDEwODAuNjA5NCAyNzk4Ljc1LDEwODEuMDYyNSBMMjc5OC43NSwxMDgxLjE4NzUgTDI3OTcuMjk2OSwxMDgxLjE4NzUgTDI3OTcuMjk2OSwxMDc4Ljc4MTMgTDI4MDEuMjgxMywxMDc4Ljc4MTMgTDI4MDEuMjgxMywxMDc5LjY0MDYgQzI4MDEuMjgxMywxMDgwLjA0NjkgMjgwMS4zMTI1LDEwODAuMjE4OCAyODAxLjM5MDYsMTA4MC4zNzUgQzI4MDEuNTYyNSwxMDgwLjYyNSAyODAxLjg0MzgsMTA4MC43ODEzIDI4MDIuMTI1LDEwODAuNzgxMyBDMjgwMi4zOTA2LDEwODAuNzgxMyAyODAyLjY1NjMsMTA4MC42NDA2IDI4MDIuODI4MSwxMDgwLjQyMTkgQzI4MDIuOTM3NSwxMDgwLjI1IDI4MDIuOTY4OCwxMDgwLjEwOTQgMjgwMi45Njg4LDEwNzkuNjQwNiBMMjgwMi45Njg4LDEwNzcuMDkzOCBMMjc5NS4zNDM4LDEwNzcuMDkzOCBDMjc5NC45MDYzLDEwNzcuMDkzOCAyNzk0Ljc4MTMsMTA3Ny4xMDk0IDI3OTQuNjI1LDEwNzcuMjAzMSBDMjc5NC4zNzUsMTA3Ny4zNTk0IDI3OTQuMjE4OCwxMDc3LjY1NjMgMjc5NC4yMTg4LDEwNzcuOTM3NSBDMjc5NC4yMTg4LDEwNzguMjE4OCAyNzk0LjM1OTQsMTA3OC40Njg4IDI3OTQuNTc4MSwxMDc4LjY0MDYgQzI3OTQuNzM0NCwxMDc4Ljc1IDI3OTQuOTIxOSwxMDc4Ljc4MTMgMjc5NS4zNDM4LDEwNzguNzgxMyBMMjc5NS41OTM4LDEwNzguNzgxMyBMMjc5NS41OTM4LDEwODUuMjk2OSBMMjc5NS4zNDM4LDEwODUuMjk2OSBDMjc5NC45Mzc1LDEwODUuMjk2OSAyNzk0Ljc4MTMsMTA4NS4zMTI1IDI3OTQuNjI1LDEwODUuNDIxOSBDMjc5NC4zNzUsMTA4NS41OTM4IDI3OTQuMjE4OCwxMDg1Ljg1OTQgMjc5NC4yMTg4LDEwODYuMTU2MyBDMjc5NC4yMTg4LDEwODYuNDIxOSAyNzk0LjM1OTQsMTA4Ni42NzE5IDI3OTQuNTc4MSwxMDg2LjgyODEgQzI3OTQuNzE4OCwxMDg2Ljk1MzEgMjc5NC45NTMxLDEwODcgMjc5NS4zNDM4LDEwODcgTDI4MDMuMzQzOCwxMDg3IEwyODAzLjM0MzgsMTA4NC40MjE5IEMyODAzLjM0MzgsMTA4My45ODQ0IDI4MDMuMzEyNSwxMDgzLjg0MzggMjgwMy4yMzQ0LDEwODMuNjg3NSBDMjgwMy4wNjI1LDEwODMuNDM3NSAyODAyLjc4MTMsMTA4My4yODEzIDI4MDIuNSwxMDgzLjI4MTMgQzI4MDIuMjM0NCwxMDgzLjI4MTMgMjgwMS45Njg4LDEwODMuMzkwNiAyODAxLjc5NjksMTA4My42NDA2IEMyODAxLjY4NzUsMTA4My43OTY5IDI4MDEuNjU2MywxMDgzLjkzNzUgMjgwMS42NTYzLDEwODQuNDIxOSBMMjgwMS42NTYzLDEwODUuMjk2OSBMMjc5Ny4yOTY5LDEwODUuMjk2OSBMMjc5Ny4yOTY5LDEwODIuODc1IFoiLz48dGV4dCB5PSIxMDg2Ljg0NjciIHg9IjI4MTIuNSIgdGV4dExlbmd0aD0iMTYxIiBsZW5ndGhBZGp1c3Q9InNwYWNpbmciIGZvbnQtc2l6ZT0iMTQiIGZvbnQtZmFtaWx5PSJzYW5zLXNlcmlmIiBmaWxsPSIjMDAwMDAwIj5DbGllbnRPYmplY3RDYXJkVHlwZTwvdGV4dD48bGluZSB5Mj0iMTA5OCIgeTE9IjEwOTgiIHgyPSIyOTc1LjUiIHgxPSIyNzg0LjUiIHN0eWxlPSJzdHJva2U6I0E4MDAzNjtzdHJva2Utd2lkdGg6MS4wOyIvPjxlbGxpcHNlIHN0eWxlPSJzdHJva2U6IzAzODA0ODtzdHJva2Utd2lkdGg6MS4wOyIgcnk9IjMiIHJ4PSIzIiBmaWxsPSJub25lIiBjeT0iMTExMS42NDg0IiBjeD0iMjc5NC41Ii8+PHRleHQgeT0iMTExNC45OTUxIiB4PSIyODAzLjUiIHRleHRMZW5ndGg9IjM4IiBsZW5ndGhBZGp1c3Q9InNwYWNpbmciIGZvbnQtc2l6ZT0iMTQiIGZvbnQtZmFtaWx5PSJzYW5zLXNlcmlmIiBmaWxsPSIjMDAwMDAwIj5DQVRTPC90ZXh0PjxlbGxpcHNlIHN0eWxlPSJzdHJva2U6IzAzODA0ODtzdHJva2Utd2lkdGg6MS4wOyIgcnk9IjMiIHJ4PSIzIiBmaWxsPSJub25lIiBjeT0iMTEyNy45NDUzIiBjeD0iMjc5NC41Ii8+PHRleHQgeT0iMTEzMS4yOTIiIHg9IjI4MDMuNSIgdGV4dExlbmd0aD0iNTEiIGxlbmd0aEFkanVzdD0ic3BhY2luZyIgZm9udC1zaXplPSIxNCIgZm9udC1mYW1pbHk9InNhbnMtc2VyaWYiIGZpbGw9IiMwMDAwMDAiPkJPT0tTPC90ZXh0PjxlbGxpcHNlIHN0eWxlPSJzdHJva2U6IzAzODA0ODtzdHJva2Utd2lkdGg6MS4wOyIgcnk9IjMiIHJ4PSIzIiBmaWxsPSJub25lIiBjeT0iMTE0NC4yNDIyIiBjeD0iMjc5NC41Ii8+PHRleHQgeT0iMTE0Ny41ODg5IiB4PSIyODAzLjUiIHRleHRMZW5ndGg9IjUxIiBsZW5ndGhBZGp1c3Q9InNwYWNpbmciIGZvbnQtc2l6ZT0iMTQiIGZvbnQtZmFtaWx5PSJzYW5zLXNlcmlmIiBmaWxsPSIjMDAwMDAwIj5HQU1FUzwvdGV4dD48ZWxsaXBzZSBzdHlsZT0ic3Ryb2tlOiMwMzgwNDg7c3Ryb2tlLXdpZHRoOjEuMDsiIHJ5PSIzIiByeD0iMyIgZmlsbD0ibm9uZSIgY3k9IjExNjAuNTM5MSIgY3g9IjI3OTQuNSIvPjx0ZXh0IHk9IjExNjMuODg1NyIgeD0iMjgwMy41IiB0ZXh0TGVuZ3RoPSI1OCIgbGVuZ3RoQWRqdXN0PSJzcGFjaW5nIiBmb250LXNpemU9IjE0IiBmb250LWZhbWlseT0ic2Fucy1zZXJpZiIgZmlsbD0iIzAwMDAwMCI+RlJBTUVTPC90ZXh0PjxlbGxpcHNlIHN0eWxlPSJzdHJva2U6IzAzODA0ODtzdHJva2Utd2lkdGg6MS4wOyIgcnk9IjMiIHJ4PSIzIiBmaWxsPSJub25lIiBjeT0iMTE3Ni44MzU5IiBjeD0iMjc5NC41Ii8+PHRleHQgeT0iMTE4MC4xODI2IiB4PSIyODAzLjUiIHRleHRMZW5ndGg9IjcxIiBsZW5ndGhBZGp1c3Q9InNwYWNpbmciIGZvbnQtc2l6ZT0iMTQiIGZvbnQtZmFtaWx5PSJzYW5zLXNlcmlmIiBmaWxsPSIjMDAwMDAwIj5UUk9QSElFUzwvdGV4dD48ZWxsaXBzZSBzdHlsZT0ic3Ryb2tlOiMwMzgwNDg7c3Ryb2tlLXdpZHRoOjEuMDsiIHJ5PSIzIiByeD0iMyIgZmlsbD0ibm9uZSIgY3k9IjExOTMuMTMyOCIgY3g9IjI3OTQuNSIvPjx0ZXh0IHk9IjExOTYuNDc5NSIgeD0iMjgwMy41IiB0ZXh0TGVuZ3RoPSI1NSIgbGVuZ3RoQWRqdXN0PSJzcGFjaW5nIiBmb250LXNpemU9IjE0IiBmb250LWZhbWlseT0ic2Fucy1zZXJpZiIgZmlsbD0iIzAwMDAwMCI+UExBTlRTPC90ZXh0PjxsaW5lIHkyPSIxMjAzLjc4MTMiIHkxPSIxMjAzLjc4MTMiIHgyPSIyOTc1LjUiIHgxPSIyNzg0LjUiIHN0eWxlPSJzdHJva2U6I0E4MDAzNjtzdHJva2Utd2lkdGg6MS4wOyIvPjwvZz48ZyBpZD0iZWxlbV9DbGllbnRTY29yZUNhcmQiPjxyZWN0IHk9IjExMTUiIHg9IjE0MzguNSIgd2lkdGg9IjE0OSIgc3R5bGU9InN0cm9rZTojQTgwMDM2O3N0cm9rZS13aWR0aDoxLjA7IiBpZD0iQ2xpZW50U2NvcmVDYXJkIiBoZWlnaHQ9IjQ4IiBmaWx0ZXI9InVybCgjZnN6ejdvcWk5dGhkMykiIGZpbGw9IiNGRUZFQ0UiLz48ZWxsaXBzZSBzdHlsZT0ic3Ryb2tlOiNBODAwMzY7c3Ryb2tlLXdpZHRoOjEuMDsiIHJ5PSIxMSIgcng9IjExIiBmaWxsPSIjQUREMUIyIiBjeT0iMTEzMSIgY3g9IjE0NTMuNSIvPjxwYXRoIGZpbGw9IiMwMDAwMDAiIGQ9Ik0xNDU1Ljg0MzgsMTEyNi42NzE5IEMxNDU0LjkwNjMsMTEyNi4yMzQ0IDE0NTQuMzEyNSwxMTI2LjA5MzggMTQ1My40Mzc1LDExMjYuMDkzOCBDMTQ1MC44MTI1LDExMjYuMDkzOCAxNDQ4LjgxMjUsMTEyOC4xNzE5IDE0NDguODEyNSwxMTMwLjg5MDYgTDE0NDguODEyNSwxMTMyLjAxNTYgQzE0NDguODEyNSwxMTM0LjU5MzggMTQ1MC45MjE5LDExMzYuNDg0NCAxNDUzLjgxMjUsMTEzNi40ODQ0IEMxNDU1LjAzMTMsMTEzNi40ODQ0IDE0NTYuMTg3NSwxMTM2LjE4NzUgMTQ1Ni45Mzc1LDExMzUuNjQwNiBDMTQ1Ny41MTU2LDExMzUuMjM0NCAxNDU3Ljg0MzgsMTEzNC43ODEzIDE0NTcuODQzOCwxMTM0LjM5MDYgQzE0NTcuODQzOCwxMTMzLjkzNzUgMTQ1Ny40NTMxLDExMzMuNTQ2OSAxNDU2Ljk4NDQsMTEzMy41NDY5IEMxNDU2Ljc2NTYsMTEzMy41NDY5IDE0NTYuNTYyNSwxMTMzLjYyNSAxNDU2LjM3NSwxMTMzLjgxMjUgQzE0NTUuOTIxOSwxMTM0LjI5NjkgMTQ1NS45MjE5LDExMzQuMjk2OSAxNDU1LjczNDQsMTEzNC4zOTA2IEMxNDU1LjMxMjUsMTEzNC42NTYzIDE0NTQuNjI1LDExMzQuNzgxMyAxNDUzLjg1OTQsMTEzNC43ODEzIEMxNDUxLjgxMjUsMTEzNC43ODEzIDE0NTAuNTE1NiwxMTMzLjY4NzUgMTQ1MC41MTU2LDExMzEuOTg0NCBMMTQ1MC41MTU2LDExMzAuODkwNiBDMTQ1MC41MTU2LDExMjkuMTA5NCAxNDUxLjc2NTYsMTEyNy43OTY5IDE0NTMuNSwxMTI3Ljc5NjkgQzE0NTQuMDc4MSwxMTI3Ljc5NjkgMTQ1NC42ODc1LDExMjcuOTUzMSAxNDU1LjE1NjMsMTEyOC4yMDMxIEMxNDU1LjY0MDYsMTEyOC40ODQ0IDE0NTUuODEyNSwxMTI4LjcwMzEgMTQ1NS45MDYzLDExMjkuMTA5NCBDMTQ1NS45Njg4LDExMjkuNTE1NiAxNDU2LDExMjkuNjQwNiAxNDU2LjE0MDYsMTEyOS43NjU2IEMxNDU2LjI4MTMsMTEyOS45MDYzIDE0NTYuNTE1NiwxMTMwLjAxNTYgMTQ1Ni43MzQ0LDExMzAuMDE1NiBDMTQ1NywxMTMwLjAxNTYgMTQ1Ny4yNjU2LDExMjkuODc1IDE0NTcuNDM3NSwxMTI5LjY1NjMgQzE0NTcuNTQ2OSwxMTI5LjUgMTQ1Ny41NzgxLDExMjkuMzEyNSAxNDU3LjU3ODEsMTEyOC44OTA2IEwxNDU3LjU3ODEsMTEyNy40Njg4IEMxNDU3LjU3ODEsMTEyNy4wMzEzIDE0NTcuNTYyNSwxMTI2LjkwNjMgMTQ1Ny40Njg4LDExMjYuNzUgQzE0NTcuMzEyNSwxMTI2LjQ4NDQgMTQ1Ny4wMzEzLDExMjYuMzQzOCAxNDU2LjczNDQsMTEyNi4zNDM4IEMxNDU2LjQzNzUsMTEyNi4zNDM4IDE0NTYuMjM0NCwxMTI2LjQzNzUgMTQ1Ni4wMTU2LDExMjYuNzUgTDE0NTUuODQzOCwxMTI2LjY3MTkgWiIvPjx0ZXh0IHk9IjExMzUuODQ2NyIgeD0iMTQ2Ny41IiB0ZXh0TGVuZ3RoPSIxMTciIGxlbmd0aEFkanVzdD0ic3BhY2luZyIgZm9udC1zaXplPSIxNCIgZm9udC1mYW1pbHk9InNhbnMtc2VyaWYiIGZpbGw9IiMwMDAwMDAiPkNsaWVudFNjb3JlQ2FyZDwvdGV4dD48bGluZSB5Mj0iMTE0NyIgeTE9IjExNDciIHgyPSIxNTg2LjUiIHgxPSIxNDM5LjUiIHN0eWxlPSJzdHJva2U6I0E4MDAzNjtzdHJva2Utd2lkdGg6MS4wOyIvPjxsaW5lIHkyPSIxMTU1IiB5MT0iMTE1NSIgeDI9IjE1ODYuNSIgeDE9IjE0MzkuNSIgc3R5bGU9InN0cm9rZTojQTgwMDM2O3N0cm9rZS13aWR0aDoxLjA7Ii8+PC9nPjxnIGlkPSJlbGVtX0NsaWVudE9iamVjdENhcmQiPjxyZWN0IHk9IjExMTUiIHg9IjI1OTEuNSIgd2lkdGg9IjE1NyIgc3R5bGU9InN0cm9rZTojQTgwMDM2O3N0cm9rZS13aWR0aDoxLjA7IiBpZD0iQ2xpZW50T2JqZWN0Q2FyZCIgaGVpZ2h0PSI0OCIgZmlsdGVyPSJ1cmwoI2Zzeno3b3FpOXRoZDMpIiBmaWxsPSIjRkVGRUNFIi8+PGVsbGlwc2Ugc3R5bGU9InN0cm9rZTojQTgwMDM2O3N0cm9rZS13aWR0aDoxLjA7IiByeT0iMTEiIHJ4PSIxMSIgZmlsbD0iI0FERDFCMiIgY3k9IjExMzEiIGN4PSIyNjA2LjUiLz48cGF0aCBmaWxsPSIjMDAwMDAwIiBkPSJNMjYwOC44NDM4LDExMjYuNjcxOSBDMjYwNy45MDYzLDExMjYuMjM0NCAyNjA3LjMxMjUsMTEyNi4wOTM4IDI2MDYuNDM3NSwxMTI2LjA5MzggQzI2MDMuODEyNSwxMTI2LjA5MzggMjYwMS44MTI1LDExMjguMTcxOSAyNjAxLjgxMjUsMTEzMC44OTA2IEwyNjAxLjgxMjUsMTEzMi4wMTU2IEMyNjAxLjgxMjUsMTEzNC41OTM4IDI2MDMuOTIxOSwxMTM2LjQ4NDQgMjYwNi44MTI1LDExMzYuNDg0NCBDMjYwOC4wMzEzLDExMzYuNDg0NCAyNjA5LjE4NzUsMTEzNi4xODc1IDI2MDkuOTM3NSwxMTM1LjY0MDYgQzI2MTAuNTE1NiwxMTM1LjIzNDQgMjYxMC44NDM4LDExMzQuNzgxMyAyNjEwLjg0MzgsMTEzNC4zOTA2IEMyNjEwLjg0MzgsMTEzMy45Mzc1IDI2MTAuNDUzMSwxMTMzLjU0NjkgMjYwOS45ODQ0LDExMzMuNTQ2OSBDMjYwOS43NjU2LDExMzMuNTQ2OSAyNjA5LjU2MjUsMTEzMy42MjUgMjYwOS4zNzUsMTEzMy44MTI1IEMyNjA4LjkyMTksMTEzNC4yOTY5IDI2MDguOTIxOSwxMTM0LjI5NjkgMjYwOC43MzQ0LDExMzQuMzkwNiBDMjYwOC4zMTI1LDExMzQuNjU2MyAyNjA3LjYyNSwxMTM0Ljc4MTMgMjYwNi44NTk0LDExMzQuNzgxMyBDMjYwNC44MTI1LDExMzQuNzgxMyAyNjAzLjUxNTYsMTEzMy42ODc1IDI2MDMuNTE1NiwxMTMxLjk4NDQgTDI2MDMuNTE1NiwxMTMwLjg5MDYgQzI2MDMuNTE1NiwxMTI5LjEwOTQgMjYwNC43NjU2LDExMjcuNzk2OSAyNjA2LjUsMTEyNy43OTY5IEMyNjA3LjA3ODEsMTEyNy43OTY5IDI2MDcuNjg3NSwxMTI3Ljk1MzEgMjYwOC4xNTYzLDExMjguMjAzMSBDMjYwOC42NDA2LDExMjguNDg0NCAyNjA4LjgxMjUsMTEyOC43MDMxIDI2MDguOTA2MywxMTI5LjEwOTQgQzI2MDguOTY4OCwxMTI5LjUxNTYgMjYwOSwxMTI5LjY0MDYgMjYwOS4xNDA2LDExMjkuNzY1NiBDMjYwOS4yODEzLDExMjkuOTA2MyAyNjA5LjUxNTYsMTEzMC4wMTU2IDI2MDkuNzM0NCwxMTMwLjAxNTYgQzI2MTAsMTEzMC4wMTU2IDI2MTAuMjY1NiwxMTI5Ljg3NSAyNjEwLjQzNzUsMTEyOS42NTYzIEMyNjEwLjU0NjksMTEyOS41IDI2MTAuNTc4MSwxMTI5LjMxMjUgMjYxMC41NzgxLDExMjguODkwNiBMMjYxMC41NzgxLDExMjcuNDY4OCBDMjYxMC41NzgxLDExMjcuMDMxMyAyNjEwLjU2MjUsMTEyNi45MDYzIDI2MTAuNDY4OCwxMTI2Ljc1IEMyNjEwLjMxMjUsMTEyNi40ODQ0IDI2MTAuMDMxMywxMTI2LjM0MzggMjYwOS43MzQ0LDExMjYuMzQzOCBDMjYwOS40Mzc1LDExMjYuMzQzOCAyNjA5LjIzNDQsMTEyNi40Mzc1IDI2MDkuMDE1NiwxMTI2Ljc1IEwyNjA4Ljg0MzgsMTEyNi42NzE5IFoiLz48dGV4dCB5PSIxMTM1Ljg0NjciIHg9IjI2MjAuNSIgdGV4dExlbmd0aD0iMTI1IiBsZW5ndGhBZGp1c3Q9InNwYWNpbmciIGZvbnQtc2l6ZT0iMTQiIGZvbnQtZmFtaWx5PSJzYW5zLXNlcmlmIiBmaWxsPSIjMDAwMDAwIj5DbGllbnRPYmplY3RDYXJkPC90ZXh0PjxsaW5lIHkyPSIxMTQ3IiB5MT0iMTE0NyIgeDI9IjI3NDcuNSIgeDE9IjI1OTIuNSIgc3R5bGU9InN0cm9rZTojQTgwMDM2O3N0cm9rZS13aWR0aDoxLjA7Ii8+PGxpbmUgeTI9IjExNTUiIHkxPSIxMTU1IiB4Mj0iMjc0Ny41IiB4MT0iMjU5Mi41IiBzdHlsZT0ic3Ryb2tlOiNBODAwMzY7c3Ryb2tlLXdpZHRoOjEuMDsiLz48L2c+PGcgaWQ9ImVsZW1fQ2xpZW50U2hlbGYiPjxyZWN0IHk9IjExMTUiIHg9IjIwMTUiIHdpZHRoPSIxMTIiIHN0eWxlPSJzdHJva2U6I0E4MDAzNjtzdHJva2Utd2lkdGg6MS4wOyIgaWQ9IkNsaWVudFNoZWxmIiBoZWlnaHQ9IjQ4IiBmaWx0ZXI9InVybCgjZnN6ejdvcWk5dGhkMykiIGZpbGw9IiNGRUZFQ0UiLz48ZWxsaXBzZSBzdHlsZT0ic3Ryb2tlOiNBODAwMzY7c3Ryb2tlLXdpZHRoOjEuMDsiIHJ5PSIxMSIgcng9IjExIiBmaWxsPSIjQUREMUIyIiBjeT0iMTEzMSIgY3g9IjIwMzAiLz48cGF0aCBmaWxsPSIjMDAwMDAwIiBkPSJNMjAzMi4zNDM4LDExMjYuNjcxOSBDMjAzMS40MDYzLDExMjYuMjM0NCAyMDMwLjgxMjUsMTEyNi4wOTM4IDIwMjkuOTM3NSwxMTI2LjA5MzggQzIwMjcuMzEyNSwxMTI2LjA5MzggMjAyNS4zMTI1LDExMjguMTcxOSAyMDI1LjMxMjUsMTEzMC44OTA2IEwyMDI1LjMxMjUsMTEzMi4wMTU2IEMyMDI1LjMxMjUsMTEzNC41OTM4IDIwMjcuNDIxOSwxMTM2LjQ4NDQgMjAzMC4zMTI1LDExMzYuNDg0NCBDMjAzMS41MzEzLDExMzYuNDg0NCAyMDMyLjY4NzUsMTEzNi4xODc1IDIwMzMuNDM3NSwxMTM1LjY0MDYgQzIwMzQuMDE1NiwxMTM1LjIzNDQgMjAzNC4zNDM4LDExMzQuNzgxMyAyMDM0LjM0MzgsMTEzNC4zOTA2IEMyMDM0LjM0MzgsMTEzMy45Mzc1IDIwMzMuOTUzMSwxMTMzLjU0NjkgMjAzMy40ODQ0LDExMzMuNTQ2OSBDMjAzMy4yNjU2LDExMzMuNTQ2OSAyMDMzLjA2MjUsMTEzMy42MjUgMjAzMi44NzUsMTEzMy44MTI1IEMyMDMyLjQyMTksMTEzNC4yOTY5IDIwMzIuNDIxOSwxMTM0LjI5NjkgMjAzMi4yMzQ0LDExMzQuMzkwNiBDMjAzMS44MTI1LDExMzQuNjU2MyAyMDMxLjEyNSwxMTM0Ljc4MTMgMjAzMC4zNTk0LDExMzQuNzgxMyBDMjAyOC4zMTI1LDExMzQuNzgxMyAyMDI3LjAxNTYsMTEzMy42ODc1IDIwMjcuMDE1NiwxMTMxLjk4NDQgTDIwMjcuMDE1NiwxMTMwLjg5MDYgQzIwMjcuMDE1NiwxMTI5LjEwOTQgMjAyOC4yNjU2LDExMjcuNzk2OSAyMDMwLDExMjcuNzk2OSBDMjAzMC41NzgxLDExMjcuNzk2OSAyMDMxLjE4NzUsMTEyNy45NTMxIDIwMzEuNjU2MywxMTI4LjIwMzEgQzIwMzIuMTQwNiwxMTI4LjQ4NDQgMjAzMi4zMTI1LDExMjguNzAzMSAyMDMyLjQwNjMsMTEyOS4xMDk0IEMyMDMyLjQ2ODgsMTEyOS41MTU2IDIwMzIuNSwxMTI5LjY0MDYgMjAzMi42NDA2LDExMjkuNzY1NiBDMjAzMi43ODEzLDExMjkuOTA2MyAyMDMzLjAxNTYsMTEzMC4wMTU2IDIwMzMuMjM0NCwxMTMwLjAxNTYgQzIwMzMuNSwxMTMwLjAxNTYgMjAzMy43NjU2LDExMjkuODc1IDIwMzMuOTM3NSwxMTI5LjY1NjMgQzIwMzQuMDQ2OSwxMTI5LjUgMjAzNC4wNzgxLDExMjkuMzEyNSAyMDM0LjA3ODEsMTEyOC44OTA2IEwyMDM0LjA3ODEsMTEyNy40Njg4IEMyMDM0LjA3ODEsMTEyNy4wMzEzIDIwMzQuMDYyNSwxMTI2LjkwNjMgMjAzMy45Njg4LDExMjYuNzUgQzIwMzMuODEyNSwxMTI2LjQ4NDQgMjAzMy41MzEzLDExMjYuMzQzOCAyMDMzLjIzNDQsMTEyNi4zNDM4IEMyMDMyLjkzNzUsMTEyNi4zNDM4IDIwMzIuNzM0NCwxMTI2LjQzNzUgMjAzMi41MTU2LDExMjYuNzUgTDIwMzIuMzQzOCwxMTI2LjY3MTkgWiIvPjx0ZXh0IHk9IjExMzUuODQ2NyIgeD0iMjA0NCIgdGV4dExlbmd0aD0iODAiIGxlbmd0aEFkanVzdD0ic3BhY2luZyIgZm9udC1zaXplPSIxNCIgZm9udC1mYW1pbHk9InNhbnMtc2VyaWYiIGZpbGw9IiMwMDAwMDAiPkNsaWVudFNoZWxmPC90ZXh0PjxsaW5lIHkyPSIxMTQ3IiB5MT0iMTE0NyIgeDI9IjIxMjYiIHgxPSIyMDE2IiBzdHlsZT0ic3Ryb2tlOiNBODAwMzY7c3Ryb2tlLXdpZHRoOjEuMDsiLz48bGluZSB5Mj0iMTE1NSIgeTE9IjExNTUiIHgyPSIyMTI2IiB4MT0iMjAxNiIgc3R5bGU9InN0cm9rZTojQTgwMDM2O3N0cm9rZS13aWR0aDoxLjA7Ii8+PC9nPjxnIGlkPSJlbGVtX0NsaWVudFBlcnNvbmFsR29hbENhcmQiPjxyZWN0IHk9IjExMTUiIHg9IjIzNTUuNSIgd2lkdGg9IjIwMSIgc3R5bGU9InN0cm9rZTojQTgwMDM2O3N0cm9rZS13aWR0aDoxLjA7IiBpZD0iQ2xpZW50UGVyc29uYWxHb2FsQ2FyZCIgaGVpZ2h0PSI0OCIgZmlsdGVyPSJ1cmwoI2Zzeno3b3FpOXRoZDMpIiBmaWxsPSIjRkVGRUNFIi8+PGVsbGlwc2Ugc3R5bGU9InN0cm9rZTojQTgwMDM2O3N0cm9rZS13aWR0aDoxLjA7IiByeT0iMTEiIHJ4PSIxMSIgZmlsbD0iI0FERDFCMiIgY3k9IjExMzEiIGN4PSIyMzcwLjUiLz48cGF0aCBmaWxsPSIjMDAwMDAwIiBkPSJNMjM3Mi44NDM4LDExMjYuNjcxOSBDMjM3MS45MDYzLDExMjYuMjM0NCAyMzcxLjMxMjUsMTEyNi4wOTM4IDIzNzAuNDM3NSwxMTI2LjA5MzggQzIzNjcuODEyNSwxMTI2LjA5MzggMjM2NS44MTI1LDExMjguMTcxOSAyMzY1LjgxMjUsMTEzMC44OTA2IEwyMzY1LjgxMjUsMTEzMi4wMTU2IEMyMzY1LjgxMjUsMTEzNC41OTM4IDIzNjcuOTIxOSwxMTM2LjQ4NDQgMjM3MC44MTI1LDExMzYuNDg0NCBDMjM3Mi4wMzEzLDExMzYuNDg0NCAyMzczLjE4NzUsMTEzNi4xODc1IDIzNzMuOTM3NSwxMTM1LjY0MDYgQzIzNzQuNTE1NiwxMTM1LjIzNDQgMjM3NC44NDM4LDExMzQuNzgxMyAyMzc0Ljg0MzgsMTEzNC4zOTA2IEMyMzc0Ljg0MzgsMTEzMy45Mzc1IDIzNzQuNDUzMSwxMTMzLjU0NjkgMjM3My45ODQ0LDExMzMuNTQ2OSBDMjM3My43NjU2LDExMzMuNTQ2OSAyMzczLjU2MjUsMTEzMy42MjUgMjM3My4zNzUsMTEzMy44MTI1IEMyMzcyLjkyMTksMTEzNC4yOTY5IDIzNzIuOTIxOSwxMTM0LjI5NjkgMjM3Mi43MzQ0LDExMzQuMzkwNiBDMjM3Mi4zMTI1LDExMzQuNjU2MyAyMzcxLjYyNSwxMTM0Ljc4MTMgMjM3MC44NTk0LDExMzQuNzgxMyBDMjM2OC44MTI1LDExMzQuNzgxMyAyMzY3LjUxNTYsMTEzMy42ODc1IDIzNjcuNTE1NiwxMTMxLjk4NDQgTDIzNjcuNTE1NiwxMTMwLjg5MDYgQzIzNjcuNTE1NiwxMTI5LjEwOTQgMjM2OC43NjU2LDExMjcuNzk2OSAyMzcwLjUsMTEyNy43OTY5IEMyMzcxLjA3ODEsMTEyNy43OTY5IDIzNzEuNjg3NSwxMTI3Ljk1MzEgMjM3Mi4xNTYzLDExMjguMjAzMSBDMjM3Mi42NDA2LDExMjguNDg0NCAyMzcyLjgxMjUsMTEyOC43MDMxIDIzNzIuOTA2MywxMTI5LjEwOTQgQzIzNzIuOTY4OCwxMTI5LjUxNTYgMjM3MywxMTI5LjY0MDYgMjM3My4xNDA2LDExMjkuNzY1NiBDMjM3My4yODEzLDExMjkuOTA2MyAyMzczLjUxNTYsMTEzMC4wMTU2IDIzNzMuNzM0NCwxMTMwLjAxNTYgQzIzNzQsMTEzMC4wMTU2IDIzNzQuMjY1NiwxMTI5Ljg3NSAyMzc0LjQzNzUsMTEyOS42NTYzIEMyMzc0LjU0NjksMTEyOS41IDIzNzQuNTc4MSwxMTI5LjMxMjUgMjM3NC41NzgxLDExMjguODkwNiBMMjM3NC41NzgxLDExMjcuNDY4OCBDMjM3NC41NzgxLDExMjcuMDMxMyAyMzc0LjU2MjUsMTEyNi45MDYzIDIzNzQuNDY4OCwxMTI2Ljc1IEMyMzc0LjMxMjUsMTEyNi40ODQ0IDIzNzQuMDMxMywxMTI2LjM0MzggMjM3My43MzQ0LDExMjYuMzQzOCBDMjM3My40Mzc1LDExMjYuMzQzOCAyMzczLjIzNDQsMTEyNi40Mzc1IDIzNzMuMDE1NiwxMTI2Ljc1IEwyMzcyLjg0MzgsMTEyNi42NzE5IFoiLz48dGV4dCB5PSIxMTM1Ljg0NjciIHg9IjIzODQuNSIgdGV4dExlbmd0aD0iMTY5IiBsZW5ndGhBZGp1c3Q9InNwYWNpbmciIGZvbnQtc2l6ZT0iMTQiIGZvbnQtZmFtaWx5PSJzYW5zLXNlcmlmIiBmaWxsPSIjMDAwMDAwIj5DbGllbnRQZXJzb25hbEdvYWxDYXJkPC90ZXh0PjxsaW5lIHkyPSIxMTQ3IiB5MT0iMTE0NyIgeDI9IjI1NTUuNSIgeDE9IjIzNTYuNSIgc3R5bGU9InN0cm9rZTojQTgwMDM2O3N0cm9rZS13aWR0aDoxLjA7Ii8+PGxpbmUgeTI9IjExNTUiIHkxPSIxMTU1IiB4Mj0iMjU1NS41IiB4MT0iMjM1Ni41IiBzdHlsZT0ic3Ryb2tlOiNBODAwMzY7c3Ryb2tlLXdpZHRoOjEuMDsiLz48L2c+PGcgaWQ9ImVsZW1fQ2xpZW50Qm9hcmRTcGFjZSI+PHJlY3QgeT0iMTI3MiIgeD0iMTI5MC41IiB3aWR0aD0iMTYxIiBzdHlsZT0ic3Ryb2tlOiNBODAwMzY7c3Ryb2tlLXdpZHRoOjEuMDsiIGlkPSJDbGllbnRCb2FyZFNwYWNlIiBoZWlnaHQ9IjQ4IiBmaWx0ZXI9InVybCgjZnN6ejdvcWk5dGhkMykiIGZpbGw9IiNGRUZFQ0UiLz48ZWxsaXBzZSBzdHlsZT0ic3Ryb2tlOiNBODAwMzY7c3Ryb2tlLXdpZHRoOjEuMDsiIHJ5PSIxMSIgcng9IjExIiBmaWxsPSIjQUREMUIyIiBjeT0iMTI4OCIgY3g9IjEzMDUuNSIvPjxwYXRoIGZpbGw9IiMwMDAwMDAiIGQ9Ik0xMzA3Ljg0MzgsMTI4My42NzE5IEMxMzA2LjkwNjMsMTI4My4yMzQ0IDEzMDYuMzEyNSwxMjgzLjA5MzggMTMwNS40Mzc1LDEyODMuMDkzOCBDMTMwMi44MTI1LDEyODMuMDkzOCAxMzAwLjgxMjUsMTI4NS4xNzE5IDEzMDAuODEyNSwxMjg3Ljg5MDYgTDEzMDAuODEyNSwxMjg5LjAxNTYgQzEzMDAuODEyNSwxMjkxLjU5MzggMTMwMi45MjE5LDEyOTMuNDg0NCAxMzA1LjgxMjUsMTI5My40ODQ0IEMxMzA3LjAzMTMsMTI5My40ODQ0IDEzMDguMTg3NSwxMjkzLjE4NzUgMTMwOC45Mzc1LDEyOTIuNjQwNiBDMTMwOS41MTU2LDEyOTIuMjM0NCAxMzA5Ljg0MzgsMTI5MS43ODEzIDEzMDkuODQzOCwxMjkxLjM5MDYgQzEzMDkuODQzOCwxMjkwLjkzNzUgMTMwOS40NTMxLDEyOTAuNTQ2OSAxMzA4Ljk4NDQsMTI5MC41NDY5IEMxMzA4Ljc2NTYsMTI5MC41NDY5IDEzMDguNTYyNSwxMjkwLjYyNSAxMzA4LjM3NSwxMjkwLjgxMjUgQzEzMDcuOTIxOSwxMjkxLjI5NjkgMTMwNy45MjE5LDEyOTEuMjk2OSAxMzA3LjczNDQsMTI5MS4zOTA2IEMxMzA3LjMxMjUsMTI5MS42NTYzIDEzMDYuNjI1LDEyOTEuNzgxMyAxMzA1Ljg1OTQsMTI5MS43ODEzIEMxMzAzLjgxMjUsMTI5MS43ODEzIDEzMDIuNTE1NiwxMjkwLjY4NzUgMTMwMi41MTU2LDEyODguOTg0NCBMMTMwMi41MTU2LDEyODcuODkwNiBDMTMwMi41MTU2LDEyODYuMTA5NCAxMzAzLjc2NTYsMTI4NC43OTY5IDEzMDUuNSwxMjg0Ljc5NjkgQzEzMDYuMDc4MSwxMjg0Ljc5NjkgMTMwNi42ODc1LDEyODQuOTUzMSAxMzA3LjE1NjMsMTI4NS4yMDMxIEMxMzA3LjY0MDYsMTI4NS40ODQ0IDEzMDcuODEyNSwxMjg1LjcwMzEgMTMwNy45MDYzLDEyODYuMTA5NCBDMTMwNy45Njg4LDEyODYuNTE1NiAxMzA4LDEyODYuNjQwNiAxMzA4LjE0MDYsMTI4Ni43NjU2IEMxMzA4LjI4MTMsMTI4Ni45MDYzIDEzMDguNTE1NiwxMjg3LjAxNTYgMTMwOC43MzQ0LDEyODcuMDE1NiBDMTMwOSwxMjg3LjAxNTYgMTMwOS4yNjU2LDEyODYuODc1IDEzMDkuNDM3NSwxMjg2LjY1NjMgQzEzMDkuNTQ2OSwxMjg2LjUgMTMwOS41NzgxLDEyODYuMzEyNSAxMzA5LjU3ODEsMTI4NS44OTA2IEwxMzA5LjU3ODEsMTI4NC40Njg4IEMxMzA5LjU3ODEsMTI4NC4wMzEzIDEzMDkuNTYyNSwxMjgzLjkwNjMgMTMwOS40Njg4LDEyODMuNzUgQzEzMDkuMzEyNSwxMjgzLjQ4NDQgMTMwOS4wMzEzLDEyODMuMzQzOCAxMzA4LjczNDQsMTI4My4zNDM4IEMxMzA4LjQzNzUsMTI4My4zNDM4IDEzMDguMjM0NCwxMjgzLjQzNzUgMTMwOC4wMTU2LDEyODMuNzUgTDEzMDcuODQzOCwxMjgzLjY3MTkgWiIvPjx0ZXh0IHk9IjEyOTIuODQ2NyIgeD0iMTMxOS41IiB0ZXh0TGVuZ3RoPSIxMjkiIGxlbmd0aEFkanVzdD0ic3BhY2luZyIgZm9udC1zaXplPSIxNCIgZm9udC1mYW1pbHk9InNhbnMtc2VyaWYiIGZpbGw9IiMwMDAwMDAiPkNsaWVudEJvYXJkU3BhY2U8L3RleHQ+PGxpbmUgeTI9IjEzMDQiIHkxPSIxMzA0IiB4Mj0iMTQ1MC41IiB4MT0iMTI5MS41IiBzdHlsZT0ic3Ryb2tlOiNBODAwMzY7c3Ryb2tlLXdpZHRoOjEuMDsiLz48bGluZSB5Mj0iMTMxMiIgeTE9IjEzMTIiIHgyPSIxNDUwLjUiIHgxPSIxMjkxLjUiIHN0eWxlPSJzdHJva2U6I0E4MDAzNjtzdHJva2Utd2lkdGg6MS4wOyIvPjwvZz48ZyBpZD0iZWxlbV9DbGllbnRTY29yZWJvYXJkIj48cmVjdCB5PSIxMTE1IiB4PSIyMTYyIiB3aWR0aD0iMTU4IiBzdHlsZT0ic3Ryb2tlOiNBODAwMzY7c3Ryb2tlLXdpZHRoOjEuMDsiIGlkPSJDbGllbnRTY29yZWJvYXJkIiBoZWlnaHQ9IjQ4IiBmaWx0ZXI9InVybCgjZnN6ejdvcWk5dGhkMykiIGZpbGw9IiNGRUZFQ0UiLz48ZWxsaXBzZSBzdHlsZT0ic3Ryb2tlOiNBODAwMzY7c3Ryb2tlLXdpZHRoOjEuMDsiIHJ5PSIxMSIgcng9IjExIiBmaWxsPSIjQUREMUIyIiBjeT0iMTEzMSIgY3g9IjIxNzciLz48cGF0aCBmaWxsPSIjMDAwMDAwIiBkPSJNMjE3OS4zNDM4LDExMjYuNjcxOSBDMjE3OC40MDYzLDExMjYuMjM0NCAyMTc3LjgxMjUsMTEyNi4wOTM4IDIxNzYuOTM3NSwxMTI2LjA5MzggQzIxNzQuMzEyNSwxMTI2LjA5MzggMjE3Mi4zMTI1LDExMjguMTcxOSAyMTcyLjMxMjUsMTEzMC44OTA2IEwyMTcyLjMxMjUsMTEzMi4wMTU2IEMyMTcyLjMxMjUsMTEzNC41OTM4IDIxNzQuNDIxOSwxMTM2LjQ4NDQgMjE3Ny4zMTI1LDExMzYuNDg0NCBDMjE3OC41MzEzLDExMzYuNDg0NCAyMTc5LjY4NzUsMTEzNi4xODc1IDIxODAuNDM3NSwxMTM1LjY0MDYgQzIxODEuMDE1NiwxMTM1LjIzNDQgMjE4MS4zNDM4LDExMzQuNzgxMyAyMTgxLjM0MzgsMTEzNC4zOTA2IEMyMTgxLjM0MzgsMTEzMy45Mzc1IDIxODAuOTUzMSwxMTMzLjU0NjkgMjE4MC40ODQ0LDExMzMuNTQ2OSBDMjE4MC4yNjU2LDExMzMuNTQ2OSAyMTgwLjA2MjUsMTEzMy42MjUgMjE3OS44NzUsMTEzMy44MTI1IEMyMTc5LjQyMTksMTEzNC4yOTY5IDIxNzkuNDIxOSwxMTM0LjI5NjkgMjE3OS4yMzQ0LDExMzQuMzkwNiBDMjE3OC44MTI1LDExMzQuNjU2MyAyMTc4LjEyNSwxMTM0Ljc4MTMgMjE3Ny4zNTk0LDExMzQuNzgxMyBDMjE3NS4zMTI1LDExMzQuNzgxMyAyMTc0LjAxNTYsMTEzMy42ODc1IDIxNzQuMDE1NiwxMTMxLjk4NDQgTDIxNzQuMDE1NiwxMTMwLjg5MDYgQzIxNzQuMDE1NiwxMTI5LjEwOTQgMjE3NS4yNjU2LDExMjcuNzk2OSAyMTc3LDExMjcuNzk2OSBDMjE3Ny41NzgxLDExMjcuNzk2OSAyMTc4LjE4NzUsMTEyNy45NTMxIDIxNzguNjU2MywxMTI4LjIwMzEgQzIxNzkuMTQwNiwxMTI4LjQ4NDQgMjE3OS4zMTI1LDExMjguNzAzMSAyMTc5LjQwNjMsMTEyOS4xMDk0IEMyMTc5LjQ2ODgsMTEyOS41MTU2IDIxNzkuNSwxMTI5LjY0MDYgMjE3OS42NDA2LDExMjkuNzY1NiBDMjE3OS43ODEzLDExMjkuOTA2MyAyMTgwLjAxNTYsMTEzMC4wMTU2IDIxODAuMjM0NCwxMTMwLjAxNTYgQzIxODAuNSwxMTMwLjAxNTYgMjE4MC43NjU2LDExMjkuODc1IDIxODAuOTM3NSwxMTI5LjY1NjMgQzIxODEuMDQ2OSwxMTI5LjUgMjE4MS4wNzgxLDExMjkuMzEyNSAyMTgxLjA3ODEsMTEyOC44OTA2IEwyMTgxLjA3ODEsMTEyNy40Njg4IEMyMTgxLjA3ODEsMTEyNy4wMzEzIDIxODEuMDYyNSwxMTI2LjkwNjMgMjE4MC45Njg4LDExMjYuNzUgQzIxODAuODEyNSwxMTI2LjQ4NDQgMjE4MC41MzEzLDExMjYuMzQzOCAyMTgwLjIzNDQsMTEyNi4zNDM4IEMyMTc5LjkzNzUsMTEyNi4zNDM4IDIxNzkuNzM0NCwxMTI2LjQzNzUgMjE3OS41MTU2LDExMjYuNzUgTDIxNzkuMzQzOCwxMTI2LjY3MTkgWiIvPjx0ZXh0IHk9IjExMzUuODQ2NyIgeD0iMjE5MSIgdGV4dExlbmd0aD0iMTI2IiBsZW5ndGhBZGp1c3Q9InNwYWNpbmciIGZvbnQtc2l6ZT0iMTQiIGZvbnQtZmFtaWx5PSJzYW5zLXNlcmlmIiBmaWxsPSIjMDAwMDAwIj5DbGllbnRTY29yZWJvYXJkPC90ZXh0PjxsaW5lIHkyPSIxMTQ3IiB5MT0iMTE0NyIgeDI9IjIzMTkiIHgxPSIyMTYzIiBzdHlsZT0ic3Ryb2tlOiNBODAwMzY7c3Ryb2tlLXdpZHRoOjEuMDsiLz48bGluZSB5Mj0iMTE1NSIgeTE9IjExNTUiIHgyPSIyMzE5IiB4MT0iMjE2MyIgc3R5bGU9InN0cm9rZTojQTgwMDM2O3N0cm9rZS13aWR0aDoxLjA7Ii8+PC9nPjxnIGlkPSJlbGVtX0NsaWVudFN0YXR1c0ludGVyZmFjZSI+PHJlY3QgeT0iMTExNSIgeD0iMzAxMS41IiB3aWR0aD0iMTg3IiBzdHlsZT0ic3Ryb2tlOiNBODAwMzY7c3Ryb2tlLXdpZHRoOjEuMDsiIGlkPSJDbGllbnRTdGF0dXNJbnRlcmZhY2UiIGhlaWdodD0iNDgiIGZpbHRlcj0idXJsKCNmc3p6N29xaTl0aGQzKSIgZmlsbD0iI0ZFRkVDRSIvPjxlbGxpcHNlIHN0eWxlPSJzdHJva2U6I0E4MDAzNjtzdHJva2Utd2lkdGg6MS4wOyIgcnk9IjExIiByeD0iMTEiIGZpbGw9IiNBREQxQjIiIGN5PSIxMTMxIiBjeD0iMzAyNi41Ii8+PHBhdGggZmlsbD0iIzAwMDAwMCIgZD0iTTMwMjguODQzOCwxMTI2LjY3MTkgQzMwMjcuOTA2MywxMTI2LjIzNDQgMzAyNy4zMTI1LDExMjYuMDkzOCAzMDI2LjQzNzUsMTEyNi4wOTM4IEMzMDIzLjgxMjUsMTEyNi4wOTM4IDMwMjEuODEyNSwxMTI4LjE3MTkgMzAyMS44MTI1LDExMzAuODkwNiBMMzAyMS44MTI1LDExMzIuMDE1NiBDMzAyMS44MTI1LDExMzQuNTkzOCAzMDIzLjkyMTksMTEzNi40ODQ0IDMwMjYuODEyNSwxMTM2LjQ4NDQgQzMwMjguMDMxMywxMTM2LjQ4NDQgMzAyOS4xODc1LDExMzYuMTg3NSAzMDI5LjkzNzUsMTEzNS42NDA2IEMzMDMwLjUxNTYsMTEzNS4yMzQ0IDMwMzAuODQzOCwxMTM0Ljc4MTMgMzAzMC44NDM4LDExMzQuMzkwNiBDMzAzMC44NDM4LDExMzMuOTM3NSAzMDMwLjQ1MzEsMTEzMy41NDY5IDMwMjkuOTg0NCwxMTMzLjU0NjkgQzMwMjkuNzY1NiwxMTMzLjU0NjkgMzAyOS41NjI1LDExMzMuNjI1IDMwMjkuMzc1LDExMzMuODEyNSBDMzAyOC45MjE5LDExMzQuMjk2OSAzMDI4LjkyMTksMTEzNC4yOTY5IDMwMjguNzM0NCwxMTM0LjM5MDYgQzMwMjguMzEyNSwxMTM0LjY1NjMgMzAyNy42MjUsMTEzNC43ODEzIDMwMjYuODU5NCwxMTM0Ljc4MTMgQzMwMjQuODEyNSwxMTM0Ljc4MTMgMzAyMy41MTU2LDExMzMuNjg3NSAzMDIzLjUxNTYsMTEzMS45ODQ0IEwzMDIzLjUxNTYsMTEzMC44OTA2IEMzMDIzLjUxNTYsMTEyOS4xMDk0IDMwMjQuNzY1NiwxMTI3Ljc5NjkgMzAyNi41LDExMjcuNzk2OSBDMzAyNy4wNzgxLDExMjcuNzk2OSAzMDI3LjY4NzUsMTEyNy45NTMxIDMwMjguMTU2MywxMTI4LjIwMzEgQzMwMjguNjQwNiwxMTI4LjQ4NDQgMzAyOC44MTI1LDExMjguNzAzMSAzMDI4LjkwNjMsMTEyOS4xMDk0IEMzMDI4Ljk2ODgsMTEyOS41MTU2IDMwMjksMTEyOS42NDA2IDMwMjkuMTQwNiwxMTI5Ljc2NTYgQzMwMjkuMjgxMywxMTI5LjkwNjMgMzAyOS41MTU2LDExMzAuMDE1NiAzMDI5LjczNDQsMTEzMC4wMTU2IEMzMDMwLDExMzAuMDE1NiAzMDMwLjI2NTYsMTEyOS44NzUgMzAzMC40Mzc1LDExMjkuNjU2MyBDMzAzMC41NDY5LDExMjkuNSAzMDMwLjU3ODEsMTEyOS4zMTI1IDMwMzAuNTc4MSwxMTI4Ljg5MDYgTDMwMzAuNTc4MSwxMTI3LjQ2ODggQzMwMzAuNTc4MSwxMTI3LjAzMTMgMzAzMC41NjI1LDExMjYuOTA2MyAzMDMwLjQ2ODgsMTEyNi43NSBDMzAzMC4zMTI1LDExMjYuNDg0NCAzMDMwLjAzMTMsMTEyNi4zNDM4IDMwMjkuNzM0NCwxMTI2LjM0MzggQzMwMjkuNDM3NSwxMTI2LjM0MzggMzAyOS4yMzQ0LDExMjYuNDM3NSAzMDI5LjAxNTYsMTEyNi43NSBMMzAyOC44NDM4LDExMjYuNjcxOSBaIi8+PHRleHQgeT0iMTEzNS44NDY3IiB4PSIzMDQwLjUiIHRleHRMZW5ndGg9IjE1NSIgbGVuZ3RoQWRqdXN0PSJzcGFjaW5nIiBmb250LXNpemU9IjE0IiBmb250LWZhbWlseT0ic2Fucy1zZXJpZiIgZmlsbD0iIzAwMDAwMCI+Q2xpZW50U3RhdHVzSW50ZXJmYWNlPC90ZXh0PjxsaW5lIHkyPSIxMTQ3IiB5MT0iMTE0NyIgeDI9IjMxOTcuNSIgeDE9IjMwMTIuNSIgc3R5bGU9InN0cm9rZTojQTgwMDM2O3N0cm9rZS13aWR0aDoxLjA7Ii8+PGxpbmUgeTI9IjExNTUiIHkxPSIxMTU1IiB4Mj0iMzE5Ny41IiB4MT0iMzAxMi41IiBzdHlsZT0ic3Ryb2tlOiNBODAwMzY7c3Ryb2tlLXdpZHRoOjEuMDsiLz48L2c+PGcgaWQ9ImVsZW1fTXVsdGlwbGVWaWV3Ij48cmVjdCB5PSIxMTE1IiB4PSIxMTEwIiB3aWR0aD0iMTI0IiBzdHlsZT0ic3Ryb2tlOiNBODAwMzY7c3Ryb2tlLXdpZHRoOjEuMDsiIGlkPSJNdWx0aXBsZVZpZXciIGhlaWdodD0iNDgiIGZpbHRlcj0idXJsKCNmc3p6N29xaTl0aGQzKSIgZmlsbD0iI0ZFRkVDRSIvPjxlbGxpcHNlIHN0eWxlPSJzdHJva2U6I0E4MDAzNjtzdHJva2Utd2lkdGg6MS4wOyIgcnk9IjExIiByeD0iMTEiIGZpbGw9IiNBREQxQjIiIGN5PSIxMTMxIiBjeD0iMTEyNSIvPjxwYXRoIGZpbGw9IiMwMDAwMDAiIGQ9Ik0xMTI3LjM0MzgsMTEyNi42NzE5IEMxMTI2LjQwNjMsMTEyNi4yMzQ0IDExMjUuODEyNSwxMTI2LjA5MzggMTEyNC45Mzc1LDExMjYuMDkzOCBDMTEyMi4zMTI1LDExMjYuMDkzOCAxMTIwLjMxMjUsMTEyOC4xNzE5IDExMjAuMzEyNSwxMTMwLjg5MDYgTDExMjAuMzEyNSwxMTMyLjAxNTYgQzExMjAuMzEyNSwxMTM0LjU5MzggMTEyMi40MjE5LDExMzYuNDg0NCAxMTI1LjMxMjUsMTEzNi40ODQ0IEMxMTI2LjUzMTMsMTEzNi40ODQ0IDExMjcuNjg3NSwxMTM2LjE4NzUgMTEyOC40Mzc1LDExMzUuNjQwNiBDMTEyOS4wMTU2LDExMzUuMjM0NCAxMTI5LjM0MzgsMTEzNC43ODEzIDExMjkuMzQzOCwxMTM0LjM5MDYgQzExMjkuMzQzOCwxMTMzLjkzNzUgMTEyOC45NTMxLDExMzMuNTQ2OSAxMTI4LjQ4NDQsMTEzMy41NDY5IEMxMTI4LjI2NTYsMTEzMy41NDY5IDExMjguMDYyNSwxMTMzLjYyNSAxMTI3Ljg3NSwxMTMzLjgxMjUgQzExMjcuNDIxOSwxMTM0LjI5NjkgMTEyNy40MjE5LDExMzQuMjk2OSAxMTI3LjIzNDQsMTEzNC4zOTA2IEMxMTI2LjgxMjUsMTEzNC42NTYzIDExMjYuMTI1LDExMzQuNzgxMyAxMTI1LjM1OTQsMTEzNC43ODEzIEMxMTIzLjMxMjUsMTEzNC43ODEzIDExMjIuMDE1NiwxMTMzLjY4NzUgMTEyMi4wMTU2LDExMzEuOTg0NCBMMTEyMi4wMTU2LDExMzAuODkwNiBDMTEyMi4wMTU2LDExMjkuMTA5NCAxMTIzLjI2NTYsMTEyNy43OTY5IDExMjUsMTEyNy43OTY5IEMxMTI1LjU3ODEsMTEyNy43OTY5IDExMjYuMTg3NSwxMTI3Ljk1MzEgMTEyNi42NTYzLDExMjguMjAzMSBDMTEyNy4xNDA2LDExMjguNDg0NCAxMTI3LjMxMjUsMTEyOC43MDMxIDExMjcuNDA2MywxMTI5LjEwOTQgQzExMjcuNDY4OCwxMTI5LjUxNTYgMTEyNy41LDExMjkuNjQwNiAxMTI3LjY0MDYsMTEyOS43NjU2IEMxMTI3Ljc4MTMsMTEyOS45MDYzIDExMjguMDE1NiwxMTMwLjAxNTYgMTEyOC4yMzQ0LDExMzAuMDE1NiBDMTEyOC41LDExMzAuMDE1NiAxMTI4Ljc2NTYsMTEyOS44NzUgMTEyOC45Mzc1LDExMjkuNjU2MyBDMTEyOS4wNDY5LDExMjkuNSAxMTI5LjA3ODEsMTEyOS4zMTI1IDExMjkuMDc4MSwxMTI4Ljg5MDYgTDExMjkuMDc4MSwxMTI3LjQ2ODggQzExMjkuMDc4MSwxMTI3LjAzMTMgMTEyOS4wNjI1LDExMjYuOTA2MyAxMTI4Ljk2ODgsMTEyNi43NSBDMTEyOC44MTI1LDExMjYuNDg0NCAxMTI4LjUzMTMsMTEyNi4zNDM4IDExMjguMjM0NCwxMTI2LjM0MzggQzExMjcuOTM3NSwxMTI2LjM0MzggMTEyNy43MzQ0LDExMjYuNDM3NSAxMTI3LjUxNTYsMTEyNi43NSBMMTEyNy4zNDM4LDExMjYuNjcxOSBaIi8+PHRleHQgeT0iMTEzNS44NDY3IiB4PSIxMTM5IiB0ZXh0TGVuZ3RoPSI5MiIgbGVuZ3RoQWRqdXN0PSJzcGFjaW5nIiBmb250LXNpemU9IjE0IiBmb250LWZhbWlseT0ic2Fucy1zZXJpZiIgZmlsbD0iIzAwMDAwMCI+TXVsdGlwbGVWaWV3PC90ZXh0PjxsaW5lIHkyPSIxMTQ3IiB5MT0iMTE0NyIgeDI9IjEyMzMiIHgxPSIxMTExIiBzdHlsZT0ic3Ryb2tlOiNBODAwMzY7c3Ryb2tlLXdpZHRoOjEuMDsiLz48bGluZSB5Mj0iMTE1NSIgeTE9IjExNTUiIHgyPSIxMjMzIiB4MT0iMTExMSIgc3R5bGU9InN0cm9rZTojQTgwMDM2O3N0cm9rZS13aWR0aDoxLjA7Ii8+PC9nPjxnIGlkPSJlbGVtX1NoZWxmSW50ZXJmYWNlIj48cmVjdCB5PSI2NjMuNSIgeD0iMTk5NCIgd2lkdGg9IjEzMiIgc3R5bGU9InN0cm9rZTojQTgwMDM2O3N0cm9rZS13aWR0aDoxLjA7IiBpZD0iU2hlbGZJbnRlcmZhY2UiIGhlaWdodD0iNDgiIGZpbHRlcj0idXJsKCNmc3p6N29xaTl0aGQzKSIgZmlsbD0iI0ZFRkVDRSIvPjxlbGxpcHNlIHN0eWxlPSJzdHJva2U6I0E4MDAzNjtzdHJva2Utd2lkdGg6MS4wOyIgcnk9IjExIiByeD0iMTEiIGZpbGw9IiNCNEE3RTUiIGN5PSI2NzkuNSIgY3g9IjIwMDkiLz48cGF0aCBmaWxsPSIjMDAwMDAwIiBkPSJNMjAwOS45NTMxLDY3Ni4yODEzIEwyMDExLjY3MTksNjc2LjI4MTMgQzIwMTIuMDYyNSw2NzYuMjgxMyAyMDEyLjI1LDY3Ni4yNSAyMDEyLjM3NSw2NzYuMTcxOSBDMjAxMi42NDA2LDY3Ni4wMTU2IDIwMTIuNzgxMyw2NzUuNzM0NCAyMDEyLjc4MTMsNjc1LjQzNzUgQzIwMTIuNzgxMyw2NzUuMTcxOSAyMDEyLjY3MTksNjc0LjkwNjMgMjAxMi40Mzc1LDY3NC43MzQ0IEMyMDEyLjI2NTYsNjc0LjYyNSAyMDEyLjEyNSw2NzQuNTkzOCAyMDExLjY3MTksNjc0LjU5MzggTDIwMDYuNTMxMyw2NzQuNTkzOCBDMjAwNi4wOTM4LDY3NC41OTM4IDIwMDUuOTY4OCw2NzQuNjA5NCAyMDA1LjgxMjUsNjc0LjcwMzEgQzIwMDUuNTYyNSw2NzQuODU5NCAyMDA1LjQwNjMsNjc1LjE1NjMgMjAwNS40MDYzLDY3NS40Mzc1IEMyMDA1LjQwNjMsNjc1LjcxODggMjAwNS41NDY5LDY3NS45Njg4IDIwMDUuNzY1Niw2NzYuMTQwNiBDMjAwNS45MjE5LDY3Ni4yNSAyMDA2LjEwOTQsNjc2LjI4MTMgMjAwNi41MzEzLDY3Ni4yODEzIEwyMDA4LjI1LDY3Ni4yODEzIEwyMDA4LjI1LDY4Mi43OTY5IEwyMDA2LjUzMTMsNjgyLjc5NjkgQzIwMDYuMDkzOCw2ODIuNzk2OSAyMDA1Ljk2ODgsNjgyLjgxMjUgMjAwNS44MTI1LDY4Mi45MjE5IEMyMDA1LjU2MjUsNjgzLjA3ODEgMjAwNS40MDYzLDY4My4zNTk0IDIwMDUuNDA2Myw2ODMuNjU2MyBDMjAwNS40MDYzLDY4My45MDYzIDIwMDUuNTQ2OSw2ODQuMTcxOSAyMDA1Ljc2NTYsNjg0LjMyODEgQzIwMDUuOTIxOSw2ODQuNDUzMSAyMDA2LjEyNSw2ODQuNSAyMDA2LjUzMTMsNjg0LjUgTDIwMTEuNjcxOSw2ODQuNSBDMjAxMi40MjE5LDY4NC41IDIwMTIuNzgxMyw2ODQuMjE4OCAyMDEyLjc4MTMsNjgzLjY1NjMgQzIwMTIuNzgxMyw2ODMuMzc1IDIwMTIuNjcxOSw2ODMuMTI1IDIwMTIuNDM3NSw2ODIuOTUzMSBDMjAxMi4yNjU2LDY4Mi44MjgxIDIwMTIuMTI1LDY4Mi43OTY5IDIwMTEuNjcxOSw2ODIuNzk2OSBMMjAwOS45NTMxLDY4Mi43OTY5IEwyMDA5Ljk1MzEsNjc2LjI4MTMgWiIvPjx0ZXh0IHk9IjY4NC4zNDY3IiB4PSIyMDIzIiB0ZXh0TGVuZ3RoPSIxMDAiIGxlbmd0aEFkanVzdD0ic3BhY2luZyIgZm9udC1zdHlsZT0iaXRhbGljIiBmb250LXNpemU9IjE0IiBmb250LWZhbWlseT0ic2Fucy1zZXJpZiIgZmlsbD0iIzAwMDAwMCI+U2hlbGZJbnRlcmZhY2U8L3RleHQ+PGxpbmUgeTI9IjY5NS41IiB5MT0iNjk1LjUiIHgyPSIyMTI1IiB4MT0iMTk5NSIgc3R5bGU9InN0cm9rZTojQTgwMDM2O3N0cm9rZS13aWR0aDoxLjA7Ii8+PGxpbmUgeTI9IjcwMy41IiB5MT0iNzAzLjUiIHgyPSIyMTI1IiB4MT0iMTk5NSIgc3R5bGU9InN0cm9rZTojQTgwMDM2O3N0cm9rZS13aWR0aDoxLjA7Ii8+PC9nPjxnIGlkPSJlbGVtX1Njb3JlQm9hcmRJbnRlcmZhY2UiPjxyZWN0IHk9IjY2My41IiB4PSIyMTYxIiB3aWR0aD0iMTgwIiBzdHlsZT0ic3Ryb2tlOiNBODAwMzY7c3Ryb2tlLXdpZHRoOjEuMDsiIGlkPSJTY29yZUJvYXJkSW50ZXJmYWNlIiBoZWlnaHQ9IjQ4IiBmaWx0ZXI9InVybCgjZnN6ejdvcWk5dGhkMykiIGZpbGw9IiNGRUZFQ0UiLz48ZWxsaXBzZSBzdHlsZT0ic3Ryb2tlOiNBODAwMzY7c3Ryb2tlLXdpZHRoOjEuMDsiIHJ5PSIxMSIgcng9IjExIiBmaWxsPSIjQjRBN0U1IiBjeT0iNjc5LjUiIGN4PSIyMTc2Ii8+PHBhdGggZmlsbD0iIzAwMDAwMCIgZD0iTTIxNzYuOTUzMSw2NzYuMjgxMyBMMjE3OC42NzE5LDY3Ni4yODEzIEMyMTc5LjA2MjUsNjc2LjI4MTMgMjE3OS4yNSw2NzYuMjUgMjE3OS4zNzUsNjc2LjE3MTkgQzIxNzkuNjQwNiw2NzYuMDE1NiAyMTc5Ljc4MTMsNjc1LjczNDQgMjE3OS43ODEzLDY3NS40Mzc1IEMyMTc5Ljc4MTMsNjc1LjE3MTkgMjE3OS42NzE5LDY3NC45MDYzIDIxNzkuNDM3NSw2NzQuNzM0NCBDMjE3OS4yNjU2LDY3NC42MjUgMjE3OS4xMjUsNjc0LjU5MzggMjE3OC42NzE5LDY3NC41OTM4IEwyMTczLjUzMTMsNjc0LjU5MzggQzIxNzMuMDkzOCw2NzQuNTkzOCAyMTcyLjk2ODgsNjc0LjYwOTQgMjE3Mi44MTI1LDY3NC43MDMxIEMyMTcyLjU2MjUsNjc0Ljg1OTQgMjE3Mi40MDYzLDY3NS4xNTYzIDIxNzIuNDA2Myw2NzUuNDM3NSBDMjE3Mi40MDYzLDY3NS43MTg4IDIxNzIuNTQ2OSw2NzUuOTY4OCAyMTcyLjc2NTYsNjc2LjE0MDYgQzIxNzIuOTIxOSw2NzYuMjUgMjE3My4xMDk0LDY3Ni4yODEzIDIxNzMuNTMxMyw2NzYuMjgxMyBMMjE3NS4yNSw2NzYuMjgxMyBMMjE3NS4yNSw2ODIuNzk2OSBMMjE3My41MzEzLDY4Mi43OTY5IEMyMTczLjA5MzgsNjgyLjc5NjkgMjE3Mi45Njg4LDY4Mi44MTI1IDIxNzIuODEyNSw2ODIuOTIxOSBDMjE3Mi41NjI1LDY4My4wNzgxIDIxNzIuNDA2Myw2ODMuMzU5NCAyMTcyLjQwNjMsNjgzLjY1NjMgQzIxNzIuNDA2Myw2ODMuOTA2MyAyMTcyLjU0NjksNjg0LjE3MTkgMjE3Mi43NjU2LDY4NC4zMjgxIEMyMTcyLjkyMTksNjg0LjQ1MzEgMjE3My4xMjUsNjg0LjUgMjE3My41MzEzLDY4NC41IEwyMTc4LjY3MTksNjg0LjUgQzIxNzkuNDIxOSw2ODQuNSAyMTc5Ljc4MTMsNjg0LjIxODggMjE3OS43ODEzLDY4My42NTYzIEMyMTc5Ljc4MTMsNjgzLjM3NSAyMTc5LjY3MTksNjgzLjEyNSAyMTc5LjQzNzUsNjgyLjk1MzEgQzIxNzkuMjY1Niw2ODIuODI4MSAyMTc5LjEyNSw2ODIuNzk2OSAyMTc4LjY3MTksNjgyLjc5NjkgTDIxNzYuOTUzMSw2ODIuNzk2OSBMMjE3Ni45NTMxLDY3Ni4yODEzIFoiLz48dGV4dCB5PSI2ODQuMzQ2NyIgeD0iMjE5MCIgdGV4dExlbmd0aD0iMTQ4IiBsZW5ndGhBZGp1c3Q9InNwYWNpbmciIGZvbnQtc3R5bGU9Iml0YWxpYyIgZm9udC1zaXplPSIxNCIgZm9udC1mYW1pbHk9InNhbnMtc2VyaWYiIGZpbGw9IiMwMDAwMDAiPlNjb3JlQm9hcmRJbnRlcmZhY2U8L3RleHQ+PGxpbmUgeTI9IjY5NS41IiB5MT0iNjk1LjUiIHgyPSIyMzQwIiB4MT0iMjE2MiIgc3R5bGU9InN0cm9rZTojQTgwMDM2O3N0cm9rZS13aWR0aDoxLjA7Ii8+PGxpbmUgeTI9IjcwMy41IiB5MT0iNzAzLjUiIHgyPSIyMzQwIiB4MT0iMjE2MiIgc3R5bGU9InN0cm9rZTojQTgwMDM2O3N0cm9rZS13aWR0aDoxLjA7Ii8+PC9nPjxnIGlkPSJlbGVtX1JNSUNvbnRyb2xsZXJJbnRlcmZhY2UiPjxyZWN0IHk9IjY2My41IiB4PSI4NTkuNSIgd2lkdGg9IjE5MyIgc3R5bGU9InN0cm9rZTojQTgwMDM2O3N0cm9rZS13aWR0aDoxLjA7IiBpZD0iUk1JQ29udHJvbGxlckludGVyZmFjZSIgaGVpZ2h0PSI0OCIgZmlsdGVyPSJ1cmwoI2Zzeno3b3FpOXRoZDMpIiBmaWxsPSIjRkVGRUNFIi8+PGVsbGlwc2Ugc3R5bGU9InN0cm9rZTojQTgwMDM2O3N0cm9rZS13aWR0aDoxLjA7IiByeT0iMTEiIHJ4PSIxMSIgZmlsbD0iI0I0QTdFNSIgY3k9IjY3OS41IiBjeD0iODc0LjUiLz48cGF0aCBmaWxsPSIjMDAwMDAwIiBkPSJNODc1LjQ1MzEsNjc2LjI4MTMgTDg3Ny4xNzE5LDY3Ni4yODEzIEM4NzcuNTYyNSw2NzYuMjgxMyA4NzcuNzUsNjc2LjI1IDg3Ny44NzUsNjc2LjE3MTkgQzg3OC4xNDA2LDY3Ni4wMTU2IDg3OC4yODEzLDY3NS43MzQ0IDg3OC4yODEzLDY3NS40Mzc1IEM4NzguMjgxMyw2NzUuMTcxOSA4NzguMTcxOSw2NzQuOTA2MyA4NzcuOTM3NSw2NzQuNzM0NCBDODc3Ljc2NTYsNjc0LjYyNSA4NzcuNjI1LDY3NC41OTM4IDg3Ny4xNzE5LDY3NC41OTM4IEw4NzIuMDMxMyw2NzQuNTkzOCBDODcxLjU5MzgsNjc0LjU5MzggODcxLjQ2ODgsNjc0LjYwOTQgODcxLjMxMjUsNjc0LjcwMzEgQzg3MS4wNjI1LDY3NC44NTk0IDg3MC45MDYzLDY3NS4xNTYzIDg3MC45MDYzLDY3NS40Mzc1IEM4NzAuOTA2Myw2NzUuNzE4OCA4NzEuMDQ2OSw2NzUuOTY4OCA4NzEuMjY1Niw2NzYuMTQwNiBDODcxLjQyMTksNjc2LjI1IDg3MS42MDk0LDY3Ni4yODEzIDg3Mi4wMzEzLDY3Ni4yODEzIEw4NzMuNzUsNjc2LjI4MTMgTDg3My43NSw2ODIuNzk2OSBMODcyLjAzMTMsNjgyLjc5NjkgQzg3MS41OTM4LDY4Mi43OTY5IDg3MS40Njg4LDY4Mi44MTI1IDg3MS4zMTI1LDY4Mi45MjE5IEM4NzEuMDYyNSw2ODMuMDc4MSA4NzAuOTA2Myw2ODMuMzU5NCA4NzAuOTA2Myw2ODMuNjU2MyBDODcwLjkwNjMsNjgzLjkwNjMgODcxLjA0NjksNjg0LjE3MTkgODcxLjI2NTYsNjg0LjMyODEgQzg3MS40MjE5LDY4NC40NTMxIDg3MS42MjUsNjg0LjUgODcyLjAzMTMsNjg0LjUgTDg3Ny4xNzE5LDY4NC41IEM4NzcuOTIxOSw2ODQuNSA4NzguMjgxMyw2ODQuMjE4OCA4NzguMjgxMyw2ODMuNjU2MyBDODc4LjI4MTMsNjgzLjM3NSA4NzguMTcxOSw2ODMuMTI1IDg3Ny45Mzc1LDY4Mi45NTMxIEM4NzcuNzY1Niw2ODIuODI4MSA4NzcuNjI1LDY4Mi43OTY5IDg3Ny4xNzE5LDY4Mi43OTY5IEw4NzUuNDUzMSw2ODIuNzk2OSBMODc1LjQ1MzEsNjc2LjI4MTMgWiIvPjx0ZXh0IHk9IjY4NC4zNDY3IiB4PSI4ODguNSIgdGV4dExlbmd0aD0iMTYxIiBsZW5ndGhBZGp1c3Q9InNwYWNpbmciIGZvbnQtc3R5bGU9Iml0YWxpYyIgZm9udC1zaXplPSIxNCIgZm9udC1mYW1pbHk9InNhbnMtc2VyaWYiIGZpbGw9IiMwMDAwMDAiPlJNSUNvbnRyb2xsZXJJbnRlcmZhY2U8L3RleHQ+PGxpbmUgeTI9IjY5NS41IiB5MT0iNjk1LjUiIHgyPSIxMDUxLjUiIHgxPSI4NjAuNSIgc3R5bGU9InN0cm9rZTojQTgwMDM2O3N0cm9rZS13aWR0aDoxLjA7Ii8+PGxpbmUgeTI9IjcwMy41IiB5MT0iNzAzLjUiIHgyPSIxMDUxLjUiIHgxPSI4NjAuNSIgc3R5bGU9InN0cm9rZTojQTgwMDM2O3N0cm9rZS13aWR0aDoxLjA7Ii8+PC9nPjxnIGlkPSJlbGVtX0NsaWVudFN0YXR1c0ludGVyZmFjZSI+PHJlY3QgeT0iNjYzLjUiIHg9IjY0My41IiB3aWR0aD0iMTgxIiBzdHlsZT0ic3Ryb2tlOiNBODAwMzY7c3Ryb2tlLXdpZHRoOjEuMDsiIGlkPSJDbGllbnRTdGF0dXNJbnRlcmZhY2UiIGhlaWdodD0iNDgiIGZpbHRlcj0idXJsKCNmc3p6N29xaTl0aGQzKSIgZmlsbD0iI0ZFRkVDRSIvPjxlbGxpcHNlIHN0eWxlPSJzdHJva2U6I0E4MDAzNjtzdHJva2Utd2lkdGg6MS4wOyIgcnk9IjExIiByeD0iMTEiIGZpbGw9IiNCNEE3RTUiIGN5PSI2NzkuNSIgY3g9IjY1OC41Ii8+PHBhdGggZmlsbD0iIzAwMDAwMCIgZD0iTTY1OS40NTMxLDY3Ni4yODEzIEw2NjEuMTcxOSw2NzYuMjgxMyBDNjYxLjU2MjUsNjc2LjI4MTMgNjYxLjc1LDY3Ni4yNSA2NjEuODc1LDY3Ni4xNzE5IEM2NjIuMTQwNiw2NzYuMDE1NiA2NjIuMjgxMyw2NzUuNzM0NCA2NjIuMjgxMyw2NzUuNDM3NSBDNjYyLjI4MTMsNjc1LjE3MTkgNjYyLjE3MTksNjc0LjkwNjMgNjYxLjkzNzUsNjc0LjczNDQgQzY2MS43NjU2LDY3NC42MjUgNjYxLjYyNSw2NzQuNTkzOCA2NjEuMTcxOSw2NzQuNTkzOCBMNjU2LjAzMTMsNjc0LjU5MzggQzY1NS41OTM4LDY3NC41OTM4IDY1NS40Njg4LDY3NC42MDk0IDY1NS4zMTI1LDY3NC43MDMxIEM2NTUuMDYyNSw2NzQuODU5NCA2NTQuOTA2Myw2NzUuMTU2MyA2NTQuOTA2Myw2NzUuNDM3NSBDNjU0LjkwNjMsNjc1LjcxODggNjU1LjA0NjksNjc1Ljk2ODggNjU1LjI2NTYsNjc2LjE0MDYgQzY1NS40MjE5LDY3Ni4yNSA2NTUuNjA5NCw2NzYuMjgxMyA2NTYuMDMxMyw2NzYuMjgxMyBMNjU3Ljc1LDY3Ni4yODEzIEw2NTcuNzUsNjgyLjc5NjkgTDY1Ni4wMzEzLDY4Mi43OTY5IEM2NTUuNTkzOCw2ODIuNzk2OSA2NTUuNDY4OCw2ODIuODEyNSA2NTUuMzEyNSw2ODIuOTIxOSBDNjU1LjA2MjUsNjgzLjA3ODEgNjU0LjkwNjMsNjgzLjM1OTQgNjU0LjkwNjMsNjgzLjY1NjMgQzY1NC45MDYzLDY4My45MDYzIDY1NS4wNDY5LDY4NC4xNzE5IDY1NS4yNjU2LDY4NC4zMjgxIEM2NTUuNDIxOSw2ODQuNDUzMSA2NTUuNjI1LDY4NC41IDY1Ni4wMzEzLDY4NC41IEw2NjEuMTcxOSw2ODQuNSBDNjYxLjkyMTksNjg0LjUgNjYyLjI4MTMsNjg0LjIxODggNjYyLjI4MTMsNjgzLjY1NjMgQzY2Mi4yODEzLDY4My4zNzUgNjYyLjE3MTksNjgzLjEyNSA2NjEuOTM3NSw2ODIuOTUzMSBDNjYxLjc2NTYsNjgyLjgyODEgNjYxLjYyNSw2ODIuNzk2OSA2NjEuMTcxOSw2ODIuNzk2OSBMNjU5LjQ1MzEsNjgyLjc5NjkgTDY1OS40NTMxLDY3Ni4yODEzIFoiLz48dGV4dCB5PSI2ODQuMzQ2NyIgeD0iNjcyLjUiIHRleHRMZW5ndGg9IjE0OSIgbGVuZ3RoQWRqdXN0PSJzcGFjaW5nIiBmb250LXN0eWxlPSJpdGFsaWMiIGZvbnQtc2l6ZT0iMTQiIGZvbnQtZmFtaWx5PSJzYW5zLXNlcmlmIiBmaWxsPSIjMDAwMDAwIj5DbGllbnRTdGF0dXNJbnRlcmZhY2U8L3RleHQ+PGxpbmUgeTI9IjY5NS41IiB5MT0iNjk1LjUiIHgyPSI4MjMuNSIgeDE9IjY0NC41IiBzdHlsZT0ic3Ryb2tlOiNBODAwMzY7c3Ryb2tlLXdpZHRoOjEuMDsiLz48bGluZSB5Mj0iNzAzLjUiIHkxPSI3MDMuNSIgeDI9IjgyMy41IiB4MT0iNjQ0LjUiIHN0eWxlPSJzdHJva2U6I0E4MDAzNjtzdHJva2Utd2lkdGg6MS4wOyIvPjwvZz48ZyBpZD0iZWxlbV9PYmplY3RDYXJkSW50ZXJmYWNlIj48cmVjdCB5PSI2NjMuNSIgeD0iMjkwMiIgd2lkdGg9IjE3NiIgc3R5bGU9InN0cm9rZTojQTgwMDM2O3N0cm9rZS13aWR0aDoxLjA7IiBpZD0iT2JqZWN0Q2FyZEludGVyZmFjZSIgaGVpZ2h0PSI0OCIgZmlsdGVyPSJ1cmwoI2Zzeno3b3FpOXRoZDMpIiBmaWxsPSIjRkVGRUNFIi8+PGVsbGlwc2Ugc3R5bGU9InN0cm9rZTojQTgwMDM2O3N0cm9rZS13aWR0aDoxLjA7IiByeT0iMTEiIHJ4PSIxMSIgZmlsbD0iI0I0QTdFNSIgY3k9IjY3OS41IiBjeD0iMjkxNyIvPjxwYXRoIGZpbGw9IiMwMDAwMDAiIGQ9Ik0yOTE3Ljk1MzEsNjc2LjI4MTMgTDI5MTkuNjcxOSw2NzYuMjgxMyBDMjkyMC4wNjI1LDY3Ni4yODEzIDI5MjAuMjUsNjc2LjI1IDI5MjAuMzc1LDY3Ni4xNzE5IEMyOTIwLjY0MDYsNjc2LjAxNTYgMjkyMC43ODEzLDY3NS43MzQ0IDI5MjAuNzgxMyw2NzUuNDM3NSBDMjkyMC43ODEzLDY3NS4xNzE5IDI5MjAuNjcxOSw2NzQuOTA2MyAyOTIwLjQzNzUsNjc0LjczNDQgQzI5MjAuMjY1Niw2NzQuNjI1IDI5MjAuMTI1LDY3NC41OTM4IDI5MTkuNjcxOSw2NzQuNTkzOCBMMjkxNC41MzEzLDY3NC41OTM4IEMyOTE0LjA5MzgsNjc0LjU5MzggMjkxMy45Njg4LDY3NC42MDk0IDI5MTMuODEyNSw2NzQuNzAzMSBDMjkxMy41NjI1LDY3NC44NTk0IDI5MTMuNDA2Myw2NzUuMTU2MyAyOTEzLjQwNjMsNjc1LjQzNzUgQzI5MTMuNDA2Myw2NzUuNzE4OCAyOTEzLjU0NjksNjc1Ljk2ODggMjkxMy43NjU2LDY3Ni4xNDA2IEMyOTEzLjkyMTksNjc2LjI1IDI5MTQuMTA5NCw2NzYuMjgxMyAyOTE0LjUzMTMsNjc2LjI4MTMgTDI5MTYuMjUsNjc2LjI4MTMgTDI5MTYuMjUsNjgyLjc5NjkgTDI5MTQuNTMxMyw2ODIuNzk2OSBDMjkxNC4wOTM4LDY4Mi43OTY5IDI5MTMuOTY4OCw2ODIuODEyNSAyOTEzLjgxMjUsNjgyLjkyMTkgQzI5MTMuNTYyNSw2ODMuMDc4MSAyOTEzLjQwNjMsNjgzLjM1OTQgMjkxMy40MDYzLDY4My42NTYzIEMyOTEzLjQwNjMsNjgzLjkwNjMgMjkxMy41NDY5LDY4NC4xNzE5IDI5MTMuNzY1Niw2ODQuMzI4MSBDMjkxMy45MjE5LDY4NC40NTMxIDI5MTQuMTI1LDY4NC41IDI5MTQuNTMxMyw2ODQuNSBMMjkxOS42NzE5LDY4NC41IEMyOTIwLjQyMTksNjg0LjUgMjkyMC43ODEzLDY4NC4yMTg4IDI5MjAuNzgxMyw2ODMuNjU2MyBDMjkyMC43ODEzLDY4My4zNzUgMjkyMC42NzE5LDY4My4xMjUgMjkyMC40Mzc1LDY4Mi45NTMxIEMyOTIwLjI2NTYsNjgyLjgyODEgMjkyMC4xMjUsNjgyLjc5NjkgMjkxOS42NzE5LDY4Mi43OTY5IEwyOTE3Ljk1MzEsNjgyLjc5NjkgTDI5MTcuOTUzMSw2NzYuMjgxMyBaIi8+PHRleHQgeT0iNjg0LjM0NjciIHg9IjI5MzEiIHRleHRMZW5ndGg9IjE0NCIgbGVuZ3RoQWRqdXN0PSJzcGFjaW5nIiBmb250LXN0eWxlPSJpdGFsaWMiIGZvbnQtc2l6ZT0iMTQiIGZvbnQtZmFtaWx5PSJzYW5zLXNlcmlmIiBmaWxsPSIjMDAwMDAwIj5PYmplY3RDYXJkSW50ZXJmYWNlPC90ZXh0PjxsaW5lIHkyPSI2OTUuNSIgeTE9IjY5NS41IiB4Mj0iMzA3NyIgeDE9IjI5MDMiIHN0eWxlPSJzdHJva2U6I0E4MDAzNjtzdHJva2Utd2lkdGg6MS4wOyIvPjxsaW5lIHkyPSI3MDMuNSIgeTE9IjcwMy41IiB4Mj0iMzA3NyIgeDE9IjI5MDMiIHN0eWxlPSJzdHJva2U6I0E4MDAzNjtzdHJva2Utd2lkdGg6MS4wOyIvPjwvZz48ZyBpZD0iZWxlbV9TdGF0dXNJbnRlcm1lZGlhdGVJbnRlcmZhY2UiPjxyZWN0IHk9IjY2My41IiB4PSIyNjM1IiB3aWR0aD0iMjMyIiBzdHlsZT0ic3Ryb2tlOiNBODAwMzY7c3Ryb2tlLXdpZHRoOjEuMDsiIGlkPSJTdGF0dXNJbnRlcm1lZGlhdGVJbnRlcmZhY2UiIGhlaWdodD0iNDgiIGZpbHRlcj0idXJsKCNmc3p6N29xaTl0aGQzKSIgZmlsbD0iI0ZFRkVDRSIvPjxlbGxpcHNlIHN0eWxlPSJzdHJva2U6I0E4MDAzNjtzdHJva2Utd2lkdGg6MS4wOyIgcnk9IjExIiByeD0iMTEiIGZpbGw9IiNCNEE3RTUiIGN5PSI2NzkuNSIgY3g9IjI2NTAiLz48cGF0aCBmaWxsPSIjMDAwMDAwIiBkPSJNMjY1MC45NTMxLDY3Ni4yODEzIEwyNjUyLjY3MTksNjc2LjI4MTMgQzI2NTMuMDYyNSw2NzYuMjgxMyAyNjUzLjI1LDY3Ni4yNSAyNjUzLjM3NSw2NzYuMTcxOSBDMjY1My42NDA2LDY3Ni4wMTU2IDI2NTMuNzgxMyw2NzUuNzM0NCAyNjUzLjc4MTMsNjc1LjQzNzUgQzI2NTMuNzgxMyw2NzUuMTcxOSAyNjUzLjY3MTksNjc0LjkwNjMgMjY1My40Mzc1LDY3NC43MzQ0IEMyNjUzLjI2NTYsNjc0LjYyNSAyNjUzLjEyNSw2NzQuNTkzOCAyNjUyLjY3MTksNjc0LjU5MzggTDI2NDcuNTMxMyw2NzQuNTkzOCBDMjY0Ny4wOTM4LDY3NC41OTM4IDI2NDYuOTY4OCw2NzQuNjA5NCAyNjQ2LjgxMjUsNjc0LjcwMzEgQzI2NDYuNTYyNSw2NzQuODU5NCAyNjQ2LjQwNjMsNjc1LjE1NjMgMjY0Ni40MDYzLDY3NS40Mzc1IEMyNjQ2LjQwNjMsNjc1LjcxODggMjY0Ni41NDY5LDY3NS45Njg4IDI2NDYuNzY1Niw2NzYuMTQwNiBDMjY0Ni45MjE5LDY3Ni4yNSAyNjQ3LjEwOTQsNjc2LjI4MTMgMjY0Ny41MzEzLDY3Ni4yODEzIEwyNjQ5LjI1LDY3Ni4yODEzIEwyNjQ5LjI1LDY4Mi43OTY5IEwyNjQ3LjUzMTMsNjgyLjc5NjkgQzI2NDcuMDkzOCw2ODIuNzk2OSAyNjQ2Ljk2ODgsNjgyLjgxMjUgMjY0Ni44MTI1LDY4Mi45MjE5IEMyNjQ2LjU2MjUsNjgzLjA3ODEgMjY0Ni40MDYzLDY4My4zNTk0IDI2NDYuNDA2Myw2ODMuNjU2MyBDMjY0Ni40MDYzLDY4My45MDYzIDI2NDYuNTQ2OSw2ODQuMTcxOSAyNjQ2Ljc2NTYsNjg0LjMyODEgQzI2NDYuOTIxOSw2ODQuNDUzMSAyNjQ3LjEyNSw2ODQuNSAyNjQ3LjUzMTMsNjg0LjUgTDI2NTIuNjcxOSw2ODQuNSBDMjY1My40MjE5LDY4NC41IDI2NTMuNzgxMyw2ODQuMjE4OCAyNjUzLjc4MTMsNjgzLjY1NjMgQzI2NTMuNzgxMyw2ODMuMzc1IDI2NTMuNjcxOSw2ODMuMTI1IDI2NTMuNDM3NSw2ODIuOTUzMSBDMjY1My4yNjU2LDY4Mi44MjgxIDI2NTMuMTI1LDY4Mi43OTY5IDI2NTIuNjcxOSw2ODIuNzk2OSBMMjY1MC45NTMxLDY4Mi43OTY5IEwyNjUwLjk1MzEsNjc2LjI4MTMgWiIvPjx0ZXh0IHk9IjY4NC4zNDY3IiB4PSIyNjY0IiB0ZXh0TGVuZ3RoPSIyMDAiIGxlbmd0aEFkanVzdD0ic3BhY2luZyIgZm9udC1zdHlsZT0iaXRhbGljIiBmb250LXNpemU9IjE0IiBmb250LWZhbWlseT0ic2Fucy1zZXJpZiIgZmlsbD0iIzAwMDAwMCI+U3RhdHVzSW50ZXJtZWRpYXRlSW50ZXJmYWNlPC90ZXh0PjxsaW5lIHkyPSI2OTUuNSIgeTE9IjY5NS41IiB4Mj0iMjg2NiIgeDE9IjI2MzYiIHN0eWxlPSJzdHJva2U6I0E4MDAzNjtzdHJva2Utd2lkdGg6MS4wOyIvPjxsaW5lIHkyPSI3MDMuNSIgeTE9IjcwMy41IiB4Mj0iMjg2NiIgeDE9IjI2MzYiIHN0eWxlPSJzdHJva2U6I0E4MDAzNjtzdHJva2Utd2lkdGg6MS4wOyIvPjwvZz48ZyBpZD0iZWxlbV9Nb3ZlSW50ZXJtZWRpYXRlSW50ZXJmYWNlIj48cmVjdCB5PSI2NjMuNSIgeD0iMTA4OCIgd2lkdGg9IjIyNiIgc3R5bGU9InN0cm9rZTojQTgwMDM2O3N0cm9rZS13aWR0aDoxLjA7IiBpZD0iTW92ZUludGVybWVkaWF0ZUludGVyZmFjZSIgaGVpZ2h0PSI0OCIgZmlsdGVyPSJ1cmwoI2Zzeno3b3FpOXRoZDMpIiBmaWxsPSIjRkVGRUNFIi8+PGVsbGlwc2Ugc3R5bGU9InN0cm9rZTojQTgwMDM2O3N0cm9rZS13aWR0aDoxLjA7IiByeT0iMTEiIHJ4PSIxMSIgZmlsbD0iI0I0QTdFNSIgY3k9IjY3OS41IiBjeD0iMTEwMyIvPjxwYXRoIGZpbGw9IiMwMDAwMDAiIGQ9Ik0xMTAzLjk1MzEsNjc2LjI4MTMgTDExMDUuNjcxOSw2NzYuMjgxMyBDMTEwNi4wNjI1LDY3Ni4yODEzIDExMDYuMjUsNjc2LjI1IDExMDYuMzc1LDY3Ni4xNzE5IEMxMTA2LjY0MDYsNjc2LjAxNTYgMTEwNi43ODEzLDY3NS43MzQ0IDExMDYuNzgxMyw2NzUuNDM3NSBDMTEwNi43ODEzLDY3NS4xNzE5IDExMDYuNjcxOSw2NzQuOTA2MyAxMTA2LjQzNzUsNjc0LjczNDQgQzExMDYuMjY1Niw2NzQuNjI1IDExMDYuMTI1LDY3NC41OTM4IDExMDUuNjcxOSw2NzQuNTkzOCBMMTEwMC41MzEzLDY3NC41OTM4IEMxMTAwLjA5MzgsNjc0LjU5MzggMTA5OS45Njg4LDY3NC42MDk0IDEwOTkuODEyNSw2NzQuNzAzMSBDMTA5OS41NjI1LDY3NC44NTk0IDEwOTkuNDA2Myw2NzUuMTU2MyAxMDk5LjQwNjMsNjc1LjQzNzUgQzEwOTkuNDA2Myw2NzUuNzE4OCAxMDk5LjU0NjksNjc1Ljk2ODggMTA5OS43NjU2LDY3Ni4xNDA2IEMxMDk5LjkyMTksNjc2LjI1IDExMDAuMTA5NCw2NzYuMjgxMyAxMTAwLjUzMTMsNjc2LjI4MTMgTDExMDIuMjUsNjc2LjI4MTMgTDExMDIuMjUsNjgyLjc5NjkgTDExMDAuNTMxMyw2ODIuNzk2OSBDMTEwMC4wOTM4LDY4Mi43OTY5IDEwOTkuOTY4OCw2ODIuODEyNSAxMDk5LjgxMjUsNjgyLjkyMTkgQzEwOTkuNTYyNSw2ODMuMDc4MSAxMDk5LjQwNjMsNjgzLjM1OTQgMTA5OS40MDYzLDY4My42NTYzIEMxMDk5LjQwNjMsNjgzLjkwNjMgMTA5OS41NDY5LDY4NC4xNzE5IDEwOTkuNzY1Niw2ODQuMzI4MSBDMTA5OS45MjE5LDY4NC40NTMxIDExMDAuMTI1LDY4NC41IDExMDAuNTMxMyw2ODQuNSBMMTEwNS42NzE5LDY4NC41IEMxMTA2LjQyMTksNjg0LjUgMTEwNi43ODEzLDY4NC4yMTg4IDExMDYuNzgxMyw2ODMuNjU2MyBDMTEwNi43ODEzLDY4My4zNzUgMTEwNi42NzE5LDY4My4xMjUgMTEwNi40Mzc1LDY4Mi45NTMxIEMxMTA2LjI2NTYsNjgyLjgyODEgMTEwNi4xMjUsNjgyLjc5NjkgMTEwNS42NzE5LDY4Mi43OTY5IEwxMTAzLjk1MzEsNjgyLjc5NjkgTDExMDMuOTUzMSw2NzYuMjgxMyBaIi8+PHRleHQgeT0iNjg0LjM0NjciIHg9IjExMTciIHRleHRMZW5ndGg9IjE5NCIgbGVuZ3RoQWRqdXN0PSJzcGFjaW5nIiBmb250LXN0eWxlPSJpdGFsaWMiIGZvbnQtc2l6ZT0iMTQiIGZvbnQtZmFtaWx5PSJzYW5zLXNlcmlmIiBmaWxsPSIjMDAwMDAwIj5Nb3ZlSW50ZXJtZWRpYXRlSW50ZXJmYWNlPC90ZXh0PjxsaW5lIHkyPSI2OTUuNSIgeTE9IjY5NS41IiB4Mj0iMTMxMyIgeDE9IjEwODkiIHN0eWxlPSJzdHJva2U6I0E4MDAzNjtzdHJva2Utd2lkdGg6MS4wOyIvPjxsaW5lIHkyPSI3MDMuNSIgeTE9IjcwMy41IiB4Mj0iMTMxMyIgeDE9IjEwODkiIHN0eWxlPSJzdHJva2U6I0E4MDAzNjtzdHJva2Utd2lkdGg6MS4wOyIvPjwvZz48ZyBpZD0iZWxlbV9Db21tb25Hb2FsQ2FyZEludGVyZmFjZSI+PHJlY3QgeT0iNjYzLjUiIHg9IjE1NTYiIHdpZHRoPSIyMjgiIHN0eWxlPSJzdHJva2U6I0E4MDAzNjtzdHJva2Utd2lkdGg6MS4wOyIgaWQ9IkNvbW1vbkdvYWxDYXJkSW50ZXJmYWNlIiBoZWlnaHQ9IjQ4IiBmaWx0ZXI9InVybCgjZnN6ejdvcWk5dGhkMykiIGZpbGw9IiNGRUZFQ0UiLz48ZWxsaXBzZSBzdHlsZT0ic3Ryb2tlOiNBODAwMzY7c3Ryb2tlLXdpZHRoOjEuMDsiIHJ5PSIxMSIgcng9IjExIiBmaWxsPSIjQjRBN0U1IiBjeT0iNjc5LjUiIGN4PSIxNTcxIi8+PHBhdGggZmlsbD0iIzAwMDAwMCIgZD0iTTE1NzEuOTUzMSw2NzYuMjgxMyBMMTU3My42NzE5LDY3Ni4yODEzIEMxNTc0LjA2MjUsNjc2LjI4MTMgMTU3NC4yNSw2NzYuMjUgMTU3NC4zNzUsNjc2LjE3MTkgQzE1NzQuNjQwNiw2NzYuMDE1NiAxNTc0Ljc4MTMsNjc1LjczNDQgMTU3NC43ODEzLDY3NS40Mzc1IEMxNTc0Ljc4MTMsNjc1LjE3MTkgMTU3NC42NzE5LDY3NC45MDYzIDE1NzQuNDM3NSw2NzQuNzM0NCBDMTU3NC4yNjU2LDY3NC42MjUgMTU3NC4xMjUsNjc0LjU5MzggMTU3My42NzE5LDY3NC41OTM4IEwxNTY4LjUzMTMsNjc0LjU5MzggQzE1NjguMDkzOCw2NzQuNTkzOCAxNTY3Ljk2ODgsNjc0LjYwOTQgMTU2Ny44MTI1LDY3NC43MDMxIEMxNTY3LjU2MjUsNjc0Ljg1OTQgMTU2Ny40MDYzLDY3NS4xNTYzIDE1NjcuNDA2Myw2NzUuNDM3NSBDMTU2Ny40MDYzLDY3NS43MTg4IDE1NjcuNTQ2OSw2NzUuOTY4OCAxNTY3Ljc2NTYsNjc2LjE0MDYgQzE1NjcuOTIxOSw2NzYuMjUgMTU2OC4xMDk0LDY3Ni4yODEzIDE1NjguNTMxMyw2NzYuMjgxMyBMMTU3MC4yNSw2NzYuMjgxMyBMMTU3MC4yNSw2ODIuNzk2OSBMMTU2OC41MzEzLDY4Mi43OTY5IEMxNTY4LjA5MzgsNjgyLjc5NjkgMTU2Ny45Njg4LDY4Mi44MTI1IDE1NjcuODEyNSw2ODIuOTIxOSBDMTU2Ny41NjI1LDY4My4wNzgxIDE1NjcuNDA2Myw2ODMuMzU5NCAxNTY3LjQwNjMsNjgzLjY1NjMgQzE1NjcuNDA2Myw2ODMuOTA2MyAxNTY3LjU0NjksNjg0LjE3MTkgMTU2Ny43NjU2LDY4NC4zMjgxIEMxNTY3LjkyMTksNjg0LjQ1MzEgMTU2OC4xMjUsNjg0LjUgMTU2OC41MzEzLDY4NC41IEwxNTczLjY3MTksNjg0LjUgQzE1NzQuNDIxOSw2ODQuNSAxNTc0Ljc4MTMsNjg0LjIxODggMTU3NC43ODEzLDY4My42NTYzIEMxNTc0Ljc4MTMsNjgzLjM3NSAxNTc0LjY3MTksNjgzLjEyNSAxNTc0LjQzNzUsNjgyLjk1MzEgQzE1NzQuMjY1Niw2ODIuODI4MSAxNTc0LjEyNSw2ODIuNzk2OSAxNTczLjY3MTksNjgyLjc5NjkgTDE1NzEuOTUzMSw2ODIuNzk2OSBMMTU3MS45NTMxLDY3Ni4yODEzIFoiLz48dGV4dCB5PSI2ODQuMzQ2NyIgeD0iMTU4NSIgdGV4dExlbmd0aD0iMTk2IiBsZW5ndGhBZGp1c3Q9InNwYWNpbmciIGZvbnQtc3R5bGU9Iml0YWxpYyIgZm9udC1zaXplPSIxNCIgZm9udC1mYW1pbHk9InNhbnMtc2VyaWYiIGZpbGw9IiMwMDAwMDAiPkNvbW1vbkdvYWxDYXJkSW50ZXJmYWNlPC90ZXh0PjxsaW5lIHkyPSI2OTUuNSIgeTE9IjY5NS41IiB4Mj0iMTc4MyIgeDE9IjE1NTciIHN0eWxlPSJzdHJva2U6I0E4MDAzNjtzdHJva2Utd2lkdGg6MS4wOyIvPjxsaW5lIHkyPSI3MDMuNSIgeTE9IjcwMy41IiB4Mj0iMTc4MyIgeDE9IjE1NTciIHN0eWxlPSJzdHJva2U6I0E4MDAzNjtzdHJva2Utd2lkdGg6MS4wOyIvPjwvZz48ZyBpZD0iZWxlbV9TY29yZUNhcmRJbnRlcmZhY2UiPjxyZWN0IHk9IjY2My41IiB4PSIxMzQ5LjUiIHdpZHRoPSIxNzEiIHN0eWxlPSJzdHJva2U6I0E4MDAzNjtzdHJva2Utd2lkdGg6MS4wOyIgaWQ9IlNjb3JlQ2FyZEludGVyZmFjZSIgaGVpZ2h0PSI0OCIgZmlsdGVyPSJ1cmwoI2Zzeno3b3FpOXRoZDMpIiBmaWxsPSIjRkVGRUNFIi8+PGVsbGlwc2Ugc3R5bGU9InN0cm9rZTojQTgwMDM2O3N0cm9rZS13aWR0aDoxLjA7IiByeT0iMTEiIHJ4PSIxMSIgZmlsbD0iI0I0QTdFNSIgY3k9IjY3OS41IiBjeD0iMTM2NC41Ii8+PHBhdGggZmlsbD0iIzAwMDAwMCIgZD0iTTEzNjUuNDUzMSw2NzYuMjgxMyBMMTM2Ny4xNzE5LDY3Ni4yODEzIEMxMzY3LjU2MjUsNjc2LjI4MTMgMTM2Ny43NSw2NzYuMjUgMTM2Ny44NzUsNjc2LjE3MTkgQzEzNjguMTQwNiw2NzYuMDE1NiAxMzY4LjI4MTMsNjc1LjczNDQgMTM2OC4yODEzLDY3NS40Mzc1IEMxMzY4LjI4MTMsNjc1LjE3MTkgMTM2OC4xNzE5LDY3NC45MDYzIDEzNjcuOTM3NSw2NzQuNzM0NCBDMTM2Ny43NjU2LDY3NC42MjUgMTM2Ny42MjUsNjc0LjU5MzggMTM2Ny4xNzE5LDY3NC41OTM4IEwxMzYyLjAzMTMsNjc0LjU5MzggQzEzNjEuNTkzOCw2NzQuNTkzOCAxMzYxLjQ2ODgsNjc0LjYwOTQgMTM2MS4zMTI1LDY3NC43MDMxIEMxMzYxLjA2MjUsNjc0Ljg1OTQgMTM2MC45MDYzLDY3NS4xNTYzIDEzNjAuOTA2Myw2NzUuNDM3NSBDMTM2MC45MDYzLDY3NS43MTg4IDEzNjEuMDQ2OSw2NzUuOTY4OCAxMzYxLjI2NTYsNjc2LjE0MDYgQzEzNjEuNDIxOSw2NzYuMjUgMTM2MS42MDk0LDY3Ni4yODEzIDEzNjIuMDMxMyw2NzYuMjgxMyBMMTM2My43NSw2NzYuMjgxMyBMMTM2My43NSw2ODIuNzk2OSBMMTM2Mi4wMzEzLDY4Mi43OTY5IEMxMzYxLjU5MzgsNjgyLjc5NjkgMTM2MS40Njg4LDY4Mi44MTI1IDEzNjEuMzEyNSw2ODIuOTIxOSBDMTM2MS4wNjI1LDY4My4wNzgxIDEzNjAuOTA2Myw2ODMuMzU5NCAxMzYwLjkwNjMsNjgzLjY1NjMgQzEzNjAuOTA2Myw2ODMuOTA2MyAxMzYxLjA0NjksNjg0LjE3MTkgMTM2MS4yNjU2LDY4NC4zMjgxIEMxMzYxLjQyMTksNjg0LjQ1MzEgMTM2MS42MjUsNjg0LjUgMTM2Mi4wMzEzLDY4NC41IEwxMzY3LjE3MTksNjg0LjUgQzEzNjcuOTIxOSw2ODQuNSAxMzY4LjI4MTMsNjg0LjIxODggMTM2OC4yODEzLDY4My42NTYzIEMxMzY4LjI4MTMsNjgzLjM3NSAxMzY4LjE3MTksNjgzLjEyNSAxMzY3LjkzNzUsNjgyLjk1MzEgQzEzNjcuNzY1Niw2ODIuODI4MSAxMzY3LjYyNSw2ODIuNzk2OSAxMzY3LjE3MTksNjgyLjc5NjkgTDEzNjUuNDUzMSw2ODIuNzk2OSBMMTM2NS40NTMxLDY3Ni4yODEzIFoiLz48dGV4dCB5PSI2ODQuMzQ2NyIgeD0iMTM3OC41IiB0ZXh0TGVuZ3RoPSIxMzkiIGxlbmd0aEFkanVzdD0ic3BhY2luZyIgZm9udC1zdHlsZT0iaXRhbGljIiBmb250LXNpemU9IjE0IiBmb250LWZhbWlseT0ic2Fucy1zZXJpZiIgZmlsbD0iIzAwMDAwMCI+U2NvcmVDYXJkSW50ZXJmYWNlPC90ZXh0PjxsaW5lIHkyPSI2OTUuNSIgeTE9IjY5NS41IiB4Mj0iMTUxOS41IiB4MT0iMTM1MC41IiBzdHlsZT0ic3Ryb2tlOiNBODAwMzY7c3Ryb2tlLXdpZHRoOjEuMDsiLz48bGluZSB5Mj0iNzAzLjUiIHkxPSI3MDMuNSIgeDI9IjE1MTkuNSIgeDE9IjEzNTAuNSIgc3R5bGU9InN0cm9rZTojQTgwMDM2O3N0cm9rZS13aWR0aDoxLjA7Ii8+PC9nPjxnIGlkPSJlbGVtX0JvYXJkSW50ZXJmYWNlIj48cmVjdCB5PSI2NjMuNSIgeD0iMTgxOS41IiB3aWR0aD0iMTM5IiBzdHlsZT0ic3Ryb2tlOiNBODAwMzY7c3Ryb2tlLXdpZHRoOjEuMDsiIGlkPSJCb2FyZEludGVyZmFjZSIgaGVpZ2h0PSI0OCIgZmlsdGVyPSJ1cmwoI2Zzeno3b3FpOXRoZDMpIiBmaWxsPSIjRkVGRUNFIi8+PGVsbGlwc2Ugc3R5bGU9InN0cm9rZTojQTgwMDM2O3N0cm9rZS13aWR0aDoxLjA7IiByeT0iMTEiIHJ4PSIxMSIgZmlsbD0iI0I0QTdFNSIgY3k9IjY3OS41IiBjeD0iMTgzNC41Ii8+PHBhdGggZmlsbD0iIzAwMDAwMCIgZD0iTTE4MzUuNDUzMSw2NzYuMjgxMyBMMTgzNy4xNzE5LDY3Ni4yODEzIEMxODM3LjU2MjUsNjc2LjI4MTMgMTgzNy43NSw2NzYuMjUgMTgzNy44NzUsNjc2LjE3MTkgQzE4MzguMTQwNiw2NzYuMDE1NiAxODM4LjI4MTMsNjc1LjczNDQgMTgzOC4yODEzLDY3NS40Mzc1IEMxODM4LjI4MTMsNjc1LjE3MTkgMTgzOC4xNzE5LDY3NC45MDYzIDE4MzcuOTM3NSw2NzQuNzM0NCBDMTgzNy43NjU2LDY3NC42MjUgMTgzNy42MjUsNjc0LjU5MzggMTgzNy4xNzE5LDY3NC41OTM4IEwxODMyLjAzMTMsNjc0LjU5MzggQzE4MzEuNTkzOCw2NzQuNTkzOCAxODMxLjQ2ODgsNjc0LjYwOTQgMTgzMS4zMTI1LDY3NC43MDMxIEMxODMxLjA2MjUsNjc0Ljg1OTQgMTgzMC45MDYzLDY3NS4xNTYzIDE4MzAuOTA2Myw2NzUuNDM3NSBDMTgzMC45MDYzLDY3NS43MTg4IDE4MzEuMDQ2OSw2NzUuOTY4OCAxODMxLjI2NTYsNjc2LjE0MDYgQzE4MzEuNDIxOSw2NzYuMjUgMTgzMS42MDk0LDY3Ni4yODEzIDE4MzIuMDMxMyw2NzYuMjgxMyBMMTgzMy43NSw2NzYuMjgxMyBMMTgzMy43NSw2ODIuNzk2OSBMMTgzMi4wMzEzLDY4Mi43OTY5IEMxODMxLjU5MzgsNjgyLjc5NjkgMTgzMS40Njg4LDY4Mi44MTI1IDE4MzEuMzEyNSw2ODIuOTIxOSBDMTgzMS4wNjI1LDY4My4wNzgxIDE4MzAuOTA2Myw2ODMuMzU5NCAxODMwLjkwNjMsNjgzLjY1NjMgQzE4MzAuOTA2Myw2ODMuOTA2MyAxODMxLjA0NjksNjg0LjE3MTkgMTgzMS4yNjU2LDY4NC4zMjgxIEMxODMxLjQyMTksNjg0LjQ1MzEgMTgzMS42MjUsNjg0LjUgMTgzMi4wMzEzLDY4NC41IEwxODM3LjE3MTksNjg0LjUgQzE4MzcuOTIxOSw2ODQuNSAxODM4LjI4MTMsNjg0LjIxODggMTgzOC4yODEzLDY4My42NTYzIEMxODM4LjI4MTMsNjgzLjM3NSAxODM4LjE3MTksNjgzLjEyNSAxODM3LjkzNzUsNjgyLjk1MzEgQzE4MzcuNzY1Niw2ODIuODI4MSAxODM3LjYyNSw2ODIuNzk2OSAxODM3LjE3MTksNjgyLjc5NjkgTDE4MzUuNDUzMSw2ODIuNzk2OSBMMTgzNS40NTMxLDY3Ni4yODEzIFoiLz48dGV4dCB5PSI2ODQuMzQ2NyIgeD0iMTg0OC41IiB0ZXh0TGVuZ3RoPSIxMDciIGxlbmd0aEFkanVzdD0ic3BhY2luZyIgZm9udC1zdHlsZT0iaXRhbGljIiBmb250LXNpemU9IjE0IiBmb250LWZhbWlseT0ic2Fucy1zZXJpZiIgZmlsbD0iIzAwMDAwMCI+Qm9hcmRJbnRlcmZhY2U8L3RleHQ+PGxpbmUgeTI9IjY5NS41IiB5MT0iNjk1LjUiIHgyPSIxOTU3LjUiIHgxPSIxODIwLjUiIHN0eWxlPSJzdHJva2U6I0E4MDAzNjtzdHJva2Utd2lkdGg6MS4wOyIvPjxsaW5lIHkyPSI3MDMuNSIgeTE9IjcwMy41IiB4Mj0iMTk1Ny41IiB4MT0iMTgyMC41IiBzdHlsZT0ic3Ryb2tlOiNBODAwMzY7c3Ryb2tlLXdpZHRoOjEuMDsiLz48L2c+PGcgaWQ9ImVsZW1fUGVyc29uYWxHb2FsQ2FyZEludGVyZmFjZSI+PHJlY3QgeT0iNjYzLjUiIHg9IjIzNzYiIHdpZHRoPSIyMjQiIHN0eWxlPSJzdHJva2U6I0E4MDAzNjtzdHJva2Utd2lkdGg6MS4wOyIgaWQ9IlBlcnNvbmFsR29hbENhcmRJbnRlcmZhY2UiIGhlaWdodD0iNDgiIGZpbHRlcj0idXJsKCNmc3p6N29xaTl0aGQzKSIgZmlsbD0iI0ZFRkVDRSIvPjxlbGxpcHNlIHN0eWxlPSJzdHJva2U6I0E4MDAzNjtzdHJva2Utd2lkdGg6MS4wOyIgcnk9IjExIiByeD0iMTEiIGZpbGw9IiNCNEE3RTUiIGN5PSI2NzkuNSIgY3g9IjIzOTEiLz48cGF0aCBmaWxsPSIjMDAwMDAwIiBkPSJNMjM5MS45NTMxLDY3Ni4yODEzIEwyMzkzLjY3MTksNjc2LjI4MTMgQzIzOTQuMDYyNSw2NzYuMjgxMyAyMzk0LjI1LDY3Ni4yNSAyMzk0LjM3NSw2NzYuMTcxOSBDMjM5NC42NDA2LDY3Ni4wMTU2IDIzOTQuNzgxMyw2NzUuNzM0NCAyMzk0Ljc4MTMsNjc1LjQzNzUgQzIzOTQuNzgxMyw2NzUuMTcxOSAyMzk0LjY3MTksNjc0LjkwNjMgMjM5NC40Mzc1LDY3NC43MzQ0IEMyMzk0LjI2NTYsNjc0LjYyNSAyMzk0LjEyNSw2NzQuNTkzOCAyMzkzLjY3MTksNjc0LjU5MzggTDIzODguNTMxMyw2NzQuNTkzOCBDMjM4OC4wOTM4LDY3NC41OTM4IDIzODcuOTY4OCw2NzQuNjA5NCAyMzg3LjgxMjUsNjc0LjcwMzEgQzIzODcuNTYyNSw2NzQuODU5NCAyMzg3LjQwNjMsNjc1LjE1NjMgMjM4Ny40MDYzLDY3NS40Mzc1IEMyMzg3LjQwNjMsNjc1LjcxODggMjM4Ny41NDY5LDY3NS45Njg4IDIzODcuNzY1Niw2NzYuMTQwNiBDMjM4Ny45MjE5LDY3Ni4yNSAyMzg4LjEwOTQsNjc2LjI4MTMgMjM4OC41MzEzLDY3Ni4yODEzIEwyMzkwLjI1LDY3Ni4yODEzIEwyMzkwLjI1LDY4Mi43OTY5IEwyMzg4LjUzMTMsNjgyLjc5NjkgQzIzODguMDkzOCw2ODIuNzk2OSAyMzg3Ljk2ODgsNjgyLjgxMjUgMjM4Ny44MTI1LDY4Mi45MjE5IEMyMzg3LjU2MjUsNjgzLjA3ODEgMjM4Ny40MDYzLDY4My4zNTk0IDIzODcuNDA2Myw2ODMuNjU2MyBDMjM4Ny40MDYzLDY4My45MDYzIDIzODcuNTQ2OSw2ODQuMTcxOSAyMzg3Ljc2NTYsNjg0LjMyODEgQzIzODcuOTIxOSw2ODQuNDUzMSAyMzg4LjEyNSw2ODQuNSAyMzg4LjUzMTMsNjg0LjUgTDIzOTMuNjcxOSw2ODQuNSBDMjM5NC40MjE5LDY4NC41IDIzOTQuNzgxMyw2ODQuMjE4OCAyMzk0Ljc4MTMsNjgzLjY1NjMgQzIzOTQuNzgxMyw2ODMuMzc1IDIzOTQuNjcxOSw2ODMuMTI1IDIzOTQuNDM3NSw2ODIuOTUzMSBDMjM5NC4yNjU2LDY4Mi44MjgxIDIzOTQuMTI1LDY4Mi43OTY5IDIzOTMuNjcxOSw2ODIuNzk2OSBMMjM5MS45NTMxLDY4Mi43OTY5IEwyMzkxLjk1MzEsNjc2LjI4MTMgWiIvPjx0ZXh0IHk9IjY4NC4zNDY3IiB4PSIyNDA1IiB0ZXh0TGVuZ3RoPSIxOTIiIGxlbmd0aEFkanVzdD0ic3BhY2luZyIgZm9udC1zdHlsZT0iaXRhbGljIiBmb250LXNpemU9IjE0IiBmb250LWZhbWlseT0ic2Fucy1zZXJpZiIgZmlsbD0iIzAwMDAwMCI+UGVyc29uYWxHb2FsQ2FyZEludGVyZmFjZTwvdGV4dD48bGluZSB5Mj0iNjk1LjUiIHkxPSI2OTUuNSIgeDI9IjI1OTkiIHgxPSIyMzc3IiBzdHlsZT0ic3Ryb2tlOiNBODAwMzY7c3Ryb2tlLXdpZHRoOjEuMDsiLz48bGluZSB5Mj0iNzAzLjUiIHkxPSI3MDMuNSIgeDI9IjI1OTkiIHgxPSIyMzc3IiBzdHlsZT0ic3Ryb2tlOiNBODAwMzY7c3Ryb2tlLXdpZHRoOjEuMDsiLz48L2c+PGcgaWQ9ImVsZW1fU3RhdHVzIj48cmVjdCB5PSI0MjciIHg9IjI5OS41IiB3aWR0aD0iMzA5IiBzdHlsZT0ic3Ryb2tlOiNBODAwMzY7c3Ryb2tlLXdpZHRoOjEuMDsiIGlkPSJTdGF0dXMiIGhlaWdodD0iNTIwLjYwOTQiIGZpbHRlcj0idXJsKCNmc3p6N29xaTl0aGQzKSIgZmlsbD0iI0ZFRkVDRSIvPjxlbGxpcHNlIHN0eWxlPSJzdHJva2U6I0E4MDAzNjtzdHJva2Utd2lkdGg6MS4wOyIgcnk9IjExIiByeD0iMTEiIGZpbGw9IiNFQjkzN0YiIGN5PSI0NDMiIGN4PSI0MjYuNzUiLz48cGF0aCBmaWxsPSIjMDAwMDAwIiBkPSJNNDI1LjU0NjksNDQzLjg3NSBMNDI3LDQ0My44NzUgTDQyNyw0NDMuOTg0NCBDNDI3LDQ0NC4zOTA2IDQyNy4wMzEzLDQ0NC41NDY5IDQyNy4xMDk0LDQ0NC43MDMxIEM0MjcuMjY1Niw0NDQuOTUzMSA0MjcuNTQ2OSw0NDUuMTA5NCA0MjcuODQzOCw0NDUuMTA5NCBDNDI4LjA5MzgsNDQ1LjEwOTQgNDI4LjM1OTQsNDQ0Ljk2ODggNDI4LjUxNTYsNDQ0Ljc1IEM0MjguNjQwNiw0NDQuNTkzOCA0MjguNjcxOSw0NDQuNDM3NSA0MjguNjcxOSw0NDMuOTg0NCBMNDI4LjY3MTksNDQyLjA2MjUgQzQyOC42NzE5LDQ0MS45MDYzIDQyOC42NzE5LDQ0MS44NTk0IDQyOC42NTYzLDQ0MS43MDMxIEM0MjguNTkzOCw0NDEuMjM0NCA0MjguMjgxMyw0NDAuOTIxOSA0MjcuODI4MSw0NDAuOTIxOSBDNDI3LjU3ODEsNDQwLjkyMTkgNDI3LjMxMjUsNDQxLjA2MjUgNDI3LjE0MDYsNDQxLjI4MTMgQzQyNy4wMzEzLDQ0MS40NTMxIDQyNyw0NDEuNjA5NCA0MjcsNDQyLjA2MjUgTDQyNyw0NDIuMTg3NSBMNDI1LjU0NjksNDQyLjE4NzUgTDQyNS41NDY5LDQzOS43ODEzIEw0MjkuNTMxMyw0MzkuNzgxMyBMNDI5LjUzMTMsNDQwLjY0MDYgQzQyOS41MzEzLDQ0MS4wNDY5IDQyOS41NjI1LDQ0MS4yMTg4IDQyOS42NDA2LDQ0MS4zNzUgQzQyOS44MTI1LDQ0MS42MjUgNDMwLjA5MzgsNDQxLjc4MTMgNDMwLjM3NSw0NDEuNzgxMyBDNDMwLjY0MDYsNDQxLjc4MTMgNDMwLjkwNjMsNDQxLjY0MDYgNDMxLjA3ODEsNDQxLjQyMTkgQzQzMS4xODc1LDQ0MS4yNSA0MzEuMjE4OCw0NDEuMTA5NCA0MzEuMjE4OCw0NDAuNjQwNiBMNDMxLjIxODgsNDM4LjA5MzggTDQyMy41OTM4LDQzOC4wOTM4IEM0MjMuMTU2Myw0MzguMDkzOCA0MjMuMDMxMyw0MzguMTA5NCA0MjIuODc1LDQzOC4yMDMxIEM0MjIuNjI1LDQzOC4zNTk0IDQyMi40Njg4LDQzOC42NTYzIDQyMi40Njg4LDQzOC45Mzc1IEM0MjIuNDY4OCw0MzkuMjE4OCA0MjIuNjA5NCw0MzkuNDY4OCA0MjIuODI4MSw0MzkuNjQwNiBDNDIyLjk4NDQsNDM5Ljc1IDQyMy4xNzE5LDQzOS43ODEzIDQyMy41OTM4LDQzOS43ODEzIEw0MjMuODQzOCw0MzkuNzgxMyBMNDIzLjg0MzgsNDQ2LjI5NjkgTDQyMy41OTM4LDQ0Ni4yOTY5IEM0MjMuMTg3NSw0NDYuMjk2OSA0MjMuMDMxMyw0NDYuMzEyNSA0MjIuODc1LDQ0Ni40MjE5IEM0MjIuNjI1LDQ0Ni41OTM4IDQyMi40Njg4LDQ0Ni44NTk0IDQyMi40Njg4LDQ0Ny4xNTYzIEM0MjIuNDY4OCw0NDcuNDIxOSA0MjIuNjA5NCw0NDcuNjcxOSA0MjIuODI4MSw0NDcuODI4MSBDNDIyLjk2ODgsNDQ3Ljk1MzEgNDIzLjIwMzEsNDQ4IDQyMy41OTM4LDQ0OCBMNDMxLjU5MzgsNDQ4IEw0MzEuNTkzOCw0NDUuNDIxOSBDNDMxLjU5MzgsNDQ0Ljk4NDQgNDMxLjU2MjUsNDQ0Ljg0MzggNDMxLjQ4NDQsNDQ0LjY4NzUgQzQzMS4zMTI1LDQ0NC40Mzc1IDQzMS4wMzEzLDQ0NC4yODEzIDQzMC43NSw0NDQuMjgxMyBDNDMwLjQ4NDQsNDQ0LjI4MTMgNDMwLjIxODgsNDQ0LjM5MDYgNDMwLjA0NjksNDQ0LjY0MDYgQzQyOS45Mzc1LDQ0NC43OTY5IDQyOS45MDYzLDQ0NC45Mzc1IDQyOS45MDYzLDQ0NS40MjE5IEw0MjkuOTA2Myw0NDYuMjk2OSBMNDI1LjU0NjksNDQ2LjI5NjkgTDQyNS41NDY5LDQ0My44NzUgWiIvPjx0ZXh0IHk9IjQ0Ny44NDY3IiB4PSI0NDcuMjUiIHRleHRMZW5ndGg9IjQ2IiBsZW5ndGhBZGp1c3Q9InNwYWNpbmciIGZvbnQtc2l6ZT0iMTQiIGZvbnQtZmFtaWx5PSJzYW5zLXNlcmlmIiBmaWxsPSIjMDAwMDAwIj5TdGF0dXM8L3RleHQ+PGxpbmUgeTI9IjQ1OSIgeTE9IjQ1OSIgeDI9IjYwNy41IiB4MT0iMzAwLjUiIHN0eWxlPSJzdHJva2U6I0E4MDAzNjtzdHJva2Utd2lkdGg6MS4wOyIvPjxlbGxpcHNlIHN0eWxlPSJzdHJva2U6IzAzODA0ODtzdHJva2Utd2lkdGg6MS4wOyIgcnk9IjMiIHJ4PSIzIiBmaWxsPSJub25lIiBjeT0iNDcyLjY0ODQiIGN4PSIzMTAuNSIvPjx0ZXh0IHk9IjQ3NS45OTUxIiB4PSIzMTkuNSIgdGV4dExlbmd0aD0iMjkiIGxlbmd0aEFkanVzdD0ic3BhY2luZyIgZm9udC1zaXplPSIxNCIgZm9udC1mYW1pbHk9InNhbnMtc2VyaWYiIGZpbGw9IiMwMDAwMDAiPkVPUzwvdGV4dD48ZWxsaXBzZSBzdHlsZT0ic3Ryb2tlOiMwMzgwNDg7c3Ryb2tlLXdpZHRoOjEuMDsiIHJ5PSIzIiByeD0iMyIgZmlsbD0ibm9uZSIgY3k9IjQ4OC45NDUzIiBjeD0iMzEwLjUiLz48dGV4dCB5PSI0OTIuMjkyIiB4PSIzMTkuNSIgdGV4dExlbmd0aD0iMTMyIiBsZW5ndGhBZGp1c3Q9InNwYWNpbmciIGZvbnQtc2l6ZT0iMTQiIGZvbnQtZmFtaWx5PSJzYW5zLXNlcmlmIiBmaWxsPSIjMDAwMDAwIj5TZW5kaW5nX0lkZW50aWZpZXI8L3RleHQ+PGVsbGlwc2Ugc3R5bGU9InN0cm9rZTojMDM4MDQ4O3N0cm9rZS13aWR0aDoxLjA7IiByeT0iMyIgcng9IjMiIGZpbGw9Im5vbmUiIGN5PSI1MDUuMjQyMiIgY3g9IjMxMC41Ii8+PHRleHQgeT0iNTA4LjU4ODkiIHg9IjMxOS41IiB0ZXh0TGVuZ3RoPSIxOTEiIGxlbmd0aEFkanVzdD0ic3BhY2luZyIgZm9udC1zaXplPSIxNCIgZm9udC1mYW1pbHk9InNhbnMtc2VyaWYiIGZpbGw9IiMwMDAwMDAiPlJlcXVlc3RfTnVtYmVyT2ZQbGF5ZXJzPC90ZXh0PjxlbGxpcHNlIHN0eWxlPSJzdHJva2U6IzAzODA0ODtzdHJva2Utd2lkdGg6MS4wOyIgcnk9IjMiIHJ4PSIzIiBmaWxsPSJub25lIiBjeT0iNTIxLjUzOTEiIGN4PSIzMTAuNSIvPjx0ZXh0IHk9IjUyNC44ODU3IiB4PSIzMTkuNSIgdGV4dExlbmd0aD0iMjAyIiBsZW5ndGhBZGp1c3Q9InNwYWNpbmciIGZvbnQtc2l6ZT0iMTQiIGZvbnQtZmFtaWx5PSJzYW5zLXNlcmlmIiBmaWxsPSIjMDAwMDAwIj5SZXNwb25zZV9OdW1iZXJPZlBsYXllcnM8L3RleHQ+PGVsbGlwc2Ugc3R5bGU9InN0cm9rZTojMDM4MDQ4O3N0cm9rZS13aWR0aDoxLjA7IiByeT0iMyIgcng9IjMiIGZpbGw9Im5vbmUiIGN5PSI1MzcuODM1OSIgY3g9IjMxMC41Ii8+PHRleHQgeT0iNTQxLjE4MjYiIHg9IjMxOS41IiB0ZXh0TGVuZ3RoPSIxMzciIGxlbmd0aEFkanVzdD0ic3BhY2luZyIgZm9udC1zaXplPSIxNCIgZm9udC1mYW1pbHk9InNhbnMtc2VyaWYiIGZpbGw9IiMwMDAwMDAiPlJlcXVlc3RfTmlja25hbWU8L3RleHQ+PGVsbGlwc2Ugc3R5bGU9InN0cm9rZTojMDM4MDQ4O3N0cm9rZS13aWR0aDoxLjA7IiByeT0iMyIgcng9IjMiIGZpbGw9Im5vbmUiIGN5PSI1NTQuMTMyOCIgY3g9IjMxMC41Ii8+PHRleHQgeT0iNTU3LjQ3OTUiIHg9IjMxOS41IiB0ZXh0TGVuZ3RoPSIxNDgiIGxlbmd0aEFkanVzdD0ic3BhY2luZyIgZm9udC1zaXplPSIxNCIgZm9udC1mYW1pbHk9InNhbnMtc2VyaWYiIGZpbGw9IiMwMDAwMDAiPlJlc3BvbnNlX05pY2tuYW1lPC90ZXh0PjxlbGxpcHNlIHN0eWxlPSJzdHJva2U6IzAzODA0ODtzdHJva2Utd2lkdGg6MS4wOyIgcnk9IjMiIHJ4PSIzIiBmaWxsPSJub25lIiBjeT0iNTcwLjQyOTciIGN4PSIzMTAuNSIvPjx0ZXh0IHk9IjU3My43NzY0IiB4PSIzMTkuNSIgdGV4dExlbmd0aD0iMTM2IiBsZW5ndGhBZGp1c3Q9InNwYWNpbmciIGZvbnQtc2l6ZT0iMTQiIGZvbnQtZmFtaWx5PSJzYW5zLXNlcmlmIiBmaWxsPSIjMDAwMDAwIj5BY2NlcHRlZF9SZXF1ZXN0PC90ZXh0PjxlbGxpcHNlIHN0eWxlPSJzdHJva2U6IzAzODA0ODtzdHJva2Utd2lkdGg6MS4wOyIgcnk9IjMiIHJ4PSIzIiBmaWxsPSJub25lIiBjeT0iNTg2LjcyNjYiIGN4PSIzMTAuNSIvPjx0ZXh0IHk9IjU5MC4wNzMyIiB4PSIzMTkuNSIgdGV4dExlbmd0aD0iMTE3IiBsZW5ndGhBZGp1c3Q9InNwYWNpbmciIGZvbnQtc2l6ZT0iMTQiIGZvbnQtZmFtaWx5PSJzYW5zLXNlcmlmIiBmaWxsPSIjMDAwMDAwIj5EZW5pZWRfUmVxdWVzdDwvdGV4dD48ZWxsaXBzZSBzdHlsZT0ic3Ryb2tlOiMwMzgwNDg7c3Ryb2tlLXdpZHRoOjEuMDsiIHJ5PSIzIiByeD0iMyIgZmlsbD0ibm9uZSIgY3k9IjYwMy4wMjM0IiBjeD0iMzEwLjUiLz48dGV4dCB5PSI2MDYuMzcwMSIgeD0iMzE5LjUiIHRleHRMZW5ndGg9IjkwIiBsZW5ndGhBZGp1c3Q9InNwYWNpbmciIGZvbnQtc2l6ZT0iMTQiIGZvbnQtZmFtaWx5PSJzYW5zLXNlcmlmIiBmaWxsPSIjMDAwMDAwIj5Ob3RZb3VyVHVybjwvdGV4dD48ZWxsaXBzZSBzdHlsZT0ic3Ryb2tlOiMwMzgwNDg7c3Ryb2tlLXdpZHRoOjEuMDsiIHJ5PSIzIiByeD0iMyIgZmlsbD0ibm9uZSIgY3k9IjYxOS4zMjAzIiBjeD0iMzEwLjUiLz48dGV4dCB5PSI2MjIuNjY3IiB4PSIzMTkuNSIgdGV4dExlbmd0aD0iNjQiIGxlbmd0aEFkanVzdD0ic3BhY2luZyIgZm9udC1zaXplPSIxNCIgZm9udC1mYW1pbHk9InNhbnMtc2VyaWYiIGZpbGw9IiMwMDAwMDAiPllvdXJUdXJuPC90ZXh0PjxlbGxpcHNlIHN0eWxlPSJzdHJva2U6IzAzODA0ODtzdHJva2Utd2lkdGg6MS4wOyIgcnk9IjMiIHJ4PSIzIiBmaWxsPSJub25lIiBjeT0iNjM1LjYxNzIiIGN4PSIzMTAuNSIvPjx0ZXh0IHk9IjYzOC45NjM5IiB4PSIzMTkuNSIgdGV4dExlbmd0aD0iMTA0IiBsZW5ndGhBZGp1c3Q9InNwYWNpbmciIGZvbnQtc2l6ZT0iMTQiIGZvbnQtZmFtaWx5PSJzYW5zLXNlcmlmIiBmaWxsPSIjMDAwMDAwIj5Nb3ZlX1JlcXVlc3Q8L3RleHQ+PGVsbGlwc2Ugc3R5bGU9InN0cm9rZTojMDM4MDQ4O3N0cm9rZS13aWR0aDoxLjA7IiByeT0iMyIgcng9IjMiIGZpbGw9Im5vbmUiIGN5PSI2NTEuOTE0MSIgY3g9IjMxMC41Ii8+PHRleHQgeT0iNjU1LjI2MDciIHg9IjMxOS41IiB0ZXh0TGVuZ3RoPSIxMTIiIGxlbmd0aEFkanVzdD0ic3BhY2luZyIgZm9udC1zaXplPSIxNCIgZm9udC1mYW1pbHk9InNhbnMtc2VyaWYiIGZpbGw9IiMwMDAwMDAiPlN1Y2Nlc3NmdWxNb3ZlPC90ZXh0PjxlbGxpcHNlIHN0eWxlPSJzdHJva2U6IzAzODA0ODtzdHJva2Utd2lkdGg6MS4wOyIgcnk9IjMiIHJ4PSIzIiBmaWxsPSJub25lIiBjeT0iNjY4LjIxMDkiIGN4PSIzMTAuNSIvPjx0ZXh0IHk9IjY3MS41NTc2IiB4PSIzMTkuNSIgdGV4dExlbmd0aD0iODAiIGxlbmd0aEFkanVzdD0ic3BhY2luZyIgZm9udC1zaXplPSIxNCIgZm9udC1mYW1pbHk9InNhbnMtc2VyaWYiIGZpbGw9IiMwMDAwMDAiPkZhaWxlZE1vdmU8L3RleHQ+PGVsbGlwc2Ugc3R5bGU9InN0cm9rZTojMDM4MDQ4O3N0cm9rZS13aWR0aDoxLjA7IiByeT0iMyIgcng9IjMiIGZpbGw9Im5vbmUiIGN5PSI2ODQuNTA3OCIgY3g9IjMxMC41Ii8+PHRleHQgeT0iNjg3Ljg1NDUiIHg9IjMxOS41IiB0ZXh0TGVuZ3RoPSIxMDAiIGxlbmd0aEFkanVzdD0ic3BhY2luZyIgZm9udC1zaXplPSIxNCIgZm9udC1mYW1pbHk9InNhbnMtc2VyaWYiIGZpbGw9IiMwMDAwMDAiPlNlbmRpbmdCb2FyZDwvdGV4dD48ZWxsaXBzZSBzdHlsZT0ic3Ryb2tlOiMwMzgwNDg7c3Ryb2tlLXdpZHRoOjEuMDsiIHJ5PSIzIiByeD0iMyIgZmlsbD0ibm9uZSIgY3k9IjcwMC44MDQ3IiBjeD0iMzEwLjUiLz48dGV4dCB5PSI3MDQuMTUxNCIgeD0iMzE5LjUiIHRleHRMZW5ndGg9Ijk1IiBsZW5ndGhBZGp1c3Q9InNwYWNpbmciIGZvbnQtc2l6ZT0iMTQiIGZvbnQtZmFtaWx5PSJzYW5zLXNlcmlmIiBmaWxsPSIjMDAwMDAwIj5TZW5kaW5nU2hlbGY8L3RleHQ+PGVsbGlwc2Ugc3R5bGU9InN0cm9rZTojMDM4MDQ4O3N0cm9rZS13aWR0aDoxLjA7IiByeT0iMyIgcng9IjMiIGZpbGw9Im5vbmUiIGN5PSI3MTcuMTAxNiIgY3g9IjMxMC41Ii8+PHRleHQgeT0iNzIwLjQ0ODIiIHg9IjMxOS41IiB0ZXh0TGVuZ3RoPSIxODQiIGxlbmd0aEFkanVzdD0ic3BhY2luZyIgZm9udC1zaXplPSIxNCIgZm9udC1mYW1pbHk9InNhbnMtc2VyaWYiIGZpbGw9IiMwMDAwMDAiPlNlbmRpbmdQZXJzb25hbEdvYWxDYXJkPC90ZXh0PjxlbGxpcHNlIHN0eWxlPSJzdHJva2U6IzAzODA0ODtzdHJva2Utd2lkdGg6MS4wOyIgcnk9IjMiIHJ4PSIzIiBmaWxsPSJub25lIiBjeT0iNzMzLjM5ODQiIGN4PSIzMTAuNSIvPjx0ZXh0IHk9IjczNi43NDUxIiB4PSIzMTkuNSIgdGV4dExlbmd0aD0iMjgzIiBsZW5ndGhBZGp1c3Q9InNwYWNpbmciIGZvbnQtc2l6ZT0iMTQiIGZvbnQtZmFtaWx5PSJzYW5zLXNlcmlmIiBmaWxsPSIjMDAwMDAwIj5TZW5kaW5nQ29tbW9uR29hbENhcmRTcGVjaWZpY2F0aW9uPC90ZXh0PjxlbGxpcHNlIHN0eWxlPSJzdHJva2U6IzAzODA0ODtzdHJva2Utd2lkdGg6MS4wOyIgcnk9IjMiIHJ4PSIzIiBmaWxsPSJub25lIiBjeT0iNzQ5LjY5NTMiIGN4PSIzMTAuNSIvPjx0ZXh0IHk9Ijc1My4wNDIiIHg9IjMxOS41IiB0ZXh0TGVuZ3RoPSIxNDgiIGxlbmd0aEFkanVzdD0ic3BhY2luZyIgZm9udC1zaXplPSIxNCIgZm9udC1mYW1pbHk9InNhbnMtc2VyaWYiIGZpbGw9IiMwMDAwMDAiPkFjaGlldmVtZW50VXBkYXRlPC90ZXh0PjxlbGxpcHNlIHN0eWxlPSJzdHJva2U6IzAzODA0ODtzdHJva2Utd2lkdGg6MS4wOyIgcnk9IjMiIHJ4PSIzIiBmaWxsPSJub25lIiBjeT0iNzY1Ljk5MjIiIGN4PSIzMTAuNSIvPjx0ZXh0IHk9Ijc2OS4zMzg5IiB4PSIzMTkuNSIgdGV4dExlbmd0aD0iMTI1IiBsZW5ndGhBZGp1c3Q9InNwYWNpbmciIGZvbnQtc2l6ZT0iMTQiIGZvbnQtZmFtaWx5PSJzYW5zLXNlcmlmIiBmaWxsPSIjMDAwMDAwIj5QbGF5ZXJTY29yZUNhcmRzPC90ZXh0PjxlbGxpcHNlIHN0eWxlPSJzdHJva2U6IzAzODA0ODtzdHJva2Utd2lkdGg6MS4wOyIgcnk9IjMiIHJ4PSIzIiBmaWxsPSJub25lIiBjeT0iNzgyLjI4OTEiIGN4PSIzMTAuNSIvPjx0ZXh0IHk9Ijc4NS42MzU3IiB4PSIzMTkuNSIgdGV4dExlbmd0aD0iNjIiIGxlbmd0aEFkanVzdD0ic3BhY2luZyIgZm9udC1zaXplPSIxNCIgZm9udC1mYW1pbHk9InNhbnMtc2VyaWYiIGZpbGw9IiMwMDAwMDAiPkxhc3RUdXJuPC90ZXh0PjxlbGxpcHNlIHN0eWxlPSJzdHJva2U6IzAzODA0ODtzdHJva2Utd2lkdGg6MS4wOyIgcnk9IjMiIHJ4PSIzIiBmaWxsPSJub25lIiBjeT0iNzk4LjU4NTkiIGN4PSIzMTAuNSIvPjx0ZXh0IHk9IjgwMS45MzI2IiB4PSIzMTkuNSIgdGV4dExlbmd0aD0iOTQiIGxlbmd0aEFkanVzdD0ic3BhY2luZyIgZm9udC1zaXplPSIxNCIgZm9udC1mYW1pbHk9InNhbnMtc2VyaWYiIGZpbGw9IiMwMDAwMDAiPk1vdmVBbGxvd2VkPC90ZXh0PjxlbGxpcHNlIHN0eWxlPSJzdHJva2U6IzAzODA0ODtzdHJva2Utd2lkdGg6MS4wOyIgcnk9IjMiIHJ4PSIzIiBmaWxsPSJub25lIiBjeT0iODE0Ljg4MjgiIGN4PSIzMTAuNSIvPjx0ZXh0IHk9IjgxOC4yMjk1IiB4PSIzMTkuNSIgdGV4dExlbmd0aD0iMTIwIiBsZW5ndGhBZGp1c3Q9InNwYWNpbmciIGZvbnQtc2l6ZT0iMTQiIGZvbnQtZmFtaWx5PSJzYW5zLXNlcmlmIiBmaWxsPSIjMDAwMDAwIj5Nb3ZlTm90QWxsb3dlZDwvdGV4dD48ZWxsaXBzZSBzdHlsZT0ic3Ryb2tlOiMwMzgwNDg7c3Ryb2tlLXdpZHRoOjEuMDsiIHJ5PSIzIiByeD0iMyIgZmlsbD0ibm9uZSIgY3k9IjgzMS4xNzk3IiBjeD0iMzEwLjUiLz48dGV4dCB5PSI4MzQuNTI2NCIgeD0iMzE5LjUiIHRleHRMZW5ndGg9Ijg3IiBsZW5ndGhBZGp1c3Q9InNwYWNpbmciIGZvbnQtc2l6ZT0iMTQiIGZvbnQtZmFtaWx5PSJzYW5zLXNlcmlmIiBmaWxsPSIjMDAwMDAwIj5HYW1lRW5kZWQ8L3RleHQ+PGVsbGlwc2Ugc3R5bGU9InN0cm9rZTojMDM4MDQ4O3N0cm9rZS13aWR0aDoxLjA7IiByeT0iMyIgcng9IjMiIGZpbGw9Im5vbmUiIGN5PSI4NDcuNDc2NiIgY3g9IjMxMC41Ii8+PHRleHQgeT0iODUwLjgyMzIiIHg9IjMxOS41IiB0ZXh0TGVuZ3RoPSIxMTYiIGxlbmd0aEFkanVzdD0ic3BhY2luZyIgZm9udC1zaXplPSIxNCIgZm9udC1mYW1pbHk9InNhbnMtc2VyaWYiIGZpbGw9IiMwMDAwMDAiPkZpbmFsU2NvcmVib2FyZDwvdGV4dD48ZWxsaXBzZSBzdHlsZT0ic3Ryb2tlOiMwMzgwNDg7c3Ryb2tlLXdpZHRoOjEuMDsiIHJ5PSIzIiByeD0iMyIgZmlsbD0ibm9uZSIgY3k9Ijg2My43NzM0IiBjeD0iMzEwLjUiLz48dGV4dCB5PSI4NjcuMTIwMSIgeD0iMzE5LjUiIHRleHRMZW5ndGg9IjExOCIgbGVuZ3RoQWRqdXN0PSJzcGFjaW5nIiBmb250LXNpemU9IjE0IiBmb250LWZhbWlseT0ic2Fucy1zZXJpZiIgZmlsbD0iIzAwMDAwMCI+Rm9yY2VkR2FtZUVuZDwvdGV4dD48ZWxsaXBzZSBzdHlsZT0ic3Ryb2tlOiMwMzgwNDg7c3Ryb2tlLXdpZHRoOjEuMDsiIHJ5PSIzIiByeD0iMyIgZmlsbD0ibm9uZSIgY3k9Ijg4MC4wNzAzIiBjeD0iMzEwLjUiLz48dGV4dCB5PSI4ODMuNDE3IiB4PSIzMTkuNSIgdGV4dExlbmd0aD0iNzMiIGxlbmd0aEFkanVzdD0ic3BhY2luZyIgZm9udC1zaXplPSIxNCIgZm9udC1mYW1pbHk9InNhbnMtc2VyaWYiIGZpbGw9IiMwMDAwMDAiPktlZXBBbGl2ZTwvdGV4dD48ZWxsaXBzZSBzdHlsZT0ic3Ryb2tlOiMwMzgwNDg7c3Ryb2tlLXdpZHRoOjEuMDsiIHJ5PSIzIiByeD0iMyIgZmlsbD0ibm9uZSIgY3k9Ijg5Ni4zNjcyIiBjeD0iMzEwLjUiLz48dGV4dCB5PSI4OTkuNzEzOSIgeD0iMzE5LjUiIHRleHRMZW5ndGg9IjgwIiBsZW5ndGhBZGp1c3Q9InNwYWNpbmciIGZvbnQtc2l6ZT0iMTQiIGZvbnQtZmFtaWx5PSJzYW5zLXNlcmlmIiBmaWxsPSIjMDAwMDAwIj5LQVRpbWVvdXQ8L3RleHQ+PGVsbGlwc2Ugc3R5bGU9InN0cm9rZTojMDM4MDQ4O3N0cm9rZS13aWR0aDoxLjA7IiByeT0iMyIgcng9IjMiIGZpbGw9Im5vbmUiIGN5PSI5MTIuNjY0MSIgY3g9IjMxMC41Ii8+PHRleHQgeT0iOTE2LjAxMDciIHg9IjMxOS41IiB0ZXh0TGVuZ3RoPSI5MiIgbGVuZ3RoQWRqdXN0PSJzcGFjaW5nIiBmb250LXNpemU9IjE0IiBmb250LWZhbWlseT0ic2Fucy1zZXJpZiIgZmlsbD0iIzAwMDAwMCI+SW52YWxpZFN0YXR1czwvdGV4dD48ZWxsaXBzZSBzdHlsZT0ic3Ryb2tlOiMwMzgwNDg7c3Ryb2tlLXdpZHRoOjEuMDsiIHJ5PSIzIiByeD0iMyIgZmlsbD0ibm9uZSIgY3k9IjkyOC45NjA5IiBjeD0iMzEwLjUiLz48dGV4dCB5PSI5MzIuMzA3NiIgeD0iMzE5LjUiIHRleHRMZW5ndGg9IjM2IiBsZW5ndGhBZGp1c3Q9InNwYWNpbmciIGZvbnQtc2l6ZT0iMTQiIGZvbnQtZmFtaWx5PSJzYW5zLXNlcmlmIiBmaWxsPSIjMDAwMDAwIj5FcnJvcjwvdGV4dD48bGluZSB5Mj0iOTM5LjYwOTQiIHkxPSI5MzkuNjA5NCIgeDI9IjYwNy41IiB4MT0iMzAwLjUiIHN0eWxlPSJzdHJva2U6I0E4MDAzNjtzdHJva2Utd2lkdGg6MS4wOyIvPjwvZz48ZyBpZD0iZWxlbV9Tb2NrZXRTZXJ2ZXIiPjxyZWN0IHk9IjExMTUiIHg9IjEwNCIgd2lkdGg9IjEzMCIgc3R5bGU9InN0cm9rZTojQTgwMDM2O3N0cm9rZS13aWR0aDoxLjA7IiBpZD0iU29ja2V0U2VydmVyIiBoZWlnaHQ9IjQ4IiBmaWx0ZXI9InVybCgjZnN6ejdvcWk5dGhkMykiIGZpbGw9IiNGRUZFQ0UiLz48ZWxsaXBzZSBzdHlsZT0ic3Ryb2tlOiNBODAwMzY7c3Ryb2tlLXdpZHRoOjEuMDsiIHJ5PSIxMSIgcng9IjExIiBmaWxsPSIjQUREMUIyIiBjeT0iMTEzMSIgY3g9IjExOSIvPjxwYXRoIGZpbGw9IiMwMDAwMDAiIGQ9Ik0xMjEuMzQzOCwxMTI2LjY3MTkgQzEyMC40MDYzLDExMjYuMjM0NCAxMTkuODEyNSwxMTI2LjA5MzggMTE4LjkzNzUsMTEyNi4wOTM4IEMxMTYuMzEyNSwxMTI2LjA5MzggMTE0LjMxMjUsMTEyOC4xNzE5IDExNC4zMTI1LDExMzAuODkwNiBMMTE0LjMxMjUsMTEzMi4wMTU2IEMxMTQuMzEyNSwxMTM0LjU5MzggMTE2LjQyMTksMTEzNi40ODQ0IDExOS4zMTI1LDExMzYuNDg0NCBDMTIwLjUzMTMsMTEzNi40ODQ0IDEyMS42ODc1LDExMzYuMTg3NSAxMjIuNDM3NSwxMTM1LjY0MDYgQzEyMy4wMTU2LDExMzUuMjM0NCAxMjMuMzQzOCwxMTM0Ljc4MTMgMTIzLjM0MzgsMTEzNC4zOTA2IEMxMjMuMzQzOCwxMTMzLjkzNzUgMTIyLjk1MzEsMTEzMy41NDY5IDEyMi40ODQ0LDExMzMuNTQ2OSBDMTIyLjI2NTYsMTEzMy41NDY5IDEyMi4wNjI1LDExMzMuNjI1IDEyMS44NzUsMTEzMy44MTI1IEMxMjEuNDIxOSwxMTM0LjI5NjkgMTIxLjQyMTksMTEzNC4yOTY5IDEyMS4yMzQ0LDExMzQuMzkwNiBDMTIwLjgxMjUsMTEzNC42NTYzIDEyMC4xMjUsMTEzNC43ODEzIDExOS4zNTk0LDExMzQuNzgxMyBDMTE3LjMxMjUsMTEzNC43ODEzIDExNi4wMTU2LDExMzMuNjg3NSAxMTYuMDE1NiwxMTMxLjk4NDQgTDExNi4wMTU2LDExMzAuODkwNiBDMTE2LjAxNTYsMTEyOS4xMDk0IDExNy4yNjU2LDExMjcuNzk2OSAxMTksMTEyNy43OTY5IEMxMTkuNTc4MSwxMTI3Ljc5NjkgMTIwLjE4NzUsMTEyNy45NTMxIDEyMC42NTYzLDExMjguMjAzMSBDMTIxLjE0MDYsMTEyOC40ODQ0IDEyMS4zMTI1LDExMjguNzAzMSAxMjEuNDA2MywxMTI5LjEwOTQgQzEyMS40Njg4LDExMjkuNTE1NiAxMjEuNSwxMTI5LjY0MDYgMTIxLjY0MDYsMTEyOS43NjU2IEMxMjEuNzgxMywxMTI5LjkwNjMgMTIyLjAxNTYsMTEzMC4wMTU2IDEyMi4yMzQ0LDExMzAuMDE1NiBDMTIyLjUsMTEzMC4wMTU2IDEyMi43NjU2LDExMjkuODc1IDEyMi45Mzc1LDExMjkuNjU2MyBDMTIzLjA0NjksMTEyOS41IDEyMy4wNzgxLDExMjkuMzEyNSAxMjMuMDc4MSwxMTI4Ljg5MDYgTDEyMy4wNzgxLDExMjcuNDY4OCBDMTIzLjA3ODEsMTEyNy4wMzEzIDEyMy4wNjI1LDExMjYuOTA2MyAxMjIuOTY4OCwxMTI2Ljc1IEMxMjIuODEyNSwxMTI2LjQ4NDQgMTIyLjUzMTMsMTEyNi4zNDM4IDEyMi4yMzQ0LDExMjYuMzQzOCBDMTIxLjkzNzUsMTEyNi4zNDM4IDEyMS43MzQ0LDExMjYuNDM3NSAxMjEuNTE1NiwxMTI2Ljc1IEwxMjEuMzQzOCwxMTI2LjY3MTkgWiIvPjx0ZXh0IHk9IjExMzUuODQ2NyIgeD0iMTMzIiB0ZXh0TGVuZ3RoPSI5OCIgbGVuZ3RoQWRqdXN0PSJzcGFjaW5nIiBmb250LXNpemU9IjE0IiBmb250LWZhbWlseT0ic2Fucy1zZXJpZiIgZmlsbD0iIzAwMDAwMCI+U29ja2V0U2VydmVyPC90ZXh0PjxsaW5lIHkyPSIxMTQ3IiB5MT0iMTE0NyIgeDI9IjIzMyIgeDE9IjEwNSIgc3R5bGU9InN0cm9rZTojQTgwMDM2O3N0cm9rZS13aWR0aDoxLjA7Ii8+PGxpbmUgeTI9IjExNTUiIHkxPSIxMTU1IiB4Mj0iMjMzIiB4MT0iMTA1IiBzdHlsZT0ic3Ryb2tlOiNBODAwMzY7c3Ryb2tlLXdpZHRoOjEuMDsiLz48L2c+PGcgaWQ9ImVsZW1fUk1JU2VydmVyIj48cmVjdCB5PSIxMTE1IiB4PSIyNjkuNSIgd2lkdGg9IjEwNSIgc3R5bGU9InN0cm9rZTojQTgwMDM2O3N0cm9rZS13aWR0aDoxLjA7IiBpZD0iUk1JU2VydmVyIiBoZWlnaHQ9IjQ4IiBmaWx0ZXI9InVybCgjZnN6ejdvcWk5dGhkMykiIGZpbGw9IiNGRUZFQ0UiLz48ZWxsaXBzZSBzdHlsZT0ic3Ryb2tlOiNBODAwMzY7c3Ryb2tlLXdpZHRoOjEuMDsiIHJ5PSIxMSIgcng9IjExIiBmaWxsPSIjQUREMUIyIiBjeT0iMTEzMSIgY3g9IjI4NC41Ii8+PHBhdGggZmlsbD0iIzAwMDAwMCIgZD0iTTI4Ni44NDM4LDExMjYuNjcxOSBDMjg1LjkwNjMsMTEyNi4yMzQ0IDI4NS4zMTI1LDExMjYuMDkzOCAyODQuNDM3NSwxMTI2LjA5MzggQzI4MS44MTI1LDExMjYuMDkzOCAyNzkuODEyNSwxMTI4LjE3MTkgMjc5LjgxMjUsMTEzMC44OTA2IEwyNzkuODEyNSwxMTMyLjAxNTYgQzI3OS44MTI1LDExMzQuNTkzOCAyODEuOTIxOSwxMTM2LjQ4NDQgMjg0LjgxMjUsMTEzNi40ODQ0IEMyODYuMDMxMywxMTM2LjQ4NDQgMjg3LjE4NzUsMTEzNi4xODc1IDI4Ny45Mzc1LDExMzUuNjQwNiBDMjg4LjUxNTYsMTEzNS4yMzQ0IDI4OC44NDM4LDExMzQuNzgxMyAyODguODQzOCwxMTM0LjM5MDYgQzI4OC44NDM4LDExMzMuOTM3NSAyODguNDUzMSwxMTMzLjU0NjkgMjg3Ljk4NDQsMTEzMy41NDY5IEMyODcuNzY1NiwxMTMzLjU0NjkgMjg3LjU2MjUsMTEzMy42MjUgMjg3LjM3NSwxMTMzLjgxMjUgQzI4Ni45MjE5LDExMzQuMjk2OSAyODYuOTIxOSwxMTM0LjI5NjkgMjg2LjczNDQsMTEzNC4zOTA2IEMyODYuMzEyNSwxMTM0LjY1NjMgMjg1LjYyNSwxMTM0Ljc4MTMgMjg0Ljg1OTQsMTEzNC43ODEzIEMyODIuODEyNSwxMTM0Ljc4MTMgMjgxLjUxNTYsMTEzMy42ODc1IDI4MS41MTU2LDExMzEuOTg0NCBMMjgxLjUxNTYsMTEzMC44OTA2IEMyODEuNTE1NiwxMTI5LjEwOTQgMjgyLjc2NTYsMTEyNy43OTY5IDI4NC41LDExMjcuNzk2OSBDMjg1LjA3ODEsMTEyNy43OTY5IDI4NS42ODc1LDExMjcuOTUzMSAyODYuMTU2MywxMTI4LjIwMzEgQzI4Ni42NDA2LDExMjguNDg0NCAyODYuODEyNSwxMTI4LjcwMzEgMjg2LjkwNjMsMTEyOS4xMDk0IEMyODYuOTY4OCwxMTI5LjUxNTYgMjg3LDExMjkuNjQwNiAyODcuMTQwNiwxMTI5Ljc2NTYgQzI4Ny4yODEzLDExMjkuOTA2MyAyODcuNTE1NiwxMTMwLjAxNTYgMjg3LjczNDQsMTEzMC4wMTU2IEMyODgsMTEzMC4wMTU2IDI4OC4yNjU2LDExMjkuODc1IDI4OC40Mzc1LDExMjkuNjU2MyBDMjg4LjU0NjksMTEyOS41IDI4OC41NzgxLDExMjkuMzEyNSAyODguNTc4MSwxMTI4Ljg5MDYgTDI4OC41NzgxLDExMjcuNDY4OCBDMjg4LjU3ODEsMTEyNy4wMzEzIDI4OC41NjI1LDExMjYuOTA2MyAyODguNDY4OCwxMTI2Ljc1IEMyODguMzEyNSwxMTI2LjQ4NDQgMjg4LjAzMTMsMTEyNi4zNDM4IDI4Ny43MzQ0LDExMjYuMzQzOCBDMjg3LjQzNzUsMTEyNi4zNDM4IDI4Ny4yMzQ0LDExMjYuNDM3NSAyODcuMDE1NiwxMTI2Ljc1IEwyODYuODQzOCwxMTI2LjY3MTkgWiIvPjx0ZXh0IHk9IjExMzUuODQ2NyIgeD0iMjk4LjUiIHRleHRMZW5ndGg9IjczIiBsZW5ndGhBZGp1c3Q9InNwYWNpbmciIGZvbnQtc2l6ZT0iMTQiIGZvbnQtZmFtaWx5PSJzYW5zLXNlcmlmIiBmaWxsPSIjMDAwMDAwIj5STUlTZXJ2ZXI8L3RleHQ+PGxpbmUgeTI9IjExNDciIHkxPSIxMTQ3IiB4Mj0iMzczLjUiIHgxPSIyNzAuNSIgc3R5bGU9InN0cm9rZTojQTgwMDM2O3N0cm9rZS13aWR0aDoxLjA7Ii8+PGxpbmUgeTI9IjExNTUiIHkxPSIxMTU1IiB4Mj0iMzczLjUiIHgxPSIyNzAuNSIgc3R5bGU9InN0cm9rZTojQTgwMDM2O3N0cm9rZS13aWR0aDoxLjA7Ii8+PC9nPjxnIGlkPSJlbGVtX1NlcnZlck1hbmFnZXIiPjxyZWN0IHk9IjEyNzIiIHg9IjEwNCIgd2lkdGg9IjE0MCIgc3R5bGU9InN0cm9rZTojQTgwMDM2O3N0cm9rZS13aWR0aDoxLjA7IiBpZD0iU2VydmVyTWFuYWdlciIgaGVpZ2h0PSI0OCIgZmlsdGVyPSJ1cmwoI2Zzeno3b3FpOXRoZDMpIiBmaWxsPSIjRkVGRUNFIi8+PGVsbGlwc2Ugc3R5bGU9InN0cm9rZTojQTgwMDM2O3N0cm9rZS13aWR0aDoxLjA7IiByeT0iMTEiIHJ4PSIxMSIgZmlsbD0iI0FERDFCMiIgY3k9IjEyODgiIGN4PSIxMTkiLz48cGF0aCBmaWxsPSIjMDAwMDAwIiBkPSJNMTIxLjM0MzgsMTI4My42NzE5IEMxMjAuNDA2MywxMjgzLjIzNDQgMTE5LjgxMjUsMTI4My4wOTM4IDExOC45Mzc1LDEyODMuMDkzOCBDMTE2LjMxMjUsMTI4My4wOTM4IDExNC4zMTI1LDEyODUuMTcxOSAxMTQuMzEyNSwxMjg3Ljg5MDYgTDExNC4zMTI1LDEyODkuMDE1NiBDMTE0LjMxMjUsMTI5MS41OTM4IDExNi40MjE5LDEyOTMuNDg0NCAxMTkuMzEyNSwxMjkzLjQ4NDQgQzEyMC41MzEzLDEyOTMuNDg0NCAxMjEuNjg3NSwxMjkzLjE4NzUgMTIyLjQzNzUsMTI5Mi42NDA2IEMxMjMuMDE1NiwxMjkyLjIzNDQgMTIzLjM0MzgsMTI5MS43ODEzIDEyMy4zNDM4LDEyOTEuMzkwNiBDMTIzLjM0MzgsMTI5MC45Mzc1IDEyMi45NTMxLDEyOTAuNTQ2OSAxMjIuNDg0NCwxMjkwLjU0NjkgQzEyMi4yNjU2LDEyOTAuNTQ2OSAxMjIuMDYyNSwxMjkwLjYyNSAxMjEuODc1LDEyOTAuODEyNSBDMTIxLjQyMTksMTI5MS4yOTY5IDEyMS40MjE5LDEyOTEuMjk2OSAxMjEuMjM0NCwxMjkxLjM5MDYgQzEyMC44MTI1LDEyOTEuNjU2MyAxMjAuMTI1LDEyOTEuNzgxMyAxMTkuMzU5NCwxMjkxLjc4MTMgQzExNy4zMTI1LDEyOTEuNzgxMyAxMTYuMDE1NiwxMjkwLjY4NzUgMTE2LjAxNTYsMTI4OC45ODQ0IEwxMTYuMDE1NiwxMjg3Ljg5MDYgQzExNi4wMTU2LDEyODYuMTA5NCAxMTcuMjY1NiwxMjg0Ljc5NjkgMTE5LDEyODQuNzk2OSBDMTE5LjU3ODEsMTI4NC43OTY5IDEyMC4xODc1LDEyODQuOTUzMSAxMjAuNjU2MywxMjg1LjIwMzEgQzEyMS4xNDA2LDEyODUuNDg0NCAxMjEuMzEyNSwxMjg1LjcwMzEgMTIxLjQwNjMsMTI4Ni4xMDk0IEMxMjEuNDY4OCwxMjg2LjUxNTYgMTIxLjUsMTI4Ni42NDA2IDEyMS42NDA2LDEyODYuNzY1NiBDMTIxLjc4MTMsMTI4Ni45MDYzIDEyMi4wMTU2LDEyODcuMDE1NiAxMjIuMjM0NCwxMjg3LjAxNTYgQzEyMi41LDEyODcuMDE1NiAxMjIuNzY1NiwxMjg2Ljg3NSAxMjIuOTM3NSwxMjg2LjY1NjMgQzEyMy4wNDY5LDEyODYuNSAxMjMuMDc4MSwxMjg2LjMxMjUgMTIzLjA3ODEsMTI4NS44OTA2IEwxMjMuMDc4MSwxMjg0LjQ2ODggQzEyMy4wNzgxLDEyODQuMDMxMyAxMjMuMDYyNSwxMjgzLjkwNjMgMTIyLjk2ODgsMTI4My43NSBDMTIyLjgxMjUsMTI4My40ODQ0IDEyMi41MzEzLDEyODMuMzQzOCAxMjIuMjM0NCwxMjgzLjM0MzggQzEyMS45Mzc1LDEyODMuMzQzOCAxMjEuNzM0NCwxMjgzLjQzNzUgMTIxLjUxNTYsMTI4My43NSBMMTIxLjM0MzgsMTI4My42NzE5IFoiLz48dGV4dCB5PSIxMjkyLjg0NjciIHg9IjEzMyIgdGV4dExlbmd0aD0iMTA4IiBsZW5ndGhBZGp1c3Q9InNwYWNpbmciIGZvbnQtc2l6ZT0iMTQiIGZvbnQtZmFtaWx5PSJzYW5zLXNlcmlmIiBmaWxsPSIjMDAwMDAwIj5TZXJ2ZXJNYW5hZ2VyPC90ZXh0PjxsaW5lIHkyPSIxMzA0IiB5MT0iMTMwNCIgeDI9IjI0MyIgeDE9IjEwNSIgc3R5bGU9InN0cm9rZTojQTgwMDM2O3N0cm9rZS13aWR0aDoxLjA7Ii8+PGxpbmUgeTI9IjEzMTIiIHkxPSIxMzEyIiB4Mj0iMjQzIiB4MT0iMTA1IiBzdHlsZT0ic3Ryb2tlOiNBODAwMzY7c3Ryb2tlLXdpZHRoOjEuMDsiLz48L2c+PGcgaWQ9ImVsZW1fTW92ZUludGVybWVkaWF0ZSI+PHJlY3QgeT0iMTExNSIgeD0iNDA5LjUiIHdpZHRoPSIxNjUiIHN0eWxlPSJzdHJva2U6I0E4MDAzNjtzdHJva2Utd2lkdGg6MS4wOyIgaWQ9Ik1vdmVJbnRlcm1lZGlhdGUiIGhlaWdodD0iNDgiIGZpbHRlcj0idXJsKCNmc3p6N29xaTl0aGQzKSIgZmlsbD0iI0ZFRkVDRSIvPjxlbGxpcHNlIHN0eWxlPSJzdHJva2U6I0E4MDAzNjtzdHJva2Utd2lkdGg6MS4wOyIgcnk9IjExIiByeD0iMTEiIGZpbGw9IiNBREQxQjIiIGN5PSIxMTMxIiBjeD0iNDI0LjUiLz48cGF0aCBmaWxsPSIjMDAwMDAwIiBkPSJNNDI2Ljg0MzgsMTEyNi42NzE5IEM0MjUuOTA2MywxMTI2LjIzNDQgNDI1LjMxMjUsMTEyNi4wOTM4IDQyNC40Mzc1LDExMjYuMDkzOCBDNDIxLjgxMjUsMTEyNi4wOTM4IDQxOS44MTI1LDExMjguMTcxOSA0MTkuODEyNSwxMTMwLjg5MDYgTDQxOS44MTI1LDExMzIuMDE1NiBDNDE5LjgxMjUsMTEzNC41OTM4IDQyMS45MjE5LDExMzYuNDg0NCA0MjQuODEyNSwxMTM2LjQ4NDQgQzQyNi4wMzEzLDExMzYuNDg0NCA0MjcuMTg3NSwxMTM2LjE4NzUgNDI3LjkzNzUsMTEzNS42NDA2IEM0MjguNTE1NiwxMTM1LjIzNDQgNDI4Ljg0MzgsMTEzNC43ODEzIDQyOC44NDM4LDExMzQuMzkwNiBDNDI4Ljg0MzgsMTEzMy45Mzc1IDQyOC40NTMxLDExMzMuNTQ2OSA0MjcuOTg0NCwxMTMzLjU0NjkgQzQyNy43NjU2LDExMzMuNTQ2OSA0MjcuNTYyNSwxMTMzLjYyNSA0MjcuMzc1LDExMzMuODEyNSBDNDI2LjkyMTksMTEzNC4yOTY5IDQyNi45MjE5LDExMzQuMjk2OSA0MjYuNzM0NCwxMTM0LjM5MDYgQzQyNi4zMTI1LDExMzQuNjU2MyA0MjUuNjI1LDExMzQuNzgxMyA0MjQuODU5NCwxMTM0Ljc4MTMgQzQyMi44MTI1LDExMzQuNzgxMyA0MjEuNTE1NiwxMTMzLjY4NzUgNDIxLjUxNTYsMTEzMS45ODQ0IEw0MjEuNTE1NiwxMTMwLjg5MDYgQzQyMS41MTU2LDExMjkuMTA5NCA0MjIuNzY1NiwxMTI3Ljc5NjkgNDI0LjUsMTEyNy43OTY5IEM0MjUuMDc4MSwxMTI3Ljc5NjkgNDI1LjY4NzUsMTEyNy45NTMxIDQyNi4xNTYzLDExMjguMjAzMSBDNDI2LjY0MDYsMTEyOC40ODQ0IDQyNi44MTI1LDExMjguNzAzMSA0MjYuOTA2MywxMTI5LjEwOTQgQzQyNi45Njg4LDExMjkuNTE1NiA0MjcsMTEyOS42NDA2IDQyNy4xNDA2LDExMjkuNzY1NiBDNDI3LjI4MTMsMTEyOS45MDYzIDQyNy41MTU2LDExMzAuMDE1NiA0MjcuNzM0NCwxMTMwLjAxNTYgQzQyOCwxMTMwLjAxNTYgNDI4LjI2NTYsMTEyOS44NzUgNDI4LjQzNzUsMTEyOS42NTYzIEM0MjguNTQ2OSwxMTI5LjUgNDI4LjU3ODEsMTEyOS4zMTI1IDQyOC41NzgxLDExMjguODkwNiBMNDI4LjU3ODEsMTEyNy40Njg4IEM0MjguNTc4MSwxMTI3LjAzMTMgNDI4LjU2MjUsMTEyNi45MDYzIDQyOC40Njg4LDExMjYuNzUgQzQyOC4zMTI1LDExMjYuNDg0NCA0MjguMDMxMywxMTI2LjM0MzggNDI3LjczNDQsMTEyNi4zNDM4IEM0MjcuNDM3NSwxMTI2LjM0MzggNDI3LjIzNDQsMTEyNi40Mzc1IDQyNy4wMTU2LDExMjYuNzUgTDQyNi44NDM4LDExMjYuNjcxOSBaIi8+PHRleHQgeT0iMTEzNS44NDY3IiB4PSI0MzguNSIgdGV4dExlbmd0aD0iMTMzIiBsZW5ndGhBZGp1c3Q9InNwYWNpbmciIGZvbnQtc2l6ZT0iMTQiIGZvbnQtZmFtaWx5PSJzYW5zLXNlcmlmIiBmaWxsPSIjMDAwMDAwIj5Nb3ZlSW50ZXJtZWRpYXRlPC90ZXh0PjxsaW5lIHkyPSIxMTQ3IiB5MT0iMTE0NyIgeDI9IjU3My41IiB4MT0iNDEwLjUiIHN0eWxlPSJzdHJva2U6I0E4MDAzNjtzdHJva2Utd2lkdGg6MS4wOyIvPjxsaW5lIHkyPSIxMTU1IiB5MT0iMTE1NSIgeDI9IjU3My41IiB4MT0iNDEwLjUiIHN0eWxlPSJzdHJva2U6I0E4MDAzNjtzdHJva2Utd2lkdGg6MS4wOyIvPjwvZz48ZyBpZD0iZWxlbV9SZW1vdGUiPjxyZWN0IHk9IjEyNyIgeD0iMjAxNSIgd2lkdGg9IjkwIiBzdHlsZT0ic3Ryb2tlOiNBODAwMzY7c3Ryb2tlLXdpZHRoOjEuMDsiIGlkPSJSZW1vdGUiIGhlaWdodD0iNDgiIGZpbHRlcj0idXJsKCNmc3p6N29xaTl0aGQzKSIgZmlsbD0iI0ZFRkVDRSIvPjxlbGxpcHNlIHN0eWxlPSJzdHJva2U6I0E4MDAzNjtzdHJva2Utd2lkdGg6MS4wOyIgcnk9IjExIiByeD0iMTEiIGZpbGw9IiNBREQxQjIiIGN5PSIxNDMiIGN4PSIyMDMwIi8+PHBhdGggZmlsbD0iIzAwMDAwMCIgZD0iTTIwMzIuMzQzOCwxMzguNjcxOSBDMjAzMS40MDYzLDEzOC4yMzQ0IDIwMzAuODEyNSwxMzguMDkzOCAyMDI5LjkzNzUsMTM4LjA5MzggQzIwMjcuMzEyNSwxMzguMDkzOCAyMDI1LjMxMjUsMTQwLjE3MTkgMjAyNS4zMTI1LDE0Mi44OTA2IEwyMDI1LjMxMjUsMTQ0LjAxNTYgQzIwMjUuMzEyNSwxNDYuNTkzOCAyMDI3LjQyMTksMTQ4LjQ4NDQgMjAzMC4zMTI1LDE0OC40ODQ0IEMyMDMxLjUzMTMsMTQ4LjQ4NDQgMjAzMi42ODc1LDE0OC4xODc1IDIwMzMuNDM3NSwxNDcuNjQwNiBDMjAzNC4wMTU2LDE0Ny4yMzQ0IDIwMzQuMzQzOCwxNDYuNzgxMyAyMDM0LjM0MzgsMTQ2LjM5MDYgQzIwMzQuMzQzOCwxNDUuOTM3NSAyMDMzLjk1MzEsMTQ1LjU0NjkgMjAzMy40ODQ0LDE0NS41NDY5IEMyMDMzLjI2NTYsMTQ1LjU0NjkgMjAzMy4wNjI1LDE0NS42MjUgMjAzMi44NzUsMTQ1LjgxMjUgQzIwMzIuNDIxOSwxNDYuMjk2OSAyMDMyLjQyMTksMTQ2LjI5NjkgMjAzMi4yMzQ0LDE0Ni4zOTA2IEMyMDMxLjgxMjUsMTQ2LjY1NjMgMjAzMS4xMjUsMTQ2Ljc4MTMgMjAzMC4zNTk0LDE0Ni43ODEzIEMyMDI4LjMxMjUsMTQ2Ljc4MTMgMjAyNy4wMTU2LDE0NS42ODc1IDIwMjcuMDE1NiwxNDMuOTg0NCBMMjAyNy4wMTU2LDE0Mi44OTA2IEMyMDI3LjAxNTYsMTQxLjEwOTQgMjAyOC4yNjU2LDEzOS43OTY5IDIwMzAsMTM5Ljc5NjkgQzIwMzAuNTc4MSwxMzkuNzk2OSAyMDMxLjE4NzUsMTM5Ljk1MzEgMjAzMS42NTYzLDE0MC4yMDMxIEMyMDMyLjE0MDYsMTQwLjQ4NDQgMjAzMi4zMTI1LDE0MC43MDMxIDIwMzIuNDA2MywxNDEuMTA5NCBDMjAzMi40Njg4LDE0MS41MTU2IDIwMzIuNSwxNDEuNjQwNiAyMDMyLjY0MDYsMTQxLjc2NTYgQzIwMzIuNzgxMywxNDEuOTA2MyAyMDMzLjAxNTYsMTQyLjAxNTYgMjAzMy4yMzQ0LDE0Mi4wMTU2IEMyMDMzLjUsMTQyLjAxNTYgMjAzMy43NjU2LDE0MS44NzUgMjAzMy45Mzc1LDE0MS42NTYzIEMyMDM0LjA0NjksMTQxLjUgMjAzNC4wNzgxLDE0MS4zMTI1IDIwMzQuMDc4MSwxNDAuODkwNiBMMjAzNC4wNzgxLDEzOS40Njg4IEMyMDM0LjA3ODEsMTM5LjAzMTMgMjAzNC4wNjI1LDEzOC45MDYzIDIwMzMuOTY4OCwxMzguNzUgQzIwMzMuODEyNSwxMzguNDg0NCAyMDMzLjUzMTMsMTM4LjM0MzggMjAzMy4yMzQ0LDEzOC4zNDM4IEMyMDMyLjkzNzUsMTM4LjM0MzggMjAzMi43MzQ0LDEzOC40Mzc1IDIwMzIuNTE1NiwxMzguNzUgTDIwMzIuMzQzOCwxMzguNjcxOSBaIi8+PHRleHQgeT0iMTQ3Ljg0NjciIHg9IjIwNDQiIHRleHRMZW5ndGg9IjU4IiBsZW5ndGhBZGp1c3Q9InNwYWNpbmciIGZvbnQtc2l6ZT0iMTQiIGZvbnQtZmFtaWx5PSJzYW5zLXNlcmlmIiBmaWxsPSIjMDAwMDAwIj5SZW1vdGU8L3RleHQ+PGxpbmUgeTI9IjE1OSIgeTE9IjE1OSIgeDI9IjIxMDQiIHgxPSIyMDE2IiBzdHlsZT0ic3Ryb2tlOiNBODAwMzY7c3Ryb2tlLXdpZHRoOjEuMDsiLz48bGluZSB5Mj0iMTY3IiB5MT0iMTY3IiB4Mj0iMjEwNCIgeDE9IjIwMTYiIHN0eWxlPSJzdHJva2U6I0E4MDAzNjtzdHJva2Utd2lkdGg6MS4wOyIvPjwvZz48ZyBpZD0iZWxlbV9VbmljYXN0UmVtb3RlT2JqZWN0Ij48cmVjdCB5PSIxMjciIHg9IjIxNDAuNSIgd2lkdGg9IjE5MSIgc3R5bGU9InN0cm9rZTojQTgwMDM2O3N0cm9rZS13aWR0aDoxLjA7IiBpZD0iVW5pY2FzdFJlbW90ZU9iamVjdCIgaGVpZ2h0PSI0OCIgZmlsdGVyPSJ1cmwoI2Zzeno3b3FpOXRoZDMpIiBmaWxsPSIjRkVGRUNFIi8+PGVsbGlwc2Ugc3R5bGU9InN0cm9rZTojQTgwMDM2O3N0cm9rZS13aWR0aDoxLjA7IiByeT0iMTEiIHJ4PSIxMSIgZmlsbD0iI0FERDFCMiIgY3k9IjE0MyIgY3g9IjIxNTUuNSIvPjxwYXRoIGZpbGw9IiMwMDAwMDAiIGQ9Ik0yMTU3Ljg0MzgsMTM4LjY3MTkgQzIxNTYuOTA2MywxMzguMjM0NCAyMTU2LjMxMjUsMTM4LjA5MzggMjE1NS40Mzc1LDEzOC4wOTM4IEMyMTUyLjgxMjUsMTM4LjA5MzggMjE1MC44MTI1LDE0MC4xNzE5IDIxNTAuODEyNSwxNDIuODkwNiBMMjE1MC44MTI1LDE0NC4wMTU2IEMyMTUwLjgxMjUsMTQ2LjU5MzggMjE1Mi45MjE5LDE0OC40ODQ0IDIxNTUuODEyNSwxNDguNDg0NCBDMjE1Ny4wMzEzLDE0OC40ODQ0IDIxNTguMTg3NSwxNDguMTg3NSAyMTU4LjkzNzUsMTQ3LjY0MDYgQzIxNTkuNTE1NiwxNDcuMjM0NCAyMTU5Ljg0MzgsMTQ2Ljc4MTMgMjE1OS44NDM4LDE0Ni4zOTA2IEMyMTU5Ljg0MzgsMTQ1LjkzNzUgMjE1OS40NTMxLDE0NS41NDY5IDIxNTguOTg0NCwxNDUuNTQ2OSBDMjE1OC43NjU2LDE0NS41NDY5IDIxNTguNTYyNSwxNDUuNjI1IDIxNTguMzc1LDE0NS44MTI1IEMyMTU3LjkyMTksMTQ2LjI5NjkgMjE1Ny45MjE5LDE0Ni4yOTY5IDIxNTcuNzM0NCwxNDYuMzkwNiBDMjE1Ny4zMTI1LDE0Ni42NTYzIDIxNTYuNjI1LDE0Ni43ODEzIDIxNTUuODU5NCwxNDYuNzgxMyBDMjE1My44MTI1LDE0Ni43ODEzIDIxNTIuNTE1NiwxNDUuNjg3NSAyMTUyLjUxNTYsMTQzLjk4NDQgTDIxNTIuNTE1NiwxNDIuODkwNiBDMjE1Mi41MTU2LDE0MS4xMDk0IDIxNTMuNzY1NiwxMzkuNzk2OSAyMTU1LjUsMTM5Ljc5NjkgQzIxNTYuMDc4MSwxMzkuNzk2OSAyMTU2LjY4NzUsMTM5Ljk1MzEgMjE1Ny4xNTYzLDE0MC4yMDMxIEMyMTU3LjY0MDYsMTQwLjQ4NDQgMjE1Ny44MTI1LDE0MC43MDMxIDIxNTcuOTA2MywxNDEuMTA5NCBDMjE1Ny45Njg4LDE0MS41MTU2IDIxNTgsMTQxLjY0MDYgMjE1OC4xNDA2LDE0MS43NjU2IEMyMTU4LjI4MTMsMTQxLjkwNjMgMjE1OC41MTU2LDE0Mi4wMTU2IDIxNTguNzM0NCwxNDIuMDE1NiBDMjE1OSwxNDIuMDE1NiAyMTU5LjI2NTYsMTQxLjg3NSAyMTU5LjQzNzUsMTQxLjY1NjMgQzIxNTkuNTQ2OSwxNDEuNSAyMTU5LjU3ODEsMTQxLjMxMjUgMjE1OS41NzgxLDE0MC44OTA2IEwyMTU5LjU3ODEsMTM5LjQ2ODggQzIxNTkuNTc4MSwxMzkuMDMxMyAyMTU5LjU2MjUsMTM4LjkwNjMgMjE1OS40Njg4LDEzOC43NSBDMjE1OS4zMTI1LDEzOC40ODQ0IDIxNTkuMDMxMywxMzguMzQzOCAyMTU4LjczNDQsMTM4LjM0MzggQzIxNTguNDM3NSwxMzguMzQzOCAyMTU4LjIzNDQsMTM4LjQzNzUgMjE1OC4wMTU2LDEzOC43NSBMMjE1Ny44NDM4LDEzOC42NzE5IFoiLz48dGV4dCB5PSIxNDcuODQ2NyIgeD0iMjE2OS41IiB0ZXh0TGVuZ3RoPSIxNTkiIGxlbmd0aEFkanVzdD0ic3BhY2luZyIgZm9udC1zaXplPSIxNCIgZm9udC1mYW1pbHk9InNhbnMtc2VyaWYiIGZpbGw9IiMwMDAwMDAiPlVuaWNhc3RSZW1vdGVPYmplY3Q8L3RleHQ+PGxpbmUgeTI9IjE1OSIgeTE9IjE1OSIgeDI9IjIzMzAuNSIgeDE9IjIxNDEuNSIgc3R5bGU9InN0cm9rZTojQTgwMDM2O3N0cm9rZS13aWR0aDoxLjA7Ii8+PGxpbmUgeTI9IjE2NyIgeTE9IjE2NyIgeDI9IjIzMzAuNSIgeDE9IjIxNDEuNSIgc3R5bGU9InN0cm9rZTojQTgwMDM2O3N0cm9rZS13aWR0aDoxLjA7Ii8+PC9nPjxnIGlkPSJlbGVtX0FwcGxpY2F0aW9uIj48cmVjdCB5PSI2NjMuNSIgeD0iMzM3NS41IiB3aWR0aD0iMTE1IiBzdHlsZT0ic3Ryb2tlOiNBODAwMzY7c3Ryb2tlLXdpZHRoOjEuMDsiIGlkPSJBcHBsaWNhdGlvbiIgaGVpZ2h0PSI0OCIgZmlsdGVyPSJ1cmwoI2Zzeno3b3FpOXRoZDMpIiBmaWxsPSIjRkVGRUNFIi8+PGVsbGlwc2Ugc3R5bGU9InN0cm9rZTojQTgwMDM2O3N0cm9rZS13aWR0aDoxLjA7IiByeT0iMTEiIHJ4PSIxMSIgZmlsbD0iI0FERDFCMiIgY3k9IjY3OS41IiBjeD0iMzM5MC41Ii8+PHBhdGggZmlsbD0iIzAwMDAwMCIgZD0iTTMzOTIuODQzOCw2NzUuMTcxOSBDMzM5MS45MDYzLDY3NC43MzQ0IDMzOTEuMzEyNSw2NzQuNTkzOCAzMzkwLjQzNzUsNjc0LjU5MzggQzMzODcuODEyNSw2NzQuNTkzOCAzMzg1LjgxMjUsNjc2LjY3MTkgMzM4NS44MTI1LDY3OS4zOTA2IEwzMzg1LjgxMjUsNjgwLjUxNTYgQzMzODUuODEyNSw2ODMuMDkzOCAzMzg3LjkyMTksNjg0Ljk4NDQgMzM5MC44MTI1LDY4NC45ODQ0IEMzMzkyLjAzMTMsNjg0Ljk4NDQgMzM5My4xODc1LDY4NC42ODc1IDMzOTMuOTM3NSw2ODQuMTQwNiBDMzM5NC41MTU2LDY4My43MzQ0IDMzOTQuODQzOCw2ODMuMjgxMyAzMzk0Ljg0MzgsNjgyLjg5MDYgQzMzOTQuODQzOCw2ODIuNDM3NSAzMzk0LjQ1MzEsNjgyLjA0NjkgMzM5My45ODQ0LDY4Mi4wNDY5IEMzMzkzLjc2NTYsNjgyLjA0NjkgMzM5My41NjI1LDY4Mi4xMjUgMzM5My4zNzUsNjgyLjMxMjUgQzMzOTIuOTIxOSw2ODIuNzk2OSAzMzkyLjkyMTksNjgyLjc5NjkgMzM5Mi43MzQ0LDY4Mi44OTA2IEMzMzkyLjMxMjUsNjgzLjE1NjMgMzM5MS42MjUsNjgzLjI4MTMgMzM5MC44NTk0LDY4My4yODEzIEMzMzg4LjgxMjUsNjgzLjI4MTMgMzM4Ny41MTU2LDY4Mi4xODc1IDMzODcuNTE1Niw2ODAuNDg0NCBMMzM4Ny41MTU2LDY3OS4zOTA2IEMzMzg3LjUxNTYsNjc3LjYwOTQgMzM4OC43NjU2LDY3Ni4yOTY5IDMzOTAuNSw2NzYuMjk2OSBDMzM5MS4wNzgxLDY3Ni4yOTY5IDMzOTEuNjg3NSw2NzYuNDUzMSAzMzkyLjE1NjMsNjc2LjcwMzEgQzMzOTIuNjQwNiw2NzYuOTg0NCAzMzkyLjgxMjUsNjc3LjIwMzEgMzM5Mi45MDYzLDY3Ny42MDk0IEMzMzkyLjk2ODgsNjc4LjAxNTYgMzM5Myw2NzguMTQwNiAzMzkzLjE0MDYsNjc4LjI2NTYgQzMzOTMuMjgxMyw2NzguNDA2MyAzMzkzLjUxNTYsNjc4LjUxNTYgMzM5My43MzQ0LDY3OC41MTU2IEMzMzk0LDY3OC41MTU2IDMzOTQuMjY1Niw2NzguMzc1IDMzOTQuNDM3NSw2NzguMTU2MyBDMzM5NC41NDY5LDY3OCAzMzk0LjU3ODEsNjc3LjgxMjUgMzM5NC41NzgxLDY3Ny4zOTA2IEwzMzk0LjU3ODEsNjc1Ljk2ODggQzMzOTQuNTc4MSw2NzUuNTMxMyAzMzk0LjU2MjUsNjc1LjQwNjMgMzM5NC40Njg4LDY3NS4yNSBDMzM5NC4zMTI1LDY3NC45ODQ0IDMzOTQuMDMxMyw2NzQuODQzOCAzMzkzLjczNDQsNjc0Ljg0MzggQzMzOTMuNDM3NSw2NzQuODQzOCAzMzkzLjIzNDQsNjc0LjkzNzUgMzM5My4wMTU2LDY3NS4yNSBMMzM5Mi44NDM4LDY3NS4xNzE5IFoiLz48dGV4dCB5PSI2ODQuMzQ2NyIgeD0iMzQwNC41IiB0ZXh0TGVuZ3RoPSI4MyIgbGVuZ3RoQWRqdXN0PSJzcGFjaW5nIiBmb250LXNpemU9IjE0IiBmb250LWZhbWlseT0ic2Fucy1zZXJpZiIgZmlsbD0iIzAwMDAwMCI+QXBwbGljYXRpb248L3RleHQ+PGxpbmUgeTI9IjY5NS41IiB5MT0iNjk1LjUiIHgyPSIzNDg5LjUiIHgxPSIzMzc2LjUiIHN0eWxlPSJzdHJva2U6I0E4MDAzNjtzdHJva2Utd2lkdGg6MS4wOyIvPjxsaW5lIHkyPSI3MDMuNSIgeTE9IjcwMy41IiB4Mj0iMzQ4OS41IiB4MT0iMzM3Ni41IiBzdHlsZT0ic3Ryb2tlOiNBODAwMzY7c3Ryb2tlLXdpZHRoOjEuMDsiLz48L2c+PGcgaWQ9ImxpbmtfQm9hcmRJbnRlcmZhY2VfQ2xpZW50Qm9hcmQiPjxwYXRoIHN0eWxlPSJzdHJva2U6I0E4MDAzNjtzdHJva2Utd2lkdGg6MS4wO3N0cm9rZS1kYXNoYXJyYXk6Ny4wLDcuMDsiIGlkPSJCb2FyZEludGVyZmFjZS1iYWNrdG8tQ2xpZW50Qm9hcmQiIGZpbGw9Im5vbmUiIGQ9Ik0xODkyLjA5LDczMS45MzggQzE4OTguNzYsODI1LjUzNCAxOTE0LjI3LDEwNDMuNTM0IDE5MTkuMzYsMTExNC45MTgiLz48cG9seWdvbiBzdHlsZT0ic3Ryb2tlOiNBODAwMzY7c3Ryb2tlLXdpZHRoOjEuMDsiIHBvaW50cz0iMTg4NS4wOSw3MzIuMTY3LDE4OTAuNjUsNzExLjcyMSwxODk5LjA2LDczMS4xNzMsMTg4NS4wOSw3MzIuMTY3IiBmaWxsPSJub25lIi8+PC9nPjxnIGlkPSJsaW5rX0NvbW1vbkdvYWxDYXJkSW50ZXJmYWNlX0NsaWVudENvbW1vbkdvYWxDYXJkIj48cGF0aCBzdHlsZT0ic3Ryb2tlOiNBODAwMzY7c3Ryb2tlLXdpZHRoOjEuMDtzdHJva2UtZGFzaGFycmF5OjcuMCw3LjA7IiBpZD0iQ29tbW9uR29hbENhcmRJbnRlcmZhY2UtYmFja3RvLUNsaWVudENvbW1vbkdvYWxDYXJkIiBmaWxsPSJub25lIiBkPSJNMTY3NS4yOCw3MzEuNjQyIEMxNjg2LjcxLDgyNS4wNzQgMTcxMy40MywxMDQzLjQ1OSAxNzIyLjE4LDExMTQuOTE4Ii8+PHBvbHlnb24gc3R5bGU9InN0cm9rZTojQTgwMDM2O3N0cm9rZS13aWR0aDoxLjA7IiBwb2ludHM9IjE2NjguMzIsNzMyLjQyMywxNjcyLjg0LDcxMS43MjEsMTY4Mi4yMiw3MzAuNzIyLDE2NjguMzIsNzMyLjQyMyIgZmlsbD0ibm9uZSIvPjwvZz48ZyBpZD0ibGlua19SZW1vdGVfU2hlbGZJbnRlcmZhY2UiPjxwYXRoIHN0eWxlPSJzdHJva2U6I0E4MDAzNjtzdHJva2Utd2lkdGg6MS4wOyIgaWQ9IlJlbW90ZS1iYWNrdG8tU2hlbGZJbnRlcmZhY2UiIGZpbGw9Im5vbmUiIGQ9Ik0yMDYwLDE5NS4zNiBDMjA2MCwzMDMuMyAyMDYwLDU4MS4zMDkgMjA2MCw2NjMuMzY4Ii8+PHBvbHlnb24gc3R5bGU9InN0cm9rZTojQTgwMDM2O3N0cm9rZS13aWR0aDoxLjA7IiBwb2ludHM9IjIwNTMsMTk1LjMxLDIwNjAsMTc1LjMxLDIwNjcsMTk1LjMxLDIwNTMsMTk1LjMxIiBmaWxsPSJub25lIi8+PC9nPjxnIGlkPSJsaW5rX1JlbW90ZV9TY29yZUJvYXJkSW50ZXJmYWNlIj48cGF0aCBzdHlsZT0ic3Ryb2tlOiNBODAwMzY7c3Ryb2tlLXdpZHRoOjEuMDsiIGlkPSJSZW1vdGUtYmFja3RvLVNjb3JlQm9hcmRJbnRlcmZhY2UiIGZpbGw9Im5vbmUiIGQ9Ik0yMDgwLjM5LDE5Mi44MyBDMjA5MS4yNywyMTEuMzMgMjEwNi4xMiwyMzIuMyAyMTI0LDI0NyBDMjEzMS4wOCwyNTIuODIgMjEzNy4wNCwyNDguMDQgMjE0MywyNTUgQzIyNDkuNDQsMzc5LjE0IDIyNTMuNjksNTkzLjEzNyAyMjUxLjk4LDY2My40MDciLz48cG9seWdvbiBzdHlsZT0ic3Ryb2tlOiNBODAwMzY7c3Ryb2tlLXdpZHRoOjEuMDsiIHBvaW50cz0iMjA3NC4xNywxOTYuMDUsMjA3MC43LDE3NS4xNCwyMDg2LjQ1LDE4OS4zMiwyMDc0LjE3LDE5Ni4wNSIgZmlsbD0ibm9uZSIvPjwvZz48ZyBpZD0ibGlua19SZW1vdGVfUk1JQ29udHJvbGxlckludGVyZmFjZSI+PHBhdGggc3R5bGU9InN0cm9rZTojQTgwMDM2O3N0cm9rZS13aWR0aDoxLjA7IiBpZD0iUmVtb3RlLWJhY2t0by1STUlDb250cm9sbGVySW50ZXJmYWNlIiBmaWxsPSJub25lIiBkPSJNMTk5NC41OCwxNTQuNTUgQzE3ODUuMDcsMTYzLjI4IDExNDAuMjQsMTk0Ljg2IDEwNzAsMjU1IEM5NDQuNDg3LDM2Mi40NiA5NDguOTc2LDU5MC4zMSA5NTMuOTc1LDY2My40MSIvPjxwb2x5Z29uIHN0eWxlPSJzdHJva2U6I0E4MDAzNjtzdHJva2Utd2lkdGg6MS4wOyIgcG9pbnRzPSIxOTk0LjYsMTQ3LjU0LDIwMTQuODcsMTUzLjcyLDE5OTUuMTcsMTYxLjUzLDE5OTQuNiwxNDcuNTQiIGZpbGw9Im5vbmUiLz48L2c+PGcgaWQ9ImxpbmtfUmVtb3RlX0NsaWVudFN0YXR1c0ludGVyZmFjZSI+PHBhdGggc3R5bGU9InN0cm9rZTojQTgwMDM2O3N0cm9rZS13aWR0aDoxLjA7IiBpZD0iUmVtb3RlLWJhY2t0by1DbGllbnRTdGF0dXNJbnRlcmZhY2UiIGZpbGw9Im5vbmUiIGQ9Ik0xOTk0LjYzLDE1My4xNSBDMTc1NC40NywxNTcuOTggOTMwLjI1MywxNzkuOTEgODQyLDI1NSBDNzE2LjU3MywzNjEuNzEgNzI1LjE2OCw1OTAuMDU5IDczMS41MzYsNjYzLjM0NyIvPjxwb2x5Z29uIHN0eWxlPSJzdHJva2U6I0E4MDAzNjtzdHJva2Utd2lkdGg6MS4wOyIgcG9pbnRzPSIxOTk0LjYxLDE0Ni4xNSwyMDE0Ljc0LDE1Mi43NiwxOTk0Ljg4LDE2MC4xNSwxOTk0LjYxLDE0Ni4xNSIgZmlsbD0ibm9uZSIvPjwvZz48ZyBpZD0ibGlua19DbGllbnRTdGF0dXNJbnRlcmZhY2VfQ2xpZW50U3RhdHVzIj48cGF0aCBzdHlsZT0ic3Ryb2tlOiNBODAwMzY7c3Ryb2tlLXdpZHRoOjEuMDtzdHJva2UtZGFzaGFycmF5OjcuMCw3LjA7IiBpZD0iQ2xpZW50U3RhdHVzSW50ZXJmYWNlLWJhY2t0by1DbGllbnRTdGF0dXMiIGZpbGw9Im5vbmUiIGQ9Ik0zMTA5LjQ3LDExODMuMjkgQzMxMTIuNDMsMTIxMi4wMTEgMzExNi4yMSwxMjQ4LjU3MyAzMTE4LjYxLDEyNzEuODkiLz48cG9seWdvbiBzdHlsZT0ic3Ryb2tlOiNBODAwMzY7c3Ryb2tlLXdpZHRoOjEuMDsiIHBvaW50cz0iMzEwMi40OSwxMTgzLjgxOCwzMTA3LjQsMTE2My4yMDUsMzExNi40MSwxMTgyLjM4MSwzMTAyLjQ5LDExODMuODE4IiBmaWxsPSJub25lIi8+PC9nPjxnIGlkPSJsaW5rX1VuaWNhc3RSZW1vdGVPYmplY3RfQ2xpZW50U3RhdHVzIj48cGF0aCBzdHlsZT0ic3Ryb2tlOiNBODAwMzY7c3Ryb2tlLXdpZHRoOjEuMDsiIGlkPSJVbmljYXN0UmVtb3RlT2JqZWN0LWJhY2t0by1DbGllbnRTdGF0dXMiIGZpbGw9Im5vbmUiIGQ9Ik0yMzUxLjkyLDE1Mi42NCBDMjY1MC43OCwxNTUuNTEgMzQyOS41NSwxNzEuMDIgMzUwNywyNTUgQzM2MTUuMDIsMzcyLjEzIDM1NzQuNDQsODI3LjY0MSAzNTA3LDk3MiBDMzQzNi42NCwxMTIyLjYxOSAzMjU3LjY3LDEyMjcuNzU5IDMxNzAuMzgsMTI3MS44MzEiLz48cG9seWdvbiBzdHlsZT0ic3Ryb2tlOiNBODAwMzY7c3Ryb2tlLXdpZHRoOjEuMDsiIHBvaW50cz0iMjM1MS42LDE1OS42NCwyMzMxLjY3LDE1Mi40NiwyMzUxLjczLDE0NS42NCwyMzUxLjYsMTU5LjY0IiBmaWxsPSJub25lIi8+PC9nPjxnIGlkPSJsaW5rX1JlbW90ZV9PYmplY3RDYXJkSW50ZXJmYWNlIj48cGF0aCBzdHlsZT0ic3Ryb2tlOiNBODAwMzY7c3Ryb2tlLXdpZHRoOjEuMDsiIGlkPSJSZW1vdGUtYmFja3RvLU9iamVjdENhcmRJbnRlcmZhY2UiIGZpbGw9Im5vbmUiIGQ9Ik0yMDc2Ljg1LDE5My42OCBDMjA4Ny4yNiwyMTMuNiAyMTAyLjc1LDIzNS41NSAyMTI0LDI0NyBDMjE0Mi41OSwyNTcuMDEgMjg2Ny40NSwyNDEuODkgMjg4NCwyNTUgQzMwMTMuMjIsMzU3LjQyIDMwMDAuNTUsNTg5LjYzMSAyOTkyLjg1LDY2My40ODkiLz48cG9seWdvbiBzdHlsZT0ic3Ryb2tlOiNBODAwMzY7c3Ryb2tlLXdpZHRoOjEuMDsiIHBvaW50cz0iMjA3MC4zNywxOTYuMzUsMjA2OC4yNSwxNzUuMjYsMjA4My4wNiwxOTAuNDMsMjA3MC4zNywxOTYuMzUiIGZpbGw9Im5vbmUiLz48L2c+PGcgaWQ9ImxpbmtfQXBwbGljYXRpb25fR1VJIj48cGF0aCBzdHlsZT0ic3Ryb2tlOiNBODAwMzY7c3Ryb2tlLXdpZHRoOjEuMDsiIGlkPSJBcHBsaWNhdGlvbi1iYWNrdG8tR1VJIiBmaWxsPSJub25lIiBkPSJNMzQwOS4xMSw3MjguNzUgQzMzNjcuNTQsNzk0LjMzNiAzMjc0Ljk1LDkyMS45NjQgMzE1Nyw5NzIgQzMxMjguNTQsOTg0LjA3NCA5NTUuNjQxLDk2MS4zMjcgOTMxLDk4MCBDODg5LjI4NywxMDExLjYwOSA4ODQuMjUzLDEwNzkuMDg0IDg4NC43NDcsMTExNC43NjciLz48cG9seWdvbiBzdHlsZT0ic3Ryb2tlOiNBODAwMzY7c3Ryb2tlLXdpZHRoOjEuMDsiIHBvaW50cz0iMzQwMy4yMiw3MjQuOTc2LDM0MTkuNjksNzExLjY0MywzNDE1LjEzLDczMi4zMzYsMzQwMy4yMiw3MjQuOTc2IiBmaWxsPSJub25lIi8+PC9nPjxnIGlkPSJsaW5rX1JlbW90ZV9TdGF0dXNJbnRlcm1lZGlhdGVJbnRlcmZhY2UiPjxwYXRoIHN0eWxlPSJzdHJva2U6I0E4MDAzNjtzdHJva2Utd2lkdGg6MS4wOyIgaWQ9IlJlbW90ZS1iYWNrdG8tU3RhdHVzSW50ZXJtZWRpYXRlSW50ZXJmYWNlIiBmaWxsPSJub25lIiBkPSJNMjA3Ni44OCwxOTMuNjMgQzIwODcuMywyMTMuNTQgMjEwMi43OCwyMzUuNDkgMjEyNCwyNDcgQzIxNDguMDgsMjYwLjA2IDI1OTUuMDgsMjM4LjU4IDI2MTcsMjU1IEMyNzUxLjE5LDM1NS41MyAyNzU0LjcxLDU4OS4wMDcgMjc1Mi4yMiw2NjMuMzM1Ii8+PHBvbHlnb24gc3R5bGU9InN0cm9rZTojQTgwMDM2O3N0cm9rZS13aWR0aDoxLjA7IiBwb2ludHM9IjIwNzAuNCwxOTYuMzEsMjA2OC4yNywxNzUuMjMsMjA4My4wOSwxOTAuMzgsMjA3MC40LDE5Ni4zMSIgZmlsbD0ibm9uZSIvPjwvZz48ZyBpZD0ibGlua19SZW1vdGVfTW92ZUludGVybWVkaWF0ZUludGVyZmFjZSI+PHBhdGggc3R5bGU9InN0cm9rZTojQTgwMDM2O3N0cm9rZS13aWR0aDoxLjA7IiBpZD0iUmVtb3RlLWJhY2t0by1Nb3ZlSW50ZXJtZWRpYXRlSW50ZXJmYWNlIiBmaWxsPSJub25lIiBkPSJNMTk5NC4zMywxNTIuNTQgQzE4MzQuNDUsMTU1LjE4IDE0MzAuODgsMTcwLjMgMTMzMiwyNTUgQzEyMDUuMzUsMzYzLjQ4IDExOTguNzcsNTkwLjE2IDEyMDAuMTMsNjYzLjI0OSIvPjxwb2x5Z29uIHN0eWxlPSJzdHJva2U6I0E4MDAzNjtzdHJva2Utd2lkdGg6MS4wOyIgcG9pbnRzPSIxOTk0LjY4LDE0NS41MywyMDE0Ljc3LDE1Mi4yNSwxOTk0Ljg4LDE1OS41MywxOTk0LjY4LDE0NS41MyIgZmlsbD0ibm9uZSIvPjwvZz48ZyBpZD0ibGlua19SZW1vdGVfQ29tbW9uR29hbENhcmRJbnRlcmZhY2UiPjxwYXRoIHN0eWxlPSJzdHJva2U6I0E4MDAzNjtzdHJva2Utd2lkdGg6MS4wOyIgaWQ9IlJlbW90ZS1iYWNrdG8tQ29tbW9uR29hbENhcmRJbnRlcmZhY2UiIGZpbGw9Im5vbmUiIGQ9Ik0xOTk0LjY5LDE2MS43OSBDMTkzNi4zOCwxNzMuODggMTg1Mi41OCwyMDAuMDQgMTgwMiwyNTUgQzE2ODkuNTMsMzc3LjIxIDE2NzIuODIsNTkyLjkyNyAxNjcwLjM5LDY2My40NzEiLz48cG9seWdvbiBzdHlsZT0ic3Ryb2tlOiNBODAwMzY7c3Ryb2tlLXdpZHRoOjEuMDsiIHBvaW50cz0iMTk5My41OCwxNTQuODgsMjAxNC41NCwxNTguMDEsMTk5Ni4yLDE2OC42MywxOTkzLjU4LDE1NC44OCIgZmlsbD0ibm9uZSIvPjwvZz48ZyBpZD0ibGlua19TY29yZUNhcmRJbnRlcmZhY2VfQ2xpZW50U2NvcmVDYXJkIj48cGF0aCBzdHlsZT0ic3Ryb2tlOiNBODAwMzY7c3Ryb2tlLXdpZHRoOjEuMDtzdHJva2UtZGFzaGFycmF5OjcuMCw3LjA7IiBpZD0iU2NvcmVDYXJkSW50ZXJmYWNlLWJhY2t0by1DbGllbnRTY29yZUNhcmQiIGZpbGw9Im5vbmUiIGQ9Ik0xNDQyLjQ5LDczMS42NDIgQzE0NTguNyw4MjUuMDc0IDE0OTYuNTksMTA0My40NTkgMTUwOC45OSwxMTE0LjkxOCIvPjxwb2x5Z29uIHN0eWxlPSJzdHJva2U6I0E4MDAzNjtzdHJva2Utd2lkdGg6MS4wOyIgcG9pbnRzPSIxNDM1LjU1LDczMi42MjMsMTQzOS4wMyw3MTEuNzIxLDE0NDkuMzUsNzMwLjIyOSwxNDM1LjU1LDczMi42MjMiIGZpbGw9Im5vbmUiLz48L2c+PGcgaWQ9ImxpbmtfUk1JQ2xpZW50SW50ZXJmYWNlX1JNSUNsaWVudCI+PHBhdGggc3R5bGU9InN0cm9rZTojQTgwMDM2O3N0cm9rZS13aWR0aDoxLjA7c3Ryb2tlLWRhc2hhcnJheTo3LjAsNy4wOyIgaWQ9IlJNSUNsaWVudEludGVyZmFjZS1iYWNrdG8tUk1JQ2xpZW50IiBmaWxsPSJub25lIiBkPSJNNzM5LDExODMuMjkgQzczOSwxMjEyLjAxMSA3MzksMTI0OC41NzMgNzM5LDEyNzEuODkiLz48cG9seWdvbiBzdHlsZT0ic3Ryb2tlOiNBODAwMzY7c3Ryb2tlLXdpZHRoOjEuMDsiIHBvaW50cz0iNzMyLDExODMuMjA1LDczOSwxMTYzLjIwNSw3NDYsMTE4My4yMDUsNzMyLDExODMuMjA1IiBmaWxsPSJub25lIi8+PC9nPjxnIGlkPSJsaW5rX01vdmVJbnRlcm1lZGlhdGVJbnRlcmZhY2VfTW92ZUludGVybWVkaWF0ZSI+PHBhdGggc3R5bGU9InN0cm9rZTojQTgwMDM2O3N0cm9rZS13aWR0aDoxLjA7c3Ryb2tlLWRhc2hhcnJheTo3LjAsNy4wOyIgaWQ9Ik1vdmVJbnRlcm1lZGlhdGVJbnRlcmZhY2UtYmFja3RvLU1vdmVJbnRlcm1lZGlhdGUiIGZpbGw9Im5vbmUiIGQ9Ik0xMTk1LjI4LDczMS44ODUgQzExODQuMTMsNzk2Ljk1MyAxMTUyLjgzLDkxNy45MzcgMTA3MCw5NzIgQzEwNDkuOTQsOTg1LjA4OSA2NjAuODY3LDk3MC4yMzUgNjM5LDk4MCBDNTc1LjcxMSwxMDA4LjI2MyA1MjcuMTI2LDEwNzguMTkgNTA1LjA0NSwxMTE0LjgwMyIvPjxwb2x5Z29uIHN0eWxlPSJzdHJva2U6I0E4MDAzNjtzdHJva2Utd2lkdGg6MS4wOyIgcG9pbnRzPSIxMTg4LjQyLDczMC40NjgsMTE5OC4zOSw3MTEuNzcsMTIwMi4yNiw3MzIuNjA0LDExODguNDIsNzMwLjQ2OCIgZmlsbD0ibm9uZSIvPjwvZz48ZyBpZD0ibGlua19VbmljYXN0UmVtb3RlT2JqZWN0X01vdmVJbnRlcm1lZGlhdGUiPjxwYXRoIHN0eWxlPSJzdHJva2U6I0E4MDAzNjtzdHJva2Utd2lkdGg6MS4wOyIgaWQ9IlVuaWNhc3RSZW1vdGVPYmplY3QtYmFja3RvLU1vdmVJbnRlcm1lZGlhdGUiIGZpbGw9Im5vbmUiIGQ9Ik0yMzUxLjc5LDE1Ny41IEMyNTc0LjYzLDE2OS4yNyAzMDQ1LjU0LDIwMC4zOCAzMDk0LDI1NSBDMzMwNS40OCw0OTMuMzgyIDMzMTguOTYsNzQ2LjMwMiAzMDk0LDk3MiBDMzA4MS45Niw5ODQuMDc1IDY1NC42Miw5NzMuMTY3IDYzOSw5ODAgQzU3NS4zMjUsMTAwNy44NTQgNTI2Ljc0NSwxMDc4LjMgNTA0LjgxOCwxMTE0Ljk4OSIvPjxwb2x5Z29uIHN0eWxlPSJzdHJva2U6I0E4MDAzNjtzdHJva2Utd2lkdGg6MS4wOyIgcG9pbnRzPSIyMzUxLjI3LDE2NC40OCwyMzMxLjY2LDE1Ni40NSwyMzUyLDE1MC41LDIzNTEuMjcsMTY0LjQ4IiBmaWxsPSJub25lIi8+PC9nPjxnIGlkPSJsaW5rX1JlbW90ZV9TY29yZUNhcmRJbnRlcmZhY2UiPjxwYXRoIHN0eWxlPSJzdHJva2U6I0E4MDAzNjtzdHJva2Utd2lkdGg6MS4wOyIgaWQ9IlJlbW90ZS1iYWNrdG8tU2NvcmVDYXJkSW50ZXJmYWNlIiBmaWxsPSJub25lIiBkPSJNMTk5NC4zOSwxNTYuMjcgQzE4NjkuMTMsMTY1Ljc3IDE2MDIuNjEsMTkyLjkgMTUzOCwyNTUgQzE0MTkuODcsMzY4LjU1IDE0MjYuOTUsNTkxLjM4NSAxNDMyLjcxLDY2My40MzYiLz48cG9seWdvbiBzdHlsZT0ic3Ryb2tlOiNBODAwMzY7c3Ryb2tlLXdpZHRoOjEuMDsiIHBvaW50cz0iMTk5NC4xOSwxNDkuMjYsMjAxNC42NSwxNTQuNzksMTk5NS4yMSwxNjMuMjMsMTk5NC4xOSwxNDkuMjYiIGZpbGw9Im5vbmUiLz48L2c+PGcgaWQ9ImxpbmtfT2JqZWN0Q2FyZEludGVyZmFjZV9DbGllbnRPYmplY3RDYXJkIj48cGF0aCBzdHlsZT0ic3Ryb2tlOiNBODAwMzY7c3Ryb2tlLXdpZHRoOjEuMDtzdHJva2UtZGFzaGFycmF5OjcuMCw3LjA7IiBpZD0iT2JqZWN0Q2FyZEludGVyZmFjZS1iYWNrdG8tQ2xpZW50T2JqZWN0Q2FyZCIgZmlsbD0ibm9uZSIgZD0iTTI5ODcuNzMsNzMxLjk4MiBDMjk4MS44Miw3OTYuMjEzIDI5NjAuNTIsOTE0Ljk5IDI4ODQsOTcyIEMyODYyLjkyLDk4Ny43MDMgMjc4OC40Niw5NjYuMzQ3IDI3NjYsOTgwIEMyNzE1LjU0LDEwMTAuNjggMjY4OC4wMiwxMDc4Ljg4MSAyNjc2LjUzLDExMTQuODE3Ii8+PHBvbHlnb24gc3R5bGU9InN0cm9rZTojQTgwMDM2O3N0cm9rZS13aWR0aDoxLjA7IiBwb2ludHM9IjI5ODAuNzgsNzMxLjE0OSwyOTg5LjI1LDcxMS43MjgsMjk5NC43NCw3MzIuMTk1LDI5ODAuNzgsNzMxLjE0OSIgZmlsbD0ibm9uZSIvPjwvZz48ZyBpZD0ibGlua19TaGVsZkludGVyZmFjZV9DbGllbnRTaGVsZiI+PHBhdGggc3R5bGU9InN0cm9rZTojQTgwMDM2O3N0cm9rZS13aWR0aDoxLjA7c3Ryb2tlLWRhc2hhcnJheTo3LjAsNy4wOyIgaWQ9IlNoZWxmSW50ZXJmYWNlLWJhY2t0by1DbGllbnRTaGVsZiIgZmlsbD0ibm9uZSIgZD0iTTIwNjEuMDYsNzMxLjkzOCBDMjA2My4zNSw4MjUuNTM0IDIwNjguNjksMTA0My41MzQgMjA3MC40NCwxMTE0LjkxOCIvPjxwb2x5Z29uIHN0eWxlPSJzdHJva2U6I0E4MDAzNjtzdHJva2Utd2lkdGg6MS4wOyIgcG9pbnRzPSIyMDU0LjA2LDczMS44ODYsMjA2MC41Nyw3MTEuNzIxLDIwNjguMDYsNzMxLjU0MywyMDU0LjA2LDczMS44ODYiIGZpbGw9Im5vbmUiLz48L2c+PGcgaWQ9ImxpbmtfUGVyc29uYWxHb2FsQ2FyZEludGVyZmFjZV9DbGllbnRQZXJzb25hbEdvYWxDYXJkIj48cGF0aCBzdHlsZT0ic3Ryb2tlOiNBODAwMzY7c3Ryb2tlLXdpZHRoOjEuMDtzdHJva2UtZGFzaGFycmF5OjcuMCw3LjA7IiBpZD0iUGVyc29uYWxHb2FsQ2FyZEludGVyZmFjZS1iYWNrdG8tQ2xpZW50UGVyc29uYWxHb2FsQ2FyZCIgZmlsbD0ibm9uZSIgZD0iTTI0ODQuOTEsNzMxLjkzOCBDMjQ3OC4yNCw4MjUuNTM0IDI0NjIuNzMsMTA0My41MzQgMjQ1Ny42NCwxMTE0LjkxOCIvPjxwb2x5Z29uIHN0eWxlPSJzdHJva2U6I0E4MDAzNjtzdHJva2Utd2lkdGg6MS4wOyIgcG9pbnRzPSIyNDc3Ljk0LDczMS4xNzMsMjQ4Ni4zNSw3MTEuNzIxLDI0OTEuOTEsNzMyLjE2NywyNDc3Ljk0LDczMS4xNzMiIGZpbGw9Im5vbmUiLz48L2c+PGcgaWQ9ImxpbmtfU2NvcmVCb2FyZEludGVyZmFjZV9DbGllbnRTY29yZWJvYXJkIj48cGF0aCBzdHlsZT0ic3Ryb2tlOiNBODAwMzY7c3Ryb2tlLXdpZHRoOjEuMDtzdHJva2UtZGFzaGFycmF5OjcuMCw3LjA7IiBpZD0iU2NvcmVCb2FyZEludGVyZmFjZS1iYWNrdG8tQ2xpZW50U2NvcmVib2FyZCIgZmlsbD0ibm9uZSIgZD0iTTIyNTAuMDMsNzMxLjkzOCBDMjI0Ny45NSw4MjUuNTM0IDIyNDMuMSwxMDQzLjUzNCAyMjQxLjUxLDExMTQuOTE4Ii8+PHBvbHlnb24gc3R5bGU9InN0cm9rZTojQTgwMDM2O3N0cm9rZS13aWR0aDoxLjA7IiBwb2ludHM9IjIyNDMuMDQsNzMxLjU2LDIyNTAuNDgsNzExLjcyMSwyMjU3LjA0LDczMS44NzEsMjI0My4wNCw3MzEuNTYiIGZpbGw9Im5vbmUiLz48L2c+PGcgaWQ9ImxpbmtfUmVtb3RlX0JvYXJkSW50ZXJmYWNlIj48cGF0aCBzdHlsZT0ic3Ryb2tlOiNBODAwMzY7c3Ryb2tlLXdpZHRoOjEuMDsiIGlkPSJSZW1vdGUtYmFja3RvLUJvYXJkSW50ZXJmYWNlIiBmaWxsPSJub25lIiBkPSJNMjAyMS43MSwxODkuNzQgQzIwMDUuMjgsMjA4IDE5ODcuMjksMjMxLjEyIDE5NzYsMjU1IEMxOTA3LjU4LDM5OS43NSAxODkyLjg4LDU5Ni41NjQgMTg4OS44LDY2My4yODkiLz48cG9seWdvbiBzdHlsZT0ic3Ryb2tlOiNBODAwMzY7c3Ryb2tlLXdpZHRoOjEuMDsiIHBvaW50cz0iMjAxNi43NSwxODQuOCwyMDM1LjU2LDE3NS4wNCwyMDI2Ljk0LDE5NC40LDIwMTYuNzUsMTg0LjgiIGZpbGw9Im5vbmUiLz48L2c+PGcgaWQ9ImxpbmtfUmVtb3RlX1BlcnNvbmFsR29hbENhcmRJbnRlcmZhY2UiPjxwYXRoIHN0eWxlPSJzdHJva2U6I0E4MDAzNjtzdHJva2Utd2lkdGg6MS4wOyIgaWQ9IlJlbW90ZS1iYWNrdG8tUGVyc29uYWxHb2FsQ2FyZEludGVyZmFjZSIgZmlsbD0ibm9uZSIgZD0iTTIwNzYuOTcsMTkzLjQ4IEMyMDg3LjQxLDIxMy4zNCAyMTAyLjg5LDIzNS4zIDIxMjQsMjQ3IEMyMTQ2Ljc1LDI1OS42MSAyMzM3LjM5LDIzOS4xMyAyMzU4LDI1NSBDMjQ5MC41MSwzNTcuMDMgMjQ5Mi4zNyw1ODkuNTAyIDI0ODkuMzcsNjYzLjQ1NyIvPjxwb2x5Z29uIHN0eWxlPSJzdHJva2U6I0E4MDAzNjtzdHJva2Utd2lkdGg6MS4wOyIgcG9pbnRzPSIyMDcwLjUxLDE5Ni4yLDIwNjguMzMsMTc1LjEzLDIwODMuMTgsMTkwLjI0LDIwNzAuNTEsMTk2LjIiIGZpbGw9Im5vbmUiLz48L2c+PC9nPjwvc3ZnPg==;" vertex="1" parent="1">
          <mxGeometry x="16" y="260" width="1621.62" height="650" as="geometry" />
        </mxCell>
      </root>
    </mxGraphModel>
  </diagram>
</mxfile>
